<svg width="20" height="20" viewBox="0 0 20 20" fill="none" xmlns="http://www.w3.org/2000/svg">
    <g clip-path="url(#clip0_57_157)">
        <path
            d="M15.2174 11.8096L13.4312 12.7487L13.7723 10.7598L12.3272 9.35112L14.3242 9.06093L15.2174 7.25128L16.1105 9.06093L18.1075 9.35112L16.6624 10.7598L17.0036 12.7487L15.2174 11.8096Z"
            fill="#FFFE9F" />
        <path
            d="M17.8216 6.64835L16.7439 7.21491L16.9497 6.01495L16.0779 5.16515L17.2827 4.99003L17.8216 3.89832L18.3604 4.99003L19.5652 5.16515L18.6934 6.01495L18.8992 7.21491L17.8216 6.64835Z"
            fill="#FFFE9F" />
        <path
            d="M4.10525 17.5329C4.79709 18.0725 5.21181 18.2824 5.21181 18.2824C6.61998 19.0982 8.25544 19.5652 9.99997 19.5652C11.7423 19.5652 13.3756 19.0992 14.7826 18.2852C11.9236 16.6313 9.99997 13.5404 9.99997 9.99999C9.99997 6.45957 11.9236 3.36868 14.7826 1.71477C13.3756 0.900829 11.7423 0.434814 9.99997 0.434814C4.71724 0.434814 0.434753 4.71727 0.434753 9.99999C0.434753 12.5638 1.44346 14.892 3.08561 16.6095L4.10525 17.5329Z"
            fill="#E5E5E5" />
        <path
            d="M3.04346 11.7391C3.52371 11.7391 3.91303 11.3498 3.91303 10.8695C3.91303 10.3893 3.52371 9.99997 3.04346 9.99997C2.56321 9.99997 2.17389 10.3893 2.17389 10.8695C2.17389 11.3498 2.56321 11.7391 3.04346 11.7391Z"
            fill="#AFAFAF" />
        <path
            d="M6.52172 16.1304C7.50623 16.1304 8.30433 15.3323 8.30433 14.3478C8.30433 13.3633 7.50623 12.5652 6.52172 12.5652C5.53721 12.5652 4.73911 13.3633 4.73911 14.3478C4.73911 15.3323 5.53721 16.1304 6.52172 16.1304Z"
            fill="#AFAFAF" />
        <path
            d="M3.04347 9.56522C2.32425 9.56522 1.73914 10.1503 1.73914 10.8695C1.73914 11.5888 2.32425 12.1739 3.04347 12.1739C3.76269 12.1739 4.3478 11.5888 4.3478 10.8695C4.3478 10.1503 3.76269 9.56522 3.04347 9.56522ZM3.04347 11.3044C2.80374 11.3044 2.6087 11.1093 2.6087 10.8696C2.6087 10.6299 2.80374 10.4348 3.04347 10.4348C3.2832 10.4348 3.47823 10.6299 3.47823 10.8696C3.47823 11.1093 3.2832 11.3044 3.04347 11.3044Z"
            fill="black" />
        <path
            d="M6.52173 16.5652C7.74442 16.5652 8.73911 15.5705 8.73911 14.3478C8.73911 13.1251 7.74442 12.1304 6.52173 12.1304C5.29904 12.1304 4.30435 13.1251 4.30435 14.3478C4.30435 15.5705 5.29904 16.5652 6.52173 16.5652ZM6.52173 13C7.26489 13 7.86954 13.6046 7.86954 14.3478C7.86954 15.091 7.26489 15.6956 6.52173 15.6956C5.77857 15.6956 5.17392 15.091 5.17392 14.3478C5.17392 13.6046 5.77853 13 6.52173 13Z"
            fill="black" />
        <path
            d="M15.0003 17.9089C12.1842 16.2798 10.4347 13.2492 10.4347 9.99998C10.4347 6.75073 12.1842 3.72023 15.0003 2.09109C15.1347 2.01339 15.2174 1.86996 15.2174 1.71472C15.2174 1.55949 15.1347 1.41613 15.0003 1.33836C13.4868 0.462851 11.7577 0 9.99998 0C7.32889 0 4.81769 1.04019 2.92894 2.92898C1.04015 4.81769 0 7.32889 0 9.99998C0 12.5869 0.984217 15.0408 2.7714 16.9099C2.93734 17.0835 3.21253 17.0896 3.38613 16.9237C3.55968 16.7578 3.56581 16.4825 3.39988 16.309C1.76816 14.6025 0.869569 12.3619 0.869569 9.99998C0.869569 4.9655 4.96546 0.869569 9.99998 0.869569C11.3581 0.869569 12.6972 1.17199 13.914 1.74922C12.7074 2.57738 11.6898 3.66495 10.9446 4.92913C10.0422 6.45995 9.56522 8.21346 9.56522 9.99998C9.56522 11.7865 10.0422 13.54 10.9447 15.0708C11.6899 16.335 12.7075 17.4225 13.914 18.2507C12.6972 18.828 11.3581 19.1304 9.99998 19.1304C8.3926 19.1304 6.81225 18.707 5.42975 17.9061C5.22194 17.7857 4.95597 17.8566 4.83558 18.0643C4.71519 18.2721 4.78605 18.5381 4.99382 18.6585C6.50858 19.5361 8.23967 20 9.99998 20C11.7577 20 13.4868 19.5371 15.0003 18.6616C15.1347 18.5838 15.2174 18.4404 15.2174 18.2852C15.2174 18.13 15.1347 17.9866 15.0003 17.9089Z"
            fill="black" />
        <path
            d="M4.02041 17.1065C3.9926 17.1121 3.96518 17.1204 3.93912 17.1312C3.9126 17.1421 3.88736 17.1556 3.86389 17.1712C3.83998 17.1873 3.81779 17.2052 3.79779 17.2256C3.71693 17.3064 3.67041 17.4182 3.67041 17.533C3.67041 17.5612 3.67346 17.5899 3.67912 17.6177C3.68436 17.6455 3.69303 17.673 3.70389 17.699C3.71475 17.7251 3.72822 17.7503 3.74389 17.7743C3.75955 17.7977 3.77779 17.8203 3.79779 17.8403C3.81779 17.8603 3.83998 17.8786 3.86389 17.8943C3.88736 17.9099 3.9126 17.9234 3.93912 17.9343C3.96521 17.9451 3.9926 17.9534 4.02041 17.959C4.04822 17.9647 4.07693 17.9677 4.10518 17.9677C4.21951 17.9677 4.3317 17.9212 4.41256 17.8403C4.43256 17.8203 4.4508 17.7977 4.46646 17.7743C4.48213 17.7503 4.4956 17.7251 4.50646 17.699C4.51732 17.6729 4.52603 17.6455 4.53123 17.6177C4.53689 17.5899 4.53994 17.5612 4.53994 17.533C4.53994 17.4182 4.49342 17.3064 4.41256 17.2256C4.31174 17.1243 4.16174 17.0782 4.02041 17.1065Z"
            fill="black" />
        <path
            d="M18.1701 8.92087L16.3992 8.66353L15.6073 7.05884C15.534 6.91044 15.3829 6.8165 15.2173 6.8165C15.0518 6.8165 14.9007 6.91044 14.8274 7.05884L14.0355 8.66353L12.2646 8.92087C12.1008 8.94466 11.9648 9.05938 11.9137 9.21677C11.8625 9.37415 11.9052 9.54692 12.0237 9.66247L13.3051 10.9116L13.0027 12.6753C12.9747 12.8384 13.0418 13.0032 13.1757 13.1005C13.3096 13.1978 13.4871 13.2106 13.6335 13.1336L15.2174 12.3009L16.8013 13.1336C16.8649 13.167 16.9344 13.1836 17.0036 13.1836C17.0937 13.1836 17.1834 13.1555 17.2592 13.1005C17.393 13.0032 17.4602 12.8384 17.4322 12.6752L17.1297 10.9115L18.4112 9.66243C18.5297 9.54692 18.5723 9.37411 18.5212 9.21673C18.4699 9.05938 18.3339 8.94462 18.1701 8.92087ZM16.3589 10.4484C16.2565 10.5482 16.2097 10.6922 16.2339 10.8332L16.4261 11.9539L15.4197 11.4248C15.3564 11.3915 15.2869 11.3748 15.2174 11.3748C15.1479 11.3748 15.0784 11.3915 15.0151 11.4248L14.0086 11.9539L14.2009 10.8332C14.225 10.6922 14.1782 10.5482 14.0758 10.4484L13.2615 9.65466L14.3868 9.49114C14.5284 9.47059 14.6508 9.38161 14.7142 9.25333L15.2173 8.23364L15.7205 9.25333C15.7839 9.38165 15.9063 9.47059 16.0479 9.49114L17.1732 9.65466L16.3589 10.4484Z"
            fill="black" />
        <path
            d="M19.9787 5.03076C19.9275 4.87338 19.7915 4.75862 19.6277 4.73487L18.6491 4.59264L18.2115 3.70584C18.1382 3.55745 17.9871 3.4635 17.8216 3.4635C17.6561 3.4635 17.5049 3.55745 17.4316 3.70584L16.994 4.59264L16.0154 4.73487C15.8516 4.75865 15.7156 4.87338 15.6644 5.03076C15.6133 5.18815 15.6559 5.36092 15.7744 5.47647L16.4825 6.16674L16.3154 7.14138C16.2873 7.30451 16.3545 7.46935 16.4884 7.56666C16.6223 7.66396 16.7998 7.67673 16.9462 7.59974L17.8215 7.13959L18.6968 7.59974C18.7604 7.63318 18.8299 7.6497 18.8991 7.6497C18.9892 7.6497 19.079 7.6217 19.1547 7.56666C19.2886 7.46939 19.3557 7.30451 19.3277 7.14138L19.1605 6.16674L19.8687 5.47647C19.9872 5.36096 20.0298 5.18818 19.9787 5.03076ZM18.3899 5.70361C18.2875 5.8035 18.2407 5.9474 18.2648 6.08846L18.3218 6.4201L18.0239 6.2635C17.9606 6.23017 17.8911 6.21353 17.8216 6.21353C17.7521 6.21353 17.6826 6.23017 17.6193 6.2635L17.3214 6.4201L17.3784 6.08846C17.4025 5.9474 17.3557 5.8035 17.2533 5.70361L17.0123 5.46873L17.3453 5.42033C17.4869 5.39979 17.6094 5.3108 17.6727 5.18252L17.8216 4.88076L17.9705 5.18252C18.0339 5.31084 18.1562 5.39979 18.2979 5.42033L18.6309 5.46873L18.3899 5.70361Z"
            fill="black" />
    </g>
    <defs>
        <clipPath id="clip0_57_157">
            <rect width="20" height="20" fill="white" />
        </clipPath>
    </defs>
</svg>
    