<svg width="20" height="20" viewBox="0 0 20 20" fill="none" xmlns="http://www.w3.org/2000/svg">
    <path
        d="M7.55937 1.33438C7.72084 1.27873 7.89484 1.27034 8.06092 1.3102C8.227 1.35005 8.37824 1.4365 8.49687 1.55938C8.62187 1.65626 8.63124 1.75313 8.75937 1.71563C8.88749 1.67813 9.40312 0.993756 9.93124 1.04063C10.4594 1.08751 10.9375 1.93126 11.075 1.95001C11.2125 1.96876 11.9937 1.39376 12.4625 1.35313C12.9312 1.31251 13.4187 1.35313 13.5156 1.90938C13.6125 2.46563 13.4781 2.69063 13.8 2.84688C14.1219 3.00313 15.3625 2.42813 15.8406 3.03438C16.3187 3.64063 15.7812 4.46876 15.9 4.59688C16.0187 4.72501 17.3344 4.70313 17.5781 5.09376C17.8219 5.48438 17.6062 5.89376 17.5 6.25001C17.3937 6.60626 17.2156 6.84688 17.4406 7.02188C17.6656 7.19688 18.0375 7.17813 18.2312 7.24688C18.425 7.31563 18.8375 7.39376 18.8562 8.15313C18.875 8.91251 18.125 8.96563 18.1844 9.32501C18.2437 9.68438 19.0625 10 19.2187 10.4344C19.3046 10.6486 19.3037 10.8878 19.2162 11.1013C19.1287 11.3148 18.9615 11.4858 18.75 11.5781C18.2625 11.8531 18.0187 11.8531 18.0187 12.0188C17.9799 12.4777 17.9999 12.9398 18.0781 13.3938C18.2031 13.9219 18.1844 14.0875 18.0281 14.3719C17.8719 14.6563 17.5312 14.575 17.3062 14.5563C17.0812 14.5375 16.8062 14.4688 16.7187 14.6063C16.6312 14.7438 16.9844 15.6125 16.8281 15.9156C16.7543 16.0636 16.6338 16.183 16.4852 16.2553C16.3365 16.3276 16.1682 16.3488 16.0062 16.3156C15.6344 16.2563 15.5094 16.1094 15.3437 16.1781C15.1781 16.2469 15.2062 17.0281 14.8625 17.4C14.7559 17.5528 14.6063 17.6703 14.4326 17.7376C14.259 17.805 14.0692 17.8191 13.8875 17.7781C13.4562 17.7313 13.2625 17.3781 13.0375 17.4469C12.8125 17.5156 12.7437 18.3844 12.2562 18.5594C12.071 18.6301 11.8723 18.6589 11.6746 18.6438C11.4768 18.6287 11.2849 18.57 11.1125 18.4719C10.8219 18.3375 10.85 18.1313 10.5562 18.2281C10.2625 18.325 9.96249 18.825 9.44374 18.9313C9.2746 18.9863 9.09226 18.9857 8.92351 18.9294C8.75476 18.8732 8.60851 18.7643 8.50624 18.6188C8.35937 18.4375 8.41874 18.1594 8.12499 18.125C7.83124 18.0906 7.48124 18.7 7.05937 18.7313C6.83582 18.7363 6.61482 18.6831 6.4181 18.5768C6.22139 18.4705 6.05575 18.3148 5.93749 18.125C5.65312 17.7156 5.86874 17.2656 5.54687 17.1688C5.22499 17.0719 4.60937 17.5469 4.13124 17.1688C3.99043 17.0813 3.87485 16.9586 3.79594 16.8128C3.71702 16.6671 3.67749 16.5032 3.68124 16.3375C3.68124 16.1719 3.62187 15.9469 3.36874 15.9469C3.11562 15.9469 2.41249 16.075 2.15937 15.8C2.0304 15.6532 1.95053 15.4698 1.93092 15.2753C1.91131 15.0809 1.95294 14.8852 2.04999 14.7156C2.26562 14.3656 2.54062 14.1781 2.39374 13.9938C2.24687 13.8094 1.42499 13.475 1.26874 12.8813C1.11249 12.2875 1.62187 11.8563 1.68124 11.5906C1.74062 11.325 1.86562 11.0438 1.64062 10.9656C1.41562 10.8875 0.868742 10.5938 0.781242 10.3406C0.693742 10.0875 0.653117 9.78126 0.965617 9.68751C1.27812 9.59376 2.04062 9.23751 1.94374 9.01251C1.84687 8.78751 1.31874 8.35001 1.21249 8.03751C1.10624 7.72501 1.13437 7.05001 1.46562 6.89376C1.79687 6.73751 2.47187 6.84376 2.51874 6.66876C2.56562 6.49376 2.05937 5.90626 2.04999 5.58438C2.04062 5.26251 2.27499 4.72501 2.59687 4.64688C2.91874 4.56876 3.57499 4.83438 3.76874 4.66563C3.96249 4.49688 3.64374 3.59376 3.94687 3.39688C4.09093 3.3232 4.24898 3.28092 4.41059 3.27284C4.57219 3.26476 4.73368 3.29106 4.88437 3.35001C5.04062 3.42813 5.19687 3.62188 5.30312 3.49376C5.40937 3.36563 5.10624 2.55626 5.44062 2.27501C5.77499 1.99376 6.43437 2.50938 6.69062 2.37188C6.94687 2.23438 7.02187 1.51876 7.55937 1.33438Z"
        fill="#1D1D1B" />
    <path
        d="M7.70625 1.79374C7.90937 1.77187 8.175 2.36874 8.62187 2.34999C8.95165 2.30243 9.25161 2.13294 9.4625 1.87499C9.61875 1.74687 9.92187 1.54062 9.99062 1.56249C10.0594 1.58437 10.4969 2.45937 10.9281 2.58749C11.3594 2.71562 11.6594 2.22499 11.9937 2.05937C12.3281 1.89374 12.5406 1.70937 12.7656 1.85624C12.9906 2.00312 12.7844 2.96874 13.3312 3.28124C13.8781 3.59374 14.8062 3.07499 15.2437 3.28124C15.6812 3.48749 15.1375 4.71562 15.3531 4.95937C15.5687 5.20312 16.8281 5.04687 17.0312 5.41874C17.2344 5.79062 16.5625 6.45312 16.65 6.95312C16.7375 7.45312 17.1187 7.49062 17.5406 7.67499C17.9625 7.85937 18.1937 7.74374 18.2125 8.11562C18.2312 8.48749 17.2969 9.05312 17.5312 9.63749C17.7656 10.2219 18.5469 10.3125 18.5156 10.75C18.4844 11.1875 17.5 11.4125 17.3937 11.8219C17.2875 12.2312 17.6656 13.95 17.4625 14.05C17.2594 14.15 16.5437 13.9906 16.2687 14.2344C15.9937 14.4781 16.2687 15.4844 16.075 15.65C15.8812 15.8156 15.2344 15.5125 14.825 15.825C14.4156 16.1375 14.5125 17.1844 14.2187 17.2219C13.925 17.2594 13.3781 16.6656 12.7625 16.95C12.1469 17.2344 12.2469 17.925 11.8937 17.9844C11.5406 18.0437 11.25 17.4781 10.5562 17.6219C9.8625 17.7656 9.6875 18.3937 9.2875 18.3469C8.8875 18.3 8.77812 17.5156 8.35 17.4781C7.92187 17.4406 7.1875 18.2187 6.76875 18.0531C6.35 17.8875 6.68125 16.9687 6.06562 16.6844C5.45 16.4 4.78437 16.7625 4.50312 16.7062C4.22187 16.65 4.38437 15.8937 4.22812 15.7687C3.99241 15.5333 3.67374 15.3998 3.34062 15.3969C2.84062 15.3969 2.55937 15.3594 2.675 15.0844C2.79062 14.8094 3.40937 14.2156 3.175 13.9625C2.94062 13.7094 1.875 13.125 1.925 12.6719C1.975 12.2187 2.51875 11.5969 2.38437 11.1594C2.34214 11.0086 2.27004 10.8678 2.17233 10.7454C2.07463 10.623 1.95333 10.5215 1.81562 10.4469C1.65 10.3469 1.29062 10.1344 1.48437 10.0062C1.67812 9.87812 2.66562 9.40937 2.61875 9.06249C2.57187 8.71562 1.97187 8.35624 1.875 7.97499C1.77812 7.59374 1.7875 7.30937 1.9625 7.25312C2.1375 7.19687 3.10625 7.14374 3.2125 6.80312C3.31875 6.46249 2.76562 5.86562 2.73437 5.60312C2.70312 5.34062 2.79375 5.12187 3.04687 5.15312C3.3 5.18437 4.09375 5.38749 4.31875 4.90937C4.54375 4.43124 4.36562 3.85312 4.50312 3.84374C4.64062 3.83437 5.04062 4.19687 5.51875 4.00937C5.99687 3.82187 5.9 3.24687 5.91875 3.14062C5.9375 3.03437 5.84062 2.75937 6.05625 2.74999C6.27187 2.74062 7.09062 3.12499 7.34375 2.69999C7.59687 2.27499 7.52812 1.81249 7.70625 1.79374Z"
        fill="#FAB900" />
    <path
        d="M9.50311 4.94689C10.7875 4.75314 11.9625 4.99689 13.2531 6.50939C14.5437 8.02189 14.5594 8.42501 14.5219 9.90939C14.4844 11.3938 13.8562 12.9063 13.0969 13.5813C12.3375 14.2563 10.3531 14.9281 8.72186 14.3031C7.09061 13.6781 5.99686 12.7 5.39999 11.1281C4.80311 9.55626 5.45936 7.67189 6.02499 6.72501C6.59061 5.77814 7.81249 5.20001 9.50311 4.94689Z"
        fill="#1D1D1B" />
    <path
        d="M9.62812 5.43438C10.2829 5.38354 10.9397 5.5037 11.5341 5.78309C12.1285 6.06248 12.6401 6.49151 13.0187 7.02813C13.8875 8.27813 14.15 8.69688 13.9562 10.1906C13.7625 11.6844 13.4094 12.4281 12.5875 13.125C12.0727 13.524 11.4686 13.7916 10.8272 13.9049C10.1858 14.0181 9.52653 13.9736 8.90625 13.775C7.60625 13.3063 6.57187 12.525 6.09375 11.1C5.61562 9.67501 6.06562 8.10313 6.475 7.26251C6.88437 6.42188 8.19375 5.60313 9.62812 5.43438Z"
        fill="#FFE19B" />
    <path
        d="M7.91875 6.95001C8.025 6.95001 8.23125 7.24376 8.125 7.34064C8.01875 7.43751 7.4625 7.61251 7.15 8.15939C6.8375 8.70626 6.95312 9.45001 6.89375 9.53751C6.83437 9.62501 6.53437 9.68439 6.475 9.60626C6.38274 9.06133 6.43666 8.50168 6.63125 7.98439C6.75882 7.72951 6.93988 7.50516 7.16208 7.32665C7.38427 7.14814 7.64237 7.01967 7.91875 6.95001Z"
        fill="#1D1D1B" />
    <path
        d="M6.66874 3.75002C6.74999 3.69689 7.51874 4.84377 7.46249 4.91252C7.40624 4.98127 7.46249 5.10627 7.32499 5.00002C7.18749 4.89377 6.42499 3.98439 6.45624 3.90627C6.48749 3.82814 6.64062 3.77502 6.66874 3.75002Z"
        fill="#1D1D1B" />
    <path
        d="M7.99687 3.22813C7.99687 3.18438 8.125 3.12188 8.19375 3.16875C8.41271 3.50298 8.5871 3.86437 8.7125 4.24375C8.67187 4.3125 8.6125 4.3625 8.56562 4.33125C8.51875 4.3 7.99687 3.24688 7.99687 3.22813Z"
        fill="#1D1D1B" />
    <path
        d="M9.52187 2.66251C9.55624 2.58126 9.83437 2.62189 9.86249 2.68126C9.90302 3.14914 9.90302 3.61964 9.86249 4.08751C9.80624 4.11876 9.76562 4.14689 9.71874 4.08751C9.61434 3.61868 9.54849 3.14209 9.52187 2.66251Z"
        fill="#1D1D1B" />
    <path
        d="M12.0031 2.82813C12.05 2.79688 12.15 2.75938 12.1281 2.87813C12.0018 3.44332 11.8421 4.00055 11.65 4.54688C11.5906 4.54688 11.425 4.54688 11.425 4.47813C11.5882 3.91824 11.7812 3.36745 12.0031 2.82813Z"
        fill="#1D1D1B" />
    <path
        d="M13.2312 5.24064C13.5374 4.84227 13.8958 4.48699 14.2969 4.18439C14.3656 4.21564 14.4437 4.25314 14.4031 4.28439C14.3625 4.31564 13.4969 5.48439 13.4375 5.46564C13.3518 5.40816 13.2811 5.33102 13.2312 5.24064Z"
        fill="#1D1D1B" />
    <path
        d="M14.4812 6.76252C14.8602 6.46676 15.2625 6.20235 15.6844 5.97189C15.7531 6.00314 15.7906 6.08127 15.7531 6.10939C15.7156 6.13752 14.6281 7.00939 14.5812 6.98752C14.5344 6.96564 14.4812 6.76252 14.4812 6.76252Z"
        fill="#1D1D1B" />
    <path
        d="M15.2938 8.41562C15.3594 8.31562 16.3 8.41562 16.3469 8.4625C16.3938 8.50937 16.4156 8.58125 16.3688 8.6C16.3219 8.61875 15.4688 8.80625 15.3625 8.71562C15.3192 8.68045 15.2889 8.63182 15.2765 8.57746C15.264 8.5231 15.2701 8.46613 15.2938 8.41562Z"
        fill="#1D1D1B" />
    <path
        d="M15.3125 10.2313C15.3969 10.1469 16.875 10.6219 16.8344 10.7C16.7938 10.7781 16.9125 10.875 16.7781 10.875C16.2696 10.788 15.7667 10.6711 15.2719 10.525C15.247 10.4255 15.2615 10.3202 15.3125 10.2313Z"
        fill="#1D1D1B" />
    <path
        d="M15.225 11.6063C15.2562 11.5844 16.5031 11.9781 16.475 12.0875C16.4469 12.1969 16.475 12.2031 16.425 12.2125C15.9757 12.142 15.5342 12.029 15.1062 11.875C15.1227 11.7769 15.1635 11.6845 15.225 11.6063Z"
        fill="#1D1D1B" />
    <path
        d="M14.2781 13.2594C14.6506 13.5262 14.9858 13.8415 15.275 14.1969C15.2344 14.2656 15.2937 14.2531 15.2344 14.2656C14.8392 14.0343 14.4694 13.7619 14.1312 13.4531C14.1406 13.4031 14.2687 13.2875 14.2781 13.2594Z"
        fill="#1D1D1B" />
    <path
        d="M13.3 14.2625C13.3594 14.2844 14.1594 15.2781 14.1219 15.3563C14.0844 15.4344 14.025 15.4938 13.9656 15.475C13.648 15.1442 13.3662 14.7807 13.125 14.3906C13.175 14.3406 13.2719 14.2531 13.3 14.2625Z"
        fill="#1D1D1B" />
    <path
        d="M11.8375 15.025C12.12 15.4308 12.3431 15.8749 12.5 16.3438C12.45 16.3938 12.3156 16.45 12.2844 16.4313C12.0254 15.9939 11.7937 15.541 11.5906 15.075C11.6695 15.0445 11.753 15.0276 11.8375 15.025Z"
        fill="#1D1D1B" />
    <path
        d="M10.275 15.425C10.3094 15.3907 10.5187 15.4063 10.5187 15.4469C10.5187 15.4875 10.3125 17.1157 10.3125 17.1157C10.3125 17.1157 10.175 17.1157 10.1656 17.075C10.1562 17.0344 10.2344 15.4657 10.275 15.425Z"
        fill="#1D1D1B" />
    <path
        d="M8.90624 15.2688C8.93437 15.2281 9.09062 15.2125 9.09062 15.2906C9.03035 15.6916 8.93627 16.0868 8.80937 16.4719C8.74999 16.5 8.67186 16.5594 8.66249 16.5094C8.65311 16.4594 8.88749 15.3125 8.90624 15.2688Z"
        fill="#1D1D1B" />
    <path
        d="M7.18749 14.8313C7.23124 14.7907 7.42187 14.8782 7.41249 14.9563C7.29952 15.3186 7.15196 15.6691 6.97187 16.0032C6.91562 16.0032 6.78749 15.9813 6.78749 15.9532C6.8841 15.5671 7.01807 15.1914 7.18749 14.8313Z"
        fill="#1D1D1B" />
    <path
        d="M5.83125 13.8344C5.84285 13.8203 5.85957 13.8114 5.87774 13.8096C5.89591 13.8079 5.91403 13.8134 5.92812 13.825C5.94221 13.8366 5.95111 13.8534 5.95287 13.8715C5.95463 13.8897 5.9491 13.9078 5.9375 13.9219C5.67601 14.3409 5.39227 14.7457 5.0875 15.1344C5.05 15.1344 4.87187 15.0938 4.89375 15.0438C4.91562 14.9938 5.7625 13.8938 5.83125 13.8344Z"
        fill="#1D1D1B" />
    <path
        d="M4.66875 12.7406C4.71562 12.7406 4.79375 12.8563 4.78437 12.9156C4.4997 13.163 4.18466 13.373 3.84687 13.5406C3.79062 13.5219 3.64375 13.4063 3.69062 13.375C3.7375 13.3438 4.55937 12.7688 4.66875 12.7406Z"
        fill="#1D1D1B" />
    <path
        d="M3.10624 11.5C3.52484 11.4191 3.94897 11.37 4.37499 11.3531C4.41561 11.4031 4.48124 11.5188 4.40311 11.5594C3.99228 11.675 3.57486 11.7658 3.15311 11.8313C3.09686 11.8125 3.10624 11.5 3.10624 11.5Z"
        fill="#1D1D1B" />
    <path
        d="M2.99687 9.57501C3.36795 9.54063 3.74142 9.54063 4.1125 9.57501C4.15 9.63438 4.19062 9.69376 4.14062 9.72188C3.7518 9.76906 3.36042 9.79202 2.96875 9.79063C2.94062 9.77188 2.94062 9.59688 2.99687 9.57501Z"
        fill="#1D1D1B" />
    <path
        d="M3.29062 7.63439C3.33125 7.60626 4.6375 8.05314 4.61875 8.15001C4.6 8.24689 4.61875 8.25939 4.55937 8.26876C4.5 8.27814 3.27187 7.90626 3.20312 7.87814C3.13437 7.85001 3.2125 7.68126 3.29062 7.63439Z"
        fill="#1D1D1B" />
    <path
        d="M4.15937 6.33438C4.21874 6.33438 5.18437 6.79376 5.16562 6.87188C5.14687 6.95001 5.16562 7.02813 5.07812 6.98751C4.99062 6.94688 4.06249 6.57813 4.02499 6.52813C3.98749 6.47813 4.09062 6.33438 4.15937 6.33438Z"
        fill="#1D1D1B" />
    <path
        d="M5.44999 4.64375C5.51874 4.69062 6.38749 5.50312 6.32812 5.54375C6.26874 5.58437 6.15312 5.65 6.11249 5.62187C6.07187 5.59375 5.24374 4.85 5.29374 4.78125C5.34374 4.7125 5.41874 4.625 5.44999 4.64375Z"
        fill="#1D1D1B" />
</svg>
    