<!-- <svg width="250" height="300" viewBox="0 0 250 300" fill="none"
xmlns="http://www.w3.org/2000/svg">
    <path
        d="M214.273 263.254C212.11 263.254 211.294 260.403 209.291 253.426C208.957 252.258 208.587 250.969
208.172 249.553C208.147 249.44 208.167 249.322 208.227 249.222C208.288 249.123 208.385 249.05
208.498 249.019C208.612 248.987 208.733 248.999 208.838 249.052C208.943 249.105 209.023 249.196
209.062 249.305C209.477 250.721 209.847 252.01 210.187 253.178C212.091 259.835 212.882 262.552
214.514 262.322C215.441 262.195 217.283 261.184 219.415 260.022C222.555 258.304 226.461 256.167
230.466 255.042C232.555 254.436 235.108 253.898 237.574 253.359C242.562 252.276 248.767 250.939
249.064 249.516C249.064 249.426 249.002 249.044 248.409 248.403C245.708 245.492 236.461 241.068
218.914 242.956C218.795 242.964 218.678 242.926 218.586 242.85C218.495 242.775 218.437 242.668
218.424 242.552C218.412 242.436 218.445 242.319 218.518 242.226C218.591 242.134 218.698 242.072
218.816 242.055C236.74 240.148 246.283 244.778 249.101 247.816C249.577 248.33 250.115 249.075
249.979 249.722C249.589 251.574 245.108 252.675 237.778 254.267C235.306 254.8 232.784 255.356
230.726 255.931C226.826 257.033 222.969 259.139 219.872 260.833C217.567 262.092 215.75 263.084
214.65 263.254C214.524 263.262 214.398 263.262 214.273 263.254V263.254Z"
        fill="white" />
    <path
        d="M219.18 73.4713C217.856 74.3373 216.365 74.9303 214.798 75.2142C211.869 75.5471 211.659 72.0915
210.756 71.68C209.854 71.2685 208.482 73.1264 205.626 72.8541C204.093 72.7028 202.468 70.155 201.3
67.8372L200.818 68.3879C200.818 68.3879 176.8 131.931 175.273 135.471C179.337 143.967 182.917
152.677 185.996 161.56L219.218 74.1854L219.18 73.4713Z"
        fill="#279C9C" />
    <path
        d="M203.809 148.821C194.18 153.1 188.976 152.525 187.678 151.424C187.435 151.216 187.26 150.943
187.174 150.639C187.088 150.335 187.094 150.013 187.192 149.713C187.289 149.412 187.475 149.146
187.724 148.947C187.974 148.748 188.278 148.624 188.598 148.591C187.535 148.591 185.323 146.213
188.598 144.96C186.88 144.434 186.318 141.081 191.108 141.081C189.037 140.155 188.864 136.803
192.962 136.742C197.227 136.682 199.816 132.808 199.816 132.808L203.809 148.821Z"
        fill="#292E36" />
    <path
        d="M217.956 184.454C212.091 177.622 200.65 176.193 189.315 176.829V176.787C189.426 173.997 188.53
169.73 186.991 164.683C186.311 165.234 185.712 165.7 185.291 166.002C175.594 173.047 149.963
177.374
140.086 177.7C140.518 180.424 146.718 199.953 149.839 203.311C150.247 204.522 160.148 232.287
157.355 237.316C156.075 239.628 137.929 249.855 124.393 263.133C125.53 268.531 130.988 274.97
137.459 275.993C153.974 267.95 174.593 257.196 179.148 249.765C183.703 242.333 184.148 231.936
184.772 206.059L184.716 205.768C194.136 204.098 196.027 203.348 196.027 203.348C196.027 203.348
201.893 231.295 207.103 245.456C207.103 245.456 218.951 243.495 222.721 241.05C224.032 229.497
228.84 197.126 217.956 184.454Z"
        fill="#73B0F9" />
    <path
        d="M137.453 276.483H137.367C130.568 275.412 125.086 268.785 123.924 263.266C123.908 263.193 123.911
263.117 123.933 263.045C123.954 262.973 123.994 262.908 124.047 262.854C132.515 254.551 142.787
247.428 149.592 242.714C153.455 240.039 156.502 237.921 156.935 237.147C158.511 234.302 155.761
221.926 149.574 204.037L149.419 203.59C146.125 199.874 140.037 180.448 139.617 177.821C139.606
177.757 139.609 177.692 139.627 177.63C139.644 177.567 139.675 177.509 139.717 177.459C139.759
177.409 139.812 177.369 139.871 177.34C139.931 177.312 139.996 177.297 140.062 177.295C150.359
176.95 175.563 172.544 185.007 165.688C185.409 165.397 186.009 164.931 186.689 164.38C186.747
164.332 186.818 164.299 186.893 164.284C186.968 164.269 187.046 164.272 187.119 164.294C187.193
164.315 187.26 164.354 187.314 164.408C187.368 164.461 187.408 164.526 187.43 164.598C189 169.724
189.785 173.676 189.779 176.363C203.648 175.655 213.266 178.281 218.303 184.176C228.538 196.11
225.132 224.668 223.495 238.399C223.377 239.404 223.266 240.312 223.173 241.123C223.166 241.188
223.143 241.252 223.108 241.308C223.073 241.364 223.025 241.413 222.969 241.449C219.162 243.924
207.66 245.843 207.171 245.928C207.064 245.946 206.953 245.927 206.859 245.872C206.765 245.818
206.694 245.732 206.658 245.631C201.881 232.644 196.491 207.808 195.669 203.965C194.643 204.273
191.868 205 185.224 206.186C184.606 231.779 184.167 242.496 179.538 250.043C174.834 257.716 153.381
268.803 137.657 276.44C137.594 276.47 137.524 276.484 137.453 276.483V276.483ZM124.894
263.314C126.099 268.47 131.316 274.516 137.379 275.557C152.992 267.95 174.179 257.014 178.746
249.571C183.314 242.127 183.691 231.573 184.309 206.137L184.266 205.895C184.254 205.837 184.255
205.776 184.267 205.717C184.279 205.659 184.303 205.603 184.338 205.553C184.372 205.504 184.417
205.462 184.468 205.429C184.519 205.396 184.576 205.374 184.637 205.363C193.815 203.735 195.83
202.942 195.855 202.942C195.917 202.919 195.984 202.909 196.05 202.913C196.117 202.918 196.181
202.936 196.24 202.967C196.299 202.998 196.35 203.041 196.39 203.093C196.43 203.145 196.458 203.205
196.473 203.269C196.528 203.547 202.295 230.877 207.4 244.959C209.415 244.608 218.847 242.871
222.277 240.802C222.364 240.045 222.462 239.204 222.574 238.284C224.193 224.686 227.568 196.382
217.592 184.751C212.647 179.02 203.166 176.502 189.334 177.289C189.271 177.293 189.208 177.285
189.148 177.264C189.088 177.243 189.034 177.21 188.988 177.168C188.942 177.126 188.905 177.075
188.879 177.019C188.854 176.963 188.84 176.902 188.84 176.841C188.938 174.305 188.221 170.517
186.732 165.512C186.262 165.881 185.86 166.196 185.551 166.414C176.12 173.264 151.348 177.7 140.63
178.178C141.539 182.13 147.231 199.892 150.167 203.051C150.211 203.098 150.245 203.154 150.266
203.214L150.445 203.741C154.184 214.549 160.106 233.322 157.745 237.576C157.232 238.496 154.908
240.136 150.124 243.452C143.418 248.106 133.275 255.138 124.9 263.314H124.894Z"
        fill="white" />
    <path d="M218.624 60.3149L210.447 57.4282L218.13 48.6835L218.624 60.3149Z" fill="#73B0F9" />
    <path
        d="M218.624 60.7687C218.573 60.7773 218.521 60.7773 218.47 60.7687L210.299 57.8578C210.229 57.8324
210.166 57.7909 210.116 57.7367C210.066 57.6825 210.03 57.6173 210.012 57.5466C209.993 57.4759
209.992 57.4018 210.008 57.3306C210.025 57.2594 210.059 57.1932 210.107 57.1376L217.796
48.3929C217.857 48.3233 217.937 48.2733 218.028 48.2494C218.118 48.2255 218.213 48.2288 218.301
48.2589C218.39 48.289 218.466 48.3445 218.522 48.4181C218.577 48.4916 218.609 48.5799 218.612
48.6713L219.107 60.3027C219.109 60.3638 219.099 60.4248 219.077 60.482C219.055 60.5392 219.021
60.5914 218.977 60.6354C218.934 60.6795 218.882 60.7146 218.825 60.7385C218.767 60.7625 218.705
60.7748 218.643 60.7747L218.624 60.7687ZM211.208 57.2284L218.105 59.6491L217.716 49.8513L211.208
57.2284Z"
        fill="white" />
    <path
        d="M214.471 75.6741C214.374 75.6807 214.277 75.6807 214.18 75.6741C212.944 75.4986 211.918 74.4637
211.034 72.5574C210.88 72.2246 210.737 72.1701 210.688 72.152C210.373 72.037 209.761 72.3275
209.112
72.6301C208.49 72.9484 207.835 73.2019 207.159 73.3865C205.478 73.792 203.889 72.7813 202.437
70.3607C202.383 70.2577 202.372 70.1385 202.405 70.0275C202.438 69.9165 202.513 69.8221 202.614
69.7634C202.716 69.7047 202.837 69.6862 202.952 69.7118C203.067 69.7373 203.168 69.8049 203.234
69.9007C204.47 71.9341 205.706 72.8116 206.943 72.5151C207.556 72.3452 208.151 72.114 208.716
71.8252C209.582 71.4197 210.33 71.0627 211.016 71.3108C211.216 71.3914 211.397 71.5114 211.548
71.6634C211.699 71.8154 211.817 71.9961 211.893 72.1943C212.623 73.7859 213.445 74.6574 214.328
74.7845C215.101 74.762 215.857 74.5542 216.529 74.1793C216.64 74.1279 216.768 74.122 216.884
74.1629C217 74.2038 217.094 74.288 217.147 74.3972C217.199 74.5063 217.205 74.6314 217.164
74.7449C217.122 74.8584 217.036 74.951 216.924 75.0023C216.163 75.3907 215.327 75.6194 214.471
75.6741V75.6741Z"
        fill="white" />
    <path
        d="M117.836 300C115.71 300 114.579 298.227 112.094 291.292C111.514 289.586 111.147 287.818 111
286.027C110.778 283.541 110.757 281.042 110.938 278.553C111.075 275.745 111.464 272.954 112.1
270.213C112.446 269.402 113.905 268.797 118.231 267.006L120.66 265.995C120.774 265.948 120.901
265.947 121.015 265.991C121.13 266.036 121.221 266.124 121.269 266.234C121.318 266.345 121.319
266.47 121.273 266.582C121.227 266.694 121.138 266.783 121.025 266.83L118.596 267.841C115.209
269.245 113.163 270.092 112.966 270.558C112.377 273.207 112.011 275.899 111.872 278.607C111.694
281.05 111.715 283.502 111.933 285.942C112.073 287.661 112.423 289.358 112.978 290.995C115.648
298.445 116.569 299.183 118.052 299.092C119.288 299.008 119.585 298.088 120.141 296.018C120.222
295.715 120.308 295.413 120.407 295.062L120.827 293.585C121.353 291.77 122.15 288.956 123.009
286.063C123.627 284.072 124.486 281.167 125.234 279.007C125.537 278.117 125.803 277.391 126.031
276.84C126.081 276.734 126.17 276.65 126.281 276.606C126.392 276.563 126.516 276.563 126.627
276.607C126.737 276.651 126.827 276.734 126.876 276.841C126.925 276.948 126.93 277.069 126.891
277.179C126.674 277.711 126.409 278.42 126.112 279.291C125.364 281.439 124.492 284.326 123.899
286.311C123.04 289.198 122.249 291.981 121.724 293.821L121.297 295.304C121.204 295.631 121.118
295.945 121.037 296.248C120.494 298.269 120.067 299.879 118.114 299.994L117.836 300Z"
        fill="white" />
    <path
        d="M189.754 150.643C189.631 150.643 189.513 150.595 189.426 150.51C189.339 150.425 189.291 150.309
189.291 150.189C189.291 150.069 189.339 149.953 189.426 149.868C189.513 149.783 189.631 149.735
189.754 149.735C196.231 149.505 203.03 147.617 208.84 135.429C214.05 124.499 209.458 115.591
205.811
113.249C205.761 113.216 205.717 113.174 205.683 113.124C205.649 113.075 205.626 113.019 205.613
112.961C205.601 112.902 205.601 112.842 205.613 112.784C205.625 112.725 205.648 112.67 205.682
112.62C205.715 112.57 205.759 112.528 205.809 112.494C205.86 112.461 205.917 112.438 205.976
112.426C206.036 112.414 206.097 112.414 206.157 112.425C206.217 112.437 206.274 112.46 206.324
112.493C210.187 114.986 215.132 124.384 209.681 135.816C203.661 148.44 196.559 150.407 189.791
150.643H189.754Z"
        fill="white" />
    <path
        d="M208.921 136.742C208.814 136.742 208.711 136.705 208.629 136.639C208.547 136.573 208.491 136.481
208.469 136.379C207.616 132.306 203.76 129.117 200.558 128.155C200.44 128.12 200.341 128.041
200.282
127.935C200.224 127.829 200.211 127.705 200.246 127.589C200.281 127.473 200.362 127.376 200.47
127.319C200.579 127.262 200.706 127.249 200.824 127.283C204.279 128.306 208.457 131.774 209.378
136.192C209.391 136.25 209.391 136.31 209.38 136.369C209.369 136.428 209.346 136.484 209.313
136.534C209.28 136.584 209.236 136.627 209.186 136.661C209.136 136.694 209.079 136.718 209.019
136.73L208.921 136.742Z"
        fill="white" />
    <path
        d="M192.004 139.526C191.881 139.526 191.763 139.478 191.676 139.393C191.589 139.308 191.54 139.193
191.54 139.072C191.54 138.952 191.589 138.837 191.676 138.751C191.763 138.666 191.881 138.618
192.004 138.618C196.052 138.522 197.795 137.348 199.42 135.338C199.459 135.292 199.506 135.253
199.559 135.225C199.613 135.196 199.671 135.178 199.732 135.171C199.792 135.165 199.854 135.17
199.912 135.187C199.97 135.204 200.025 135.231 200.072 135.269C200.12 135.306 200.159 135.352
200.189 135.405C200.218 135.457 200.236 135.514 200.243 135.574C200.25 135.633 200.244 135.693
200.227 135.75C200.21 135.807 200.182 135.861 200.144 135.907C198.376 138.068 196.398 139.423
192.01
139.538L192.004 139.526Z"
        fill="white" />
    <path
        d="M190.112 144.186C189.99 144.186 189.872 144.138 189.785 144.053C189.698 143.968 189.649 143.852
189.649 143.732C189.649 143.612 189.698 143.496 189.785 143.411C189.872 143.326 189.99 143.278
190.112 143.278C195.187 143.157 197.369 141.656 199.433 139.096C199.471 139.05 199.518 139.01
199.571 138.981C199.624 138.952 199.682 138.933 199.743 138.926C199.804 138.919 199.865 138.924
199.924 138.94C199.982 138.956 200.037 138.984 200.085 139.021C200.133 139.058 200.173 139.104
200.203 139.156C200.232 139.208 200.251 139.265 200.259 139.324C200.266 139.384 200.261 139.444
200.244 139.501C200.228 139.559 200.2 139.612 200.162 139.659C197.987 142.358 195.545 144.059
190.137 144.186H190.112Z"
        fill="white" />
    <path
        d="M192.022 147.478C190.841 147.466 189.663 147.344 188.505 147.115C188.392 147.086 188.294 147.015
188.231 146.918C188.168 146.821 188.146 146.704 188.168 146.591C188.19 146.478 188.255 146.377
188.349 146.31C188.444 146.242 188.562 146.212 188.678 146.225C193.666 147.163 196.095 146.14
198.691 144.071C198.738 144.031 198.793 144.001 198.852 143.982C198.911 143.963 198.973 143.955
199.035 143.96C199.097 143.964 199.158 143.981 199.213 144.008C199.269 144.035 199.318 144.073
199.359 144.119C199.399 144.165 199.43 144.219 199.45 144.277C199.469 144.334 199.477 144.395
199.472 144.456C199.468 144.517 199.451 144.576 199.423 144.63C199.395 144.685 199.356 144.733
199.309 144.773C197.321 146.55 194.714 147.518 192.022 147.478V147.478Z"
        fill="white" />
    <path
        d="M98.4285 62.5057C98.3601 62.506 98.2925 62.4915 98.2305 62.4633C98.1686 62.435 98.1137 62.3937
98.07 62.3423C94.7491 58.6079 91.0828 55.1822 87.1178 52.1088C87.0211 52.0342 86.9586 51.925
86.9441
51.8052C86.9297 51.6855 86.9643 51.565 87.0406 51.4703C87.1168 51.3756 87.2283 51.3145 87.3506
51.3003C87.4729 51.2861 87.5959 51.32 87.6926 51.3947C91.709 54.506 95.4229 57.9743 98.7869
61.7553C98.8434 61.8217 98.8794 61.9025 98.8906 61.9883C98.9018 62.074 98.8877 62.1611 98.85
62.2393C98.8124 62.3175 98.7527 62.3836 98.678 62.4297C98.6033 62.4758 98.5167 62.5001 98.4285
62.4996V62.5057Z"
        fill="white" />
    <path
        d="M88.0635 59.6975C87.9757 59.6967 87.89 59.6715 87.8163 59.6249C84.482 57.6004 81.006 55.8087
77.4142 54.2631C77.3543 54.2427 77.2993 54.2106 77.2527 54.1686C77.206 54.1267 77.1686 54.0758
77.1427 54.0191C77.1169 53.9625 77.1033 53.9012 77.1026 53.8392C77.1019 53.7771 77.1142 53.7156
77.1388 53.6584C77.1633 53.6012 77.1996 53.5495 77.2453 53.5066C77.2911 53.4636 77.3453 53.4304
77.4047 53.4088C77.4641 53.3872 77.5275 53.3777 77.5907 53.381C77.654 53.3843 77.7159 53.4003
77.7727 53.4279C81.4014 54.9995 84.9125 56.8195 88.2798 58.8745C88.3636 58.9275 88.4277 59.0054
88.4626 59.0969C88.4975 59.1883 88.5013 59.2884 88.4736 59.3821C88.4458 59.4759 88.3879 59.5584
88.3085 59.6174C88.229 59.6764 88.1323 59.7087 88.0326 59.7096L88.0635 59.6975Z"
        fill="white" />
    <path
        d="M84.7383 62.3059C84.6787 62.3048 84.62 62.2924 84.5652 62.2696C81.5468 61.2141 78.4158 60.4975
75.2324 60.1333C75.1102 60.1172 74.9996 60.0544 74.9249 59.9585C74.8501 59.8626 74.8173 59.7415
74.8337 59.6219C74.8501 59.5023 74.9143 59.3941 75.0123 59.3209C75.1102 59.2476 75.2339 59.2155
75.356 59.2316C81.444 60.0486 84.7753 61.3739 84.9175 61.4284C85.0156 61.4693 85.0963 61.5421
85.146
61.6345C85.1957 61.7269 85.2113 61.8332 85.1903 61.9355C85.1692 62.0379 85.1127 62.13 85.0304
62.1964C84.9481 62.2627 84.8449 62.2993 84.7383 62.2998V62.3059Z"
        fill="white" />
    <path
        d="M83.6936 63.9942C83.6114 63.9942 83.5306 63.9727 83.4597 63.9319C83.3887 63.8912 83.3301 63.8328
83.2898 63.7625C83.2495 63.6923 83.2291 63.6129 83.2305 63.5323C83.232 63.4518 83.2553 63.3731
83.2981 63.3043C84.5342 61.3375 88.1252 57.9183 90.3131 57.4281C90.3732 57.4122 90.436 57.4083
90.4976 57.4166C90.5593 57.425 90.6186 57.4454 90.6721 57.4767C90.7255 57.508 90.7719 57.5495
90.8086 57.5987C90.8453 57.648 90.8715 57.7039 90.8856 57.7633C90.8997 57.8227 90.9015 57.8842
90.8908 57.9442C90.8801 58.0043 90.8571 58.0616 90.8233 58.1128C90.7895 58.164 90.7455 58.2079
90.694 58.2421C90.6424 58.2763 90.5844 58.2999 90.5233 58.3116C88.7494 58.7111 85.2821 61.8277
84.0954 63.7582C84.0559 63.8289 83.9978 63.8881 83.9272 63.9296C83.8566 63.971 83.776 63.9934
83.6936 63.9942Z"
        fill="white" />
    <path
        d="M189.285 177.234C189.224 177.232 189.164 177.218 189.108 177.193C189.053 177.168 189.003 177.133
188.962 177.089C188.921 177.045 188.889 176.993 188.868 176.937C188.847 176.881 188.837 176.822
188.84 176.762C188.938 174.178 188.166 170.166 186.534 164.834C186.225 163.818 185.916 162.765
185.533 161.694C182.459 152.833 178.887 144.146 174.834 135.671C173.598 133.117 172.362 130.515
171.021 127.937C170.99 127.883 170.97 127.824 170.964 127.763C170.957 127.702 170.963 127.64
170.981
127.581C171 127.522 171.03 127.468 171.071 127.421C171.111 127.374 171.161 127.336 171.217
127.308C171.273 127.281 171.335 127.265 171.397 127.261C171.46 127.257 171.523 127.266 171.582
127.287C171.641 127.308 171.695 127.341 171.741 127.383C171.787 127.425 171.824 127.475 171.849
127.531C173.178 130.116 174.463 132.73 175.681 135.29C179.758 143.801 183.344 152.529 186.423
161.433C186.757 162.45 187.109 163.533 187.43 164.598C189.087 170.045 189.903 174.136 189.773
176.817C189.763 176.935 189.707 177.045 189.616 177.123C189.524 177.201 189.406 177.241 189.285
177.234V177.234Z"
        fill="white" />
    <path
        d="M173.592 132.094C173.484 132.095 173.379 132.058 173.295 131.99C173.212 131.922 173.156 131.828
173.136 131.724C173.116 131.619 173.134 131.512 173.187 131.419C173.24 131.327 173.324 131.255
173.425 131.217C176.083 130.218 176.979 129.97 177.016 129.958C177.13 129.937 177.248 129.959
177.347 130.019C177.445 130.079 177.517 130.173 177.548 130.283C177.579 130.392 177.567 130.509
177.514 130.611C177.462 130.712 177.372 130.79 177.263 130.83C177.263 130.83 176.355 131.084
173.759
132.04C173.707 132.068 173.651 132.087 173.592 132.094Z"
        fill="#73B0F9" />
    <path
        d="M148.721 129.886C148.607 129.886 148.497 129.845 148.412 129.771C148.257 129.637 132.818 116.088
126.73 106.586C116.223 90.1741 102.082 70.4454 101.939 70.2457C101.9 70.191 101.874 70.1284 101.862
70.0625C101.85 69.9966 101.853 69.929 101.871 69.8644C102.255 68.2569 102.354 66.5967 102.162
64.9565C101.945 62.4071 102.076 59.8407 102.551 57.3252C102.581 57.214 102.653 57.1181 102.752
57.0568C102.852 56.9955 102.971 56.9733 103.086 56.9948C103.202 57.0163 103.304 57.0799 103.374
57.1727C103.443 57.2655 103.474 57.3805 103.46 57.4947C102.999 59.9385 102.872 62.4315 103.083
64.9081C103.27 66.5754 103.18 68.2614 102.817 69.9007C104.245 71.8978 117.515 90.4767 127.54
106.108C133.041 114.696 146.335 126.684 148.696 128.778L152.776 123.882C152.855 123.793 152.966
123.738 153.086 123.728C153.206 123.718 153.326 123.754 153.419 123.829C153.513 123.904 153.572
124.011 153.586 124.128C153.6 124.246 153.566 124.364 153.492 124.457L149.11 129.722C149.071
129.769
149.022 129.808 148.967 129.836C148.911 129.864 148.851 129.881 148.789 129.886H148.721Z"
        fill="white" />
    <path
        d="M153.968 115.428C153.845 115.428 153.727 115.38 153.64 115.295C153.553 115.21 153.504 115.095
153.504 114.974C153.504 114.854 153.553 114.738 153.64 114.653C153.727 114.568 153.845 114.52
153.968 114.52C157.293 114.52 157.775 114.411 158.542 114.157L159.16 113.915C167.324 110.661
175.859
108.383 184.581 107.131C184.703 107.114 184.827 107.146 184.925 107.218C185.024 107.291 185.089
107.399 185.106 107.518C185.123 107.638 185.091 107.759 185.017 107.856C184.943 107.952 184.833
108.016 184.711 108.033C176.063 109.273 167.601 111.531 159.506 114.756L158.832 115.017C157.911
115.325 157.287 115.428 153.968 115.428Z"
        fill="white" />
    <path
        d="M153.103 124.621C152.985 124.625 152.869 124.586 152.78 124.51C152.69 124.434 152.634 124.328
152.622 124.213C152.61 124.097 152.644 123.982 152.716 123.89C152.788 123.798 152.893 123.737
153.01
123.719L157.955 122.744C156.719 121.359 153.437 117.903 151.156 117.086C151.084 117.06 151.019
117.016 150.969 116.959C150.918 116.902 150.882 116.833 150.866 116.759C150.866 116.699 150.513
115.21 150.334 113.945C150.326 113.886 150.329 113.826 150.344 113.768C150.36 113.71 150.386
113.656
150.423 113.608C150.46 113.56 150.506 113.52 150.558 113.489C150.611 113.459 150.669 113.439 150.73
113.431C150.79 113.423 150.852 113.426 150.911 113.441C150.97 113.456 151.026 113.482 151.074
113.518C151.123 113.554 151.164 113.599 151.195 113.65C151.226 113.702 151.247 113.759 151.255
113.818C151.391 114.762 151.62 115.858 151.719 116.33C154.809 117.637 159.018 122.533 159.203
122.751C159.256 122.811 159.291 122.884 159.305 122.962C159.32 123.039 159.313 123.12 159.286
123.194C159.26 123.269 159.213 123.335 159.152 123.387C159.091 123.439 159.017 123.474 158.938
123.489L153.19 124.614L153.103 124.621Z"
        fill="white" />
    <path
        d="M153.103 124.621C153.052 124.629 153 124.629 152.948 124.621C148.453 123.169 143.881 121.957
139.252 120.99C139.154 120.97 139.065 120.92 138.998 120.847C138.931 120.774 138.89 120.682 138.881
120.584C138.881 120.53 138.356 115.259 134.697 108.62C134.644 108.514 134.636 108.393 134.672
108.282C134.709 108.17 134.788 108.077 134.894 108.021C134.999 107.965 135.123 107.952 135.238
107.984C135.353 108.015 135.452 108.089 135.513 108.19C137.636 111.907 139.075 115.961 139.765
120.166C144.821 121.189 150.402 122.829 152.658 123.549C152.658 122.297 152.658 119.362 151.91
117.31C151.879 117.199 151.892 117.082 151.946 116.98C152 116.878 152.092 116.8 152.202
116.762C152.313 116.724 152.434 116.728 152.541 116.773C152.649 116.819 152.734 116.902 152.782
117.007C153.801 119.834 153.573 124.021 153.566 124.197C153.56 124.313 153.509 124.422 153.422
124.502C153.336 124.582 153.222 124.627 153.103 124.627V124.621Z"
        fill="white" />
    <path
        d="M200.972 202.422C200.858 202.423 200.747 202.383 200.662 202.309C200.576 202.236 200.521 202.134
200.507 202.023C200.493 201.912 200.522 201.8 200.587 201.708C200.652 201.616 200.75 201.552
200.861
201.526C203.029 201.019 205.167 200.395 207.264 199.656C207.379 199.613 207.506 199.616 207.619
199.665C207.731 199.713 207.819 199.804 207.863 199.916C207.908 200.029 207.905 200.154 207.855
200.264C207.805 200.374 207.712 200.46 207.598 200.503C205.465 201.259 203.29 201.896 201.083
202.41L200.972 202.422Z"
        fill="white" />
    <path
        d="M97.9587 86.2161C97.8608 86.2153 97.7658 86.1842 97.6871 86.1273C97.6084 86.0703 97.5501 85.9905
97.5206 85.8991C97.4911 85.8078 97.4919 85.7096 97.5228 85.6187C97.5538 85.5278 97.6133 85.4488
97.6929 85.3931C101.129 82.9793 104.733 80.8034 108.478 78.8814C108.533 78.8477 108.594 78.8255
108.657 78.8161C108.721 78.8068 108.786 78.8106 108.848 78.8273C108.91 78.8439 108.968 78.8731
109.018 78.9129C109.068 78.9527 109.109 79.0022 109.139 79.0584C109.168 79.1146 109.185 79.1761
109.189 79.2391C109.192 79.3021 109.183 79.3652 109.16 79.4243C109.137 79.4833 109.103 79.5372
109.057 79.5823C109.012 79.6274 108.958 79.6628 108.898 79.6863C105.192 81.5886 101.625 83.7423
98.2245 86.1314C98.1471 86.1861 98.0541 86.2158 97.9587 86.2161V86.2161Z"
        fill="white" />
    <path
        d="M134.153 108.717C133.359 108.719 132.576 108.526 131.879 108.154C131.11 107.753 130.483 107.134
130.079 106.378C129.675 105.622 129.514 104.765 129.616 103.918C129.651 103.214 129.91 102.539
130.358 101.987C131.149 101.061 132.503 100.777 134.277 101.207C134.625 101.284 134.966 101.39
135.296 101.521C135.41 101.569 135.499 101.658 135.545 101.77C135.59 101.882 135.589 102.007
135.541
102.117C135.492 102.228 135.401 102.315 135.287 102.36C135.173 102.405 135.045 102.404 134.932
102.356C134.651 102.246 134.362 102.157 134.066 102.09C133.084 101.86 131.767 101.757 131.069
102.574C130.746 102.985 130.562 103.484 130.543 104.002C130.464 104.672 130.592 105.35 130.91
105.948C131.229 106.546 131.723 107.036 132.33 107.355C133.071 107.722 133.906 107.867 134.731
107.771C135.555 107.676 136.333 107.343 136.965 106.817C137.063 106.752 137.181 106.727 137.297
106.745C137.413 106.763 137.517 106.824 137.589 106.914C137.661 107.005 137.696 107.119 137.685
107.233C137.675 107.347 137.621 107.454 137.534 107.531C136.574 108.284 135.384 108.702 134.153
108.717V108.717Z"
        fill="white" />
    <path
        d="M149.777 82.773C145.241 85.5084 132.768 89.7083 132.768 89.7083C137.404 95.3787 134.159 101.648
134.159 101.648C133.151 101.412 131.575 101.261 130.698 102.284C121.841 94.4165 123.38 90.5313
124.783 88.7279C126.019 87.1665 127.756 85.702 128.973 82.186C131.316 75.4443 136.056 75.3899
135.951 77.7863C142.713 71.0447 147.181 73.2475 146.328 75.9708C153.17 72.3216 154.716 79.8016
149.777 82.773Z"
        fill="#73B0F9" />
    <path
        d="M130.704 102.737C130.59 102.736 130.48 102.693 130.395 102.616C123.739 96.6797 121.742 91.917
124.425 88.4493C124.691 88.1104 124.975 87.7776 125.278 87.4326C126.741 85.8794 127.855 84.0424
128.547 82.0405C130.29 77.0236 133.319 75.6438 134.913 75.9343C135.196 75.9767 135.464 76.0844
135.695 76.2486C135.926 76.4129 136.114 76.6288 136.242 76.8784C140.637 72.7572 144.073 72.3578
145.723 73.3139C146.068 73.5034 146.358 73.7755 146.565 74.1047C146.773 74.434 146.892 74.8095
146.91 75.196C149.914 73.8707 151.824 74.7542 152.627 76.1098C153.783 78.0585 153.017 81.3506
150.025 83.1541C146.02 85.5748 136.106 89.0424 133.529 89.926C137.713 95.6206 134.611 101.781
134.58
101.848C134.533 101.939 134.457 102.012 134.362 102.055C134.268 102.098 134.162 102.108 134.061
102.084C133.078 101.854 131.761 101.757 131.063 102.568C131.023 102.615 130.974 102.654 130.919
102.682C130.864 102.71 130.804 102.727 130.741 102.731L130.704 102.737ZM134.456 76.7755C133.146
76.7755 130.853 78.1856 129.425 82.3068C128.693 84.4162 127.52 86.3534 125.982 87.9954C125.692
88.3343 125.414 88.6551 125.16 88.9819C122.849 91.9533 124.709 96.2137 130.723 101.636C131.471
101.031 132.577 100.855 133.925 101.104C134.493 99.7903 136.304 94.6947 132.441 89.9683C132.394
89.9116 132.362 89.8446 132.348 89.7732C132.333 89.7017 132.336 89.6278 132.357 89.5578C132.377
89.4877 132.415 89.4236 132.466 89.3707C132.517 89.3179 132.581 89.2779 132.651 89.2542C132.775
89.2118 145.13 85.018 149.568 82.3613C152.04 80.8604 152.769 78.0948 151.855 76.5456C151.008
75.1173
149.042 75.0447 146.595 76.358C146.514 76.4021 146.421 76.4214 146.329 76.4134C146.237 76.4054
146.149 76.3704 146.077 76.3131C146.005 76.2558 145.952 76.1786 145.926 76.0917C145.899 76.0048
145.9 75.912 145.927 75.8254C146.052 75.5094 146.058 75.1604 145.945 74.8403C145.832 74.5201
145.607
74.2496 145.309 74.0764C143.758 73.1747 140.365 74.0765 136.354 78.0827C136.288 78.1473 136.203
78.191 136.112 78.2079C136.02 78.2249 135.925 78.2144 135.84 78.1777C135.754 78.1411 135.682
78.0801
135.633 78.0027C135.583 77.9253 135.559 77.8351 135.562 77.7438C135.576 77.6332 135.567 77.5211
135.536 77.4138C135.506 77.3066 135.453 77.2065 135.383 77.1192C135.312 77.0319 135.224 76.9593
135.124 76.9055C135.025 76.8517 134.915 76.8178 134.802 76.8058C134.688 76.7831 134.572 76.773
134.456 76.7755Z"
        fill="white" />
    <path
        d="M137.886 94.7615C137.839 94.7686 137.791 94.7686 137.744 94.7615C137.628 94.7241 137.532 94.6433
137.476 94.5368C137.42 94.4303 137.41 94.3066 137.447 94.1926C137.603 93.575 137.899 92.9996
138.313
92.5093C138.727 92.019 139.249 91.6263 139.839 91.3604C140.711 90.9923 141.693 90.9578 142.589
91.2636C142.647 91.2883 142.699 91.3243 142.742 91.3692C142.784 91.4141 142.818 91.4671 142.839
91.525C142.86 91.5828 142.869 91.6443 142.866 91.7057C142.862 91.7671 142.846 91.8271 142.818
91.8821C142.789 91.9371 142.75 91.9859 142.702 92.0256C142.654 92.0654 142.599 92.0951 142.539
92.1131C142.479 92.1311 142.415 92.137 142.353 92.1303C142.291 92.1237 142.23 92.1047 142.175
92.0745C141.503 91.8924 140.788 91.9415 140.148 92.2137C139.692 92.43 139.289 92.7414 138.969
93.1261C138.649 93.5108 138.418 93.9596 138.294 94.4408C138.267 94.5282 138.213 94.6056 138.141
94.6629C138.068 94.7201 137.979 94.7545 137.886 94.7615V94.7615Z"
        fill="white" />
    <path
        d="M151.331 96.7205C151.861 96.5151 152.053 95.7591 151.759 95.0319C151.465 94.3046 150.797 93.8816
150.267 94.087C149.737 94.2924 149.545 95.0484 149.839 95.7756C150.133 96.5028 150.801 96.9259
151.331 96.7205Z"
        fill="white" />
    <path
        d="M144.65 99.1663C145.301 98.9142 145.536 97.9868 145.176 97.0948C144.815 96.2029 143.995 95.6842
143.345 95.9363C142.694 96.1884 142.459 97.1159 142.819 98.0078C143.18 98.8997 143.999 99.4184
144.65 99.1663Z"
        fill="white" />
    <path
        d="M145.587 90.7973C145.503 90.7976 145.421 90.7756 145.349 90.7339C145.277 90.6921 145.218 90.632
145.178 90.5601C145.138 90.4881 145.119 90.4069 145.122 90.3251C145.126 90.2433 145.152 90.1639
145.197 90.0953C145.441 89.7321 145.765 89.4268 146.144 89.2017C146.524 88.9766 146.95 88.8374
147.392 88.7942C147.803 88.7406 148.222 88.7763 148.619 88.8986C149.015 89.021 149.379 89.227
149.685 89.5023C149.744 89.5368 149.795 89.5841 149.834 89.6405C149.873 89.697 149.898 89.7612
149.908 89.8285C149.918 89.8957 149.912 89.9643 149.891 90.0291C149.87 90.0939 149.835 90.1533
149.787 90.2029C149.74 90.2526 149.682 90.2912 149.617 90.3159C149.553 90.3406 149.483 90.3507
149.414 90.3456C149.345 90.3405 149.278 90.3203 149.218 90.2864C149.157 90.2525 149.106 90.2058
149.067 90.1498C148.858 89.9684 148.612 89.8337 148.345 89.7553C148.078 89.6769 147.797 89.6566
147.521 89.6959C147.216 89.724 146.921 89.8185 146.658 89.9724C146.395 90.1263 146.171 90.3358
146.001 90.5855C145.957 90.6536 145.896 90.709 145.823 90.7463C145.75 90.7835 145.669 90.8011
145.587 90.7973V90.7973Z"
        fill="white" />
    <path
        d="M147.824 101.927C147.708 101.926 147.596 101.883 147.511 101.806C147.426 101.729 147.373 101.623
147.364 101.509C147.354 101.396 147.389 101.283 147.46 101.193C147.532 101.104 147.636 101.044
147.75 101.025C150.074 100.662 150.34 100.256 150.346 100.25C150.346 99.7662 149.728 97.8297
146.854
95.409C146.808 95.3692 146.771 95.3211 146.744 95.2672C146.717 95.2133 146.701 95.1547 146.698
95.0949C146.694 95.035 146.702 94.975 146.722 94.9184C146.742 94.8617 146.773 94.8094 146.814
94.7645C146.854 94.7196 146.904 94.6829 146.959 94.6567C147.014 94.6304 147.074 94.615 147.135
94.6113C147.196 94.6077 147.257 94.6158 147.315 94.6354C147.373 94.6549 147.426 94.6854 147.472
94.7251C150.482 97.285 151.279 99.4334 151.273 100.299C151.273 101.067 150.266 101.552 147.911
101.921L147.824 101.927Z"
        fill="white" />
    <path
        d="M148.733 110.72H148.659C146.718 110.417 145.352 109.679 144.61 108.517C144.317 108.023 144.127
107.477 144.051 106.911C143.974 106.345 144.013 105.77 144.165 105.219C144.187 105.149 144.225
105.086 144.276 105.034C144.328 104.982 144.391 104.942 144.462 104.919C144.532 104.896 144.607
104.89 144.68 104.901C144.753 104.912 144.822 104.94 144.882 104.983C145.794 105.596 146.866 105.94
147.972 105.974C149.077 106.009 150.169 105.732 151.119 105.176C151.226 105.121 151.351 105.108
151.467 105.142C151.583 105.176 151.682 105.253 151.741 105.356C151.8 105.46 151.815 105.582
151.783
105.697C151.751 105.811 151.674 105.909 151.57 105.969C150.571 106.54 149.44 106.851 148.284
106.875C147.128 106.898 145.985 106.632 144.963 106.102C144.905 106.781 145.067 107.461 145.426
108.045C146.044 108.971 147.169 109.564 148.832 109.824C148.947 109.843 149.05 109.903 149.122
109.992C149.193 110.082 149.228 110.195 149.218 110.308C149.209 110.422 149.157 110.528 149.071
110.605C148.986 110.682 148.874 110.725 148.758 110.726L148.733 110.72Z"
        fill="white" />
    <path
        d="M150.346 108.474C150.228 108.475 150.115 108.431 150.029 108.352C149.943 108.274 149.89 108.166
149.882 108.051L149.734 106.09C149.73 106.03 149.737 105.971 149.756 105.914C149.776 105.857
149.806
105.805 149.846 105.759C149.886 105.714 149.934 105.677 149.989 105.65C150.043 105.623 150.103
105.607 150.164 105.603C150.225 105.599 150.286 105.606 150.344 105.625C150.402 105.643 150.455
105.673 150.501 105.712C150.548 105.751 150.586 105.799 150.613 105.852C150.64 105.906 150.657
105.964 150.661 106.024L150.81 107.984C150.818 108.104 150.778 108.222 150.698 108.312C150.618
108.403 150.505 108.459 150.383 108.468L150.346 108.474Z"
        fill="white" />
    <path
        d="M147.67 114.829C146.268 114.801 144.872 114.635 143.504 114.333C143.445 114.321 143.388 114.297
143.337 114.264C143.287 114.231 143.244 114.188 143.21 114.138C143.177 114.088 143.153 114.033
143.142 113.974C143.13 113.916 143.13 113.855 143.143 113.797C143.155 113.739 143.179 113.683
143.213 113.634C143.247 113.584 143.29 113.542 143.341 113.509C143.392 113.476 143.449 113.453
143.509 113.442C143.569 113.431 143.63 113.431 143.69 113.443C148.016 114.308 152.497 114.653
156.094 108.644C157.114 106.943 155.371 91.6446 146.279 84.7698C146.231 84.7333 146.191 84.6877
146.16 84.6359C146.13 84.584 146.11 84.5268 146.103 84.4675C146.095 84.4082 146.099 84.348 146.115
84.2903C146.131 84.2327 146.159 84.1786 146.196 84.1313C146.233 84.0841 146.28 84.0444 146.333
84.0147C146.386 83.9851 146.444 83.9659 146.505 83.9583C146.565 83.9507 146.627 83.9548 146.686
83.9705C146.745 83.9862 146.8 84.0131 146.848 84.0497C156.119 91.0697 158.264 106.816 156.898
109.098C154.178 113.643 150.903 114.829 147.67 114.829Z"
        fill="white" />
    <path
        d="M175.013 272.58C171.249 272.58 166.268 272.465 160.285 272.332C155.34 272.223 149.778 272.095
143.758 272.011C143.697 272.01 143.637 271.997 143.581 271.974C143.525 271.95 143.474 271.916
143.432 271.874C143.389 271.831 143.356 271.78 143.333 271.725C143.311 271.67 143.3 271.61 143.3
271.551C143.305 271.431 143.356 271.318 143.444 271.235C143.531 271.152 143.648 271.104 143.77
271.103C149.79 271.188 155.377 271.315 160.31 271.43C171.231 271.678 179.284 271.859 181.855
271.363C181.534 269.166 180.1 258.691 180.619 251.659C180.63 251.54 180.688 251.43 180.78
251.352C180.873 251.274 180.992 251.234 181.114 251.241C181.236 251.251 181.349 251.307 181.429
251.397C181.509 251.488 181.549 251.606 181.54 251.725C180.922 259.472 182.776 271.515 182.776
271.636C182.793 271.743 182.77 271.853 182.711 271.945C182.652 272.037 182.561 272.106 182.455
272.138C181.398 272.465 178.833 272.58 175.013 272.58Z"
        fill="#73B0F9" />
    <path
        d="M174.649 101.927H174.593C174.471 101.913 174.359 101.852 174.283 101.758C174.206 101.664 174.171
101.544 174.185 101.424C175.341 91.899 177.096 60.5147 177.189 54.6687C177.275 49.3734 178.135
34.4377 178.308 31.4421C172.875 31.8597 164.512 30.7461 154.889 29.4571C143.072 27.8837 129.684
26.0924 117.187 26.4313C108.534 26.6673 97.0565 27.6416 85.956 28.628C75.6528 29.5237 65.9182
30.3649 58.6374 30.607C43.3526 31.1153 29.9405 31.4905 8.33904 31.3695C8.2161 31.3695 8.09819
31.3217 8.01126 31.2365C7.92432 31.1514 7.87549 31.036 7.87549 30.9156C7.87549 30.7952 7.92432
30.6798 8.01126 30.5947C8.09819 30.5095 8.2161 30.4617 8.33904 30.4617V30.4617C29.922 30.5888
43.3217 30.2075 58.6003 29.7053C65.8564 29.4632 75.5786 28.622 85.8694 27.7263C96.9947 26.7641
108.485 25.7656 117.156 25.5296C129.752 25.1846 143.183 26.9759 155.031 28.5554C164.92 29.8747
173.474 31.0185 178.777 30.4859C178.844 30.4788 178.912 30.486 178.976 30.5072C179.04 30.5283
179.098 30.5628 179.147 30.6084C179.196 30.6539 179.234 30.7093 179.259 30.7707C179.284 30.8321
179.294 30.8981 179.29 30.964C179.29 31.1395 178.233 48.8227 178.141 54.6747C178.048 60.5268
176.287
91.9716 175.131 101.521C175.118 101.636 175.061 101.742 174.972 101.818C174.882 101.893 174.767
101.932 174.649 101.927Z"
        fill="#73B0F9" />
    <path
        d="M75.9306 19.9619C86.7159 19.7198 103.354 19.6351 110.178 19.6109C111.02 19.6076 111.831 19.9188
112.447 20.481C113.062 21.0433 113.436 21.8142 113.491 22.6367C113.806 26.7761 114.356 34.2258
114.585 38.6617C114.608 39.0999 114.54 39.5382 114.385 39.95C114.231 40.3618 113.992 40.7384
113.684
41.0571C113.376 41.3757 113.005 41.6297 112.593 41.8037C112.182 41.9776 111.738 42.0678 111.29
42.0689C103.737 42.0689 85.4798 42.2202 76.2211 42.8253C75.7654 42.8555 75.3082 42.7928 74.8784
42.6414C74.4487 42.4899 74.0556 42.2529 73.724 41.9453C73.3925 41.6377 73.1296 41.2662 72.9519
40.8542C72.7743 40.4421 72.6858 39.9985 72.6919 39.5513C72.7414 35.3151 72.8032 28.162 72.6919
23.3024C72.6788 22.8744 72.7523 22.4481 72.9083 22.0481C73.0642 21.648 73.2995 21.2822 73.6006
20.9716C73.9017 20.661 74.2626 20.4119 74.6625 20.2386C75.0624 20.0653 75.4934 19.9713 75.9306
19.9619V19.9619Z"
        fill="#73B0F9" />
    <path
        d="M100.567 28.5492C100.496 28.5485 100.427 28.532 100.363 28.5008C99.2569 27.9622 97.1925 24.5611
96.185 20.9906C95.4928 18.5699 95.0354 15.0659 96.7598 12.4213C98.8736 9.17758 99.4299 5.54654
98.1381 3.34371C97.0874 1.5766 94.85 0.729354 91.667 0.92301C88.2552 1.09851 86.8831 2.83536 86.333
4.25752C85.9106 5.49908 85.8386 6.82936 86.1248 8.10768C86.4109 9.386 87.0445 10.5649 87.9586
11.5196C88.0028 11.5617 88.0381 11.612 88.0625 11.6675C88.0869 11.7229 88.0999 11.7826 88.1008
11.843C88.1017 11.9034 88.0904 11.9634 88.0676 12.0195C88.0447 12.0757 88.0109 12.1269 87.9678
12.1702C87.9248 12.2135 87.8735 12.2481 87.8168 12.272C87.7602 12.2959 87.6993 12.3086 87.6376
12.3094C87.5759 12.3103 87.5146 12.2992 87.4573 12.2769C87.3999 12.2545 87.3477 12.2214 87.3034
12.1792C86.2561 11.1028 85.5297 9.76618 85.2028 8.31431C84.876 6.86244 84.9612 5.35067 85.4492
3.94283C86.364 1.57055 88.5396 0.184696 91.6299 0.0212993C96.1171 -0.208667 98.0887 1.46767 98.9478
2.92008C100.431 5.4134 99.8873 9.33493 97.551 12.9115C96.0058 15.2777 96.4446 18.4791 97.0874
20.7788C98.132 24.4824 100.178 27.4357 100.796 27.7201C100.889 27.7661 100.964 27.8416 101.008
27.9344C101.052 28.0272 101.063 28.1318 101.038 28.2313C101.014 28.3308 100.956 28.4193 100.874
28.4825C100.792 28.5457 100.69 28.5799 100.586 28.5795L100.567 28.5492Z"
        fill="#73B0F9" />
    <path
        d="M86.6295 28.5492C86.5498 28.5489 86.4715 28.5284 86.4022 28.4898C86.333 28.4512 86.275 28.3958
86.234 28.3288C86.193 28.2619 86.1703 28.1858 86.1681 28.1078C86.166 28.0298 86.1843 27.9525
86.2215
27.8835C88.1376 24.2888 89.3551 15.659 88.255 13.4562C88.2282 13.4025 88.2125 13.3442 88.2087
13.2846C88.2049 13.225 88.2132 13.1653 88.233 13.1088C88.2528 13.0523 88.2837 13.0002 88.3241
12.9555C88.3644 12.9107 88.4134 12.8742 88.4682 12.848C88.523 12.8217 88.5825 12.8063 88.6434
12.8026C88.7043 12.7989 88.7653 12.807 88.823 12.8264C88.8806 12.8458 88.9339 12.8761 88.9796
12.9156C89.0253 12.9552 89.0626 13.0031 89.0894 13.0567C90.3255 15.4774 89.0894 24.4582 87.0436
28.3011C87.0047 28.3759 86.9455 28.4387 86.8724 28.4825C86.7993 28.5263 86.7152 28.5494 86.6295
28.5492V28.5492Z"
        fill="#73B0F9" />
    <path
        d="M100.567 28.5491C100.496 28.5485 100.427 28.5319 100.363 28.5007C99.3249 27.9924 97.3161 24.7486
96.284 21.3294C96.2686 21.271 96.265 21.2102 96.2736 21.1504C96.2822 21.0907 96.3027 21.0332 96.334
20.9812C96.3653 20.9292 96.4067 20.8838 96.4559 20.8475C96.5051 20.8112 96.5612 20.7847 96.6208
20.7696C96.6805 20.7545 96.7426 20.7511 96.8036 20.7595C96.8646 20.7679 96.9233 20.788 96.9764
20.8186C97.0295 20.8492 97.0759 20.8898 97.113 20.938C97.1501 20.9862 97.1771 21.041 97.1925
21.0994C98.2371 24.5731 100.147 27.3993 100.796 27.7201C100.889 27.766 100.964 27.8415 101.008
27.9343C101.052 28.0271 101.063 28.1317 101.038 28.2312C101.014 28.3307 100.956 28.4192 100.874
28.4824C100.792 28.5456 100.69 28.5798 100.586 28.5794L100.567 28.5491Z"
        fill="white" />
    <path
        d="M86.6295 28.5491C86.5498 28.5487 86.4715 28.5283 86.4022 28.4897C86.333 28.4511 86.275 28.3956
86.234 28.3287C86.193 28.2618 86.1703 28.1857 86.1681 28.1077C86.166 28.0297 86.1843 27.9524
86.2215
27.8834C87.1821 25.8204 87.8376 23.6339 88.1685 21.3899C88.1889 21.2711 88.2568 21.1652 88.3571
21.0954C88.4573 21.0256 88.5818 20.9976 88.7031 21.0177C88.8244 21.0378 88.9326 21.1042 89.0039
21.2024C89.0751 21.3005 89.1037 21.4224 89.0832 21.5412C88.7353 23.878 88.0485 26.1542 87.0436
28.301C87.0047 28.3758 86.9455 28.4386 86.8724 28.4824C86.7993 28.5262 86.7152 28.5493 86.6295
28.5491V28.5491Z"
        fill="white" />
    <path
        d="M182.177 108.341C182.054 108.341 181.936 108.293 181.849 108.208C181.762 108.123 181.713 108.008
181.713 107.887C181.769 89.5446 182.245 71.7949 182.474 68.6298C182.56 67.4497 182.634 64.8838
182.721 61.6279C182.906 55.0921 183.153 46.1415 183.747 39.0428C183.758 38.9229 183.816 38.812
183.91 38.734C184.004 38.6559 184.125 38.6169 184.247 38.6253C184.308 38.6299 184.368 38.6462
184.422 38.6733C184.477 38.7005 184.525 38.7379 184.565 38.7835C184.604 38.8291 184.635 38.8818
184.653 38.9388C184.672 38.9958 184.679 39.0558 184.674 39.1155C184.056 46.1899 183.833 55.1284
183.654 61.6521C183.561 64.9201 183.487 67.4981 183.401 68.6964C183.172 71.8493 182.696 89.5688
182.64 107.893C182.639 108.013 182.589 108.127 182.503 108.211C182.416 108.294 182.299 108.341
182.177 108.341V108.341Z"
        fill="#73B0F9" />
    <path
        d="M109.177 272.144C91.0116 271.993 72.927 271.079 56.9746 270.268C40.4104 269.427 26.1083 268.706
16.8682 269.118C16.8073 269.123 16.7459 269.116 16.688 269.096C16.6301 269.077 16.5768 269.046
16.5316 269.006C16.4863 268.966 16.4501 268.917 16.425 268.862C16.4 268.807 16.3868 268.748 16.3861
268.688C16.3811 268.569 16.4243 268.452 16.5065 268.364C16.5887 268.276 16.7031 268.223 16.825
268.216C26.096 267.805 40.4352 268.525 56.9994 269.366C72.9455 270.171 90.9931 271.091 109.164
271.242C109.287 271.242 109.405 271.29 109.492 271.375C109.579 271.46 109.628 271.576 109.628
271.696C109.628 271.816 109.579 271.932 109.492 272.017C109.405 272.102 109.287 272.15 109.164
272.15L109.177 272.144Z"
        fill="#73B0F9" />
    <path
        d="M172.739 267.248C172.658 267.253 172.577 267.241 172.502 267.213C172.426 267.185 172.357 267.141
172.3 267.085C171.064 266.988 168.221 266.824 161.793 266.528C161.671 266.522 161.557 266.468
161.475 266.38C161.393 266.292 161.349 266.175 161.354 266.056C161.364 265.938 161.419 265.827
161.509 265.747C161.598 265.668 161.715 265.624 161.836 265.626C167.887 265.904 170.885 266.044
172.375 266.189C172.548 264.979 172.665 260.869 172.455 253.958C172.453 253.899 172.464 253.839
172.485 253.784C172.507 253.728 172.54 253.677 172.582 253.634C172.624 253.591 172.674 253.556
172.73 253.532C172.785 253.507 172.845 253.494 172.906 253.492C172.968 253.488 173.029 253.497
173.087 253.517C173.145 253.537 173.198 253.569 173.243 253.611C173.288 253.652 173.323 253.703
173.347 253.758C173.371 253.814 173.383 253.874 173.382 253.934C173.499 257.85 173.617 264.071
173.265 266.31C173.839 266.425 173.833 266.558 173.833 266.776C173.833 267.23 173.419 267.248
172.739 267.248Z"
        fill="#73B0F9" />
    <path
        d="M67.3641 265.094C47.3696 265.094 31.5904 264.295 9.79732 261.414C9.73685 261.406 9.67857 261.387
9.62581 261.357C9.57305 261.327 9.52684 261.287 9.48982 261.239C9.41506 261.143 9.38227 261.022
9.39866 260.903C9.41506 260.783 9.47928 260.675 9.57723 260.602C9.67517 260.528 9.79881 260.496
9.92093 260.512C40.9788 264.615 59.8175 264.488 96.1414 263.841C100.35 263.768 102.977 263.671
105.079 263.593C109.053 263.447 111.259 263.369 118.886 263.629C118.947 263.631 119.007 263.645
119.062 263.67C119.118 263.695 119.167 263.731 119.209 263.775C119.25 263.819 119.282 263.87
119.303
263.926C119.324 263.982 119.334 264.041 119.331 264.101C119.323 264.22 119.269 264.332 119.179
264.413C119.089 264.494 118.971 264.539 118.849 264.537C111.235 264.283 109.059 264.361 105.11
264.5C102.996 264.579 100.369 264.67 96.1537 264.749C85.251 264.948 75.9182 265.094 67.3641
265.094Z"
        fill="#73B0F9" />
    <path
        d="M8.95715 257.692C8.8471 257.692 8.74065 257.654 8.65686 257.584C8.57306 257.514 8.51738 257.417
8.49978 257.311C0.823374 212.377 0.328923 198.694 0.0137086 174.402C-0.208796 157.3 2.3191 128.905
4.5565 103.857C5.56395 92.5827 6.50959 81.9316 7.02877 74.0946C7.90025 60.9321 7.02877 54.3418
6.2191 48.5321C5.54541 43.5878 4.98297 39.3213 5.73083 32.2468C5.73479 32.1857 5.75135 32.126
5.77952 32.0712C5.80768 32.0165 5.84687 31.968 5.89473 31.9285C5.94258 31.889 5.9981 31.8594
6.05795
31.8415C6.11779 31.8236 6.18072 31.8177 6.24295 31.8242C6.30517 31.8308 6.36539 31.8496 6.41999
31.8795C6.47459 31.9095 6.52244 31.95 6.56064 31.9985C6.59884 32.047 6.6266 32.1026 6.64226
32.162C6.65792 32.2213 6.66114 32.2831 6.65175 32.3437C5.90389 39.3092 6.4787 43.5273 7.14003
48.4171C7.93734 54.2752 8.83971 60.9079 7.95587 74.1612C7.4367 82.0285 6.48487 92.6614 5.4836
103.942C3.25238 128.972 0.724483 157.342 0.946987 174.396C1.2622 198.67 1.75666 212.322 9.4207
257.196C9.44031 257.315 9.41097 257.436 9.33911 257.534C9.26726 257.632 9.15877 257.697 9.03749
257.717L8.95715 257.692Z"
        fill="#73B0F9" />
    <path
        d="M24.0132 72.382C24.0132 75.9465 26.9614 77.6228 30.6018 77.6228C34.2422 77.6228 37.1904 75.9465
37.1904 72.382C37.1904 68.8175 34.2422 66.536 30.6018 66.536C26.9614 66.536 24.0132 68.8175 24.0132
72.382Z"
        fill="#279C9C" />
    <path
        d="M30.6021 73.2836C30.5291 73.2839 30.4571 73.2673 30.392 73.2352C30.2931 73.1868 27.9568 71.9583
24.7984 64.9201C24.7599 64.8121 24.7644 64.6939 24.811 64.589C24.8577 64.4841 24.943 64.4004
25.0501
64.3545C25.1571 64.3086 25.2778 64.304 25.3882 64.3415C25.4985 64.3791 25.5903 64.456 25.6452
64.557C27.9753 69.7494 29.811 71.6254 30.5094 72.2064C31.795 70.5845 37.3699 63.7702 43.2849
59.4069C43.3832 59.3347 43.5068 59.3037 43.6285 59.3207C43.7502 59.3377 43.8601 59.4014 43.9338
59.4977C44.0076 59.594 44.0393 59.7151 44.0219 59.8342C44.0045 59.9534 43.9395 60.0609 43.8411
60.1332C37.2278 65.0109 31.0286 73.0234 30.9668 73.1081C30.9236 73.1625 30.8683 73.2066 30.8051
73.237C30.7419 73.2674 30.6725 73.2834 30.6021 73.2836V73.2836Z"
        fill="white" />
    <path
        d="M23.395 104.753C23.395 108.317 26.9613 111.204 30.6017 111.204C34.2421 111.204 36.5722 108.317
36.5722 104.753C36.5722 101.188 34.2421 98.3015 30.6017 98.3015C26.9613 98.3015 23.395 101.188
23.395 104.753Z"
        fill="#279C9C" />
    <path
        d="M30.6021 105.648C30.5291 105.649 30.4571 105.632 30.392 105.6C30.2931 105.551 27.9568 104.323
24.7984 97.2848C24.7599 97.1768 24.7644 97.0586 24.811 96.9537C24.8577 96.8489 24.943 96.7651
25.0501 96.7192C25.1571 96.6733 25.2778 96.6687 25.3882 96.7063C25.4985 96.7438 25.5903 96.8207
25.6452 96.9217C27.9753 102.114 29.811 103.99 30.5094 104.571C31.795 102.949 37.3699 96.135 43.2849
91.7717C43.3336 91.7359 43.389 91.7099 43.4479 91.6951C43.5069 91.6803 43.5683 91.677 43.6285
91.6855C43.6888 91.6939 43.7468 91.7139 43.7992 91.7442C43.8515 91.7746 43.8973 91.8148 43.9338
91.8625C43.9703 91.9101 43.9969 91.9644 44.012 92.0221C44.0271 92.0799 44.0305 92.14 44.0219
92.199C44.0133 92.258 43.9929 92.3147 43.9619 92.366C43.9308 92.4173 43.8898 92.4621 43.8411
92.4979C37.2401 97.3514 31.0595 105.388 30.9729 105.467C30.9298 105.523 30.8738 105.569 30.8094
105.6C30.745 105.632 30.6741 105.648 30.6021 105.648V105.648Z"
        fill="white" />
    <path
        d="M24.0132 136.512C24.0132 138.223 24.7073 139.864 25.9429 141.074C27.1785 142.284 28.8544 142.963
30.6018 142.963C34.2422 142.963 37.1904 140.682 37.1904 137.117C37.1945 136.268 37.027 135.426
36.6978 134.639C36.3685 133.853 35.8838 133.138 35.2716 132.536C34.6594 131.934 33.9317 131.456
33.1303 131.13C32.3289 130.804 31.4696 130.636 30.6018 130.636C26.9614 130.636 24.0132 132.948
24.0132 136.512Z"
        fill="#279C9C" />
    <path
        d="M30.6021 138.019C30.5291 138.019 30.4571 138.003 30.392 137.971C30.2931 137.922 27.9568 136.694
24.7984 129.656C24.7599 129.548 24.7644 129.429 24.811 129.325C24.8577 129.22 24.943 129.136
25.0501
129.09C25.1571 129.044 25.2778 129.04 25.3882 129.077C25.4985 129.115 25.5903 129.192 25.6452
129.293C27.9753 134.485 29.811 136.361 30.5094 136.942C31.795 135.32 37.3699 128.506 43.2849
124.143C43.3336 124.107 43.389 124.081 43.4479 124.066C43.5069 124.051 43.5683 124.048 43.6285
124.056C43.6888 124.065 43.7468 124.085 43.7992 124.115C43.8515 124.145 43.8973 124.186 43.9338
124.233C43.9703 124.281 43.9969 124.335 44.012 124.393C44.0271 124.451 44.0305 124.511 44.0219
124.57C44.0133 124.629 43.9929 124.686 43.9619 124.737C43.9308 124.788 43.8898 124.833 43.8411
124.869C37.2401 129.734 31.0595 137.753 30.9729 137.838C30.9298 137.894 30.8738 137.94 30.8094
137.971C30.745 138.003 30.6741 138.019 30.6021 138.019V138.019Z"
        fill="white" />
    <path
        d="M24.6253 164.653C23.1234 167.897 25.1568 171.976 28.4696 173.446C30.0621 174.152 31.8759 174.21
33.512 173.607C35.1481 173.004 36.4724 171.789 37.1937 170.23C37.9149 168.67 37.974 166.894 37.358
165.292C36.7419 163.69 35.5011 162.394 33.9086 161.688C30.5958 160.217 26.1148 161.409 24.6253
164.653Z"
        fill="#279C9C" />
    <path
        d="M30.6021 168.338C30.5291 168.339 30.4571 168.322 30.392 168.29C30.2931 168.241 27.9568 167.013
24.7984 159.975C24.7599 159.867 24.7644 159.749 24.811 159.644C24.8577 159.539 24.943 159.455
25.0501 159.409C25.1571 159.363 25.2778 159.359 25.3882 159.396C25.4985 159.434 25.5903 159.511
25.6452 159.612C27.9753 164.804 29.811 166.68 30.5094 167.261C31.795 165.639 37.3699 158.825
43.2849
154.462C43.3832 154.389 43.5068 154.358 43.6285 154.375C43.7502 154.392 43.8601 154.456 43.9338
154.552C44.0076 154.649 44.0393 154.77 44.0219 154.889C44.0045 155.008 43.9395 155.116 43.8411
155.188C37.2401 160.059 31.0595 168.078 30.9729 168.157C30.9298 168.213 30.8738 168.259 30.8094
168.29C30.745 168.322 30.6741 168.338 30.6021 168.338V168.338Z"
        fill="white" />
    <path
        d="M23.1663 197.605C24.5385 200.903 27.8142 202.718 31.2012 201.375C34.5882 200.031 35.6204 196.491
34.2483 193.193C32.8762 189.895 29.6004 188.079 26.2134 189.423C22.8264 190.766 21.7881 194.306
23.1663 197.605Z"
        fill="#279C9C" />
    <path
        d="M28.6983 196.297C28.6254 196.298 28.5533 196.281 28.4882 196.249C28.3893 196.201 26.053 194.972
22.8947 187.934C22.8647 187.879 22.8467 187.818 22.8417 187.756C22.8368 187.693 22.8451 187.631
22.866 187.572C22.887 187.513 22.9202 187.458 22.9635 187.412C23.0069 187.367 23.0594 187.33
23.1179
187.305C23.1764 187.28 23.2396 187.267 23.3034 187.267C23.3673 187.267 23.4305 187.28 23.489
187.304C23.5475 187.329 23.6002 187.366 23.6436 187.412C23.6871 187.458 23.7204 187.512 23.7415
187.571C26.0716 192.763 27.9072 194.639 28.6056 195.22C29.8912 193.598 35.4662 186.784 41.3811
182.421C41.4298 182.385 41.4852 182.359 41.5442 182.344C41.6032 182.329 41.6645 182.326 41.7248
182.335C41.7851 182.343 41.843 182.363 41.8954 182.393C41.9478 182.424 41.9935 182.464 42.0301
182.512C42.0666 182.559 42.0932 182.613 42.1083 182.671C42.1234 182.729 42.1267 182.789 42.1181
182.848C42.1095 182.907 42.0891 182.964 42.0581 183.015C42.0271 183.066 41.9861 183.111 41.9374
183.147C35.3302 188.019 29.1248 196.037 29.063 196.122C29.0198 196.176 28.9646 196.22 28.9014
196.251C28.8382 196.281 28.7688 196.297 28.6983 196.297V196.297Z"
        fill="white" />
    <path
        d="M23.7041 223.355C23.7041 226.919 26.6523 229.201 30.2927 229.201C33.9331 229.201 36.8813 226.919
36.8813 223.355C36.8813 219.79 34.5512 216.904 30.9108 216.904C27.2703 216.904 23.7041 219.79
23.7041 223.355Z"
        fill="#279C9C" />
    <path
        d="M30.2989 224.25C30.226 224.251 30.1539 224.234 30.0888 224.202C29.9899 224.153 27.6536 222.925
24.4953 215.887C24.4653 215.832 24.4472 215.771 24.4423 215.709C24.4374 215.646 24.4456 215.584
24.4666 215.525C24.4876 215.465 24.5208 215.411 24.5641 215.365C24.6075 215.319 24.66 215.283
24.7185 215.258C24.777 215.233 24.8402 215.22 24.904 215.22C24.9679 215.22 25.031 215.232 25.0896
215.257C25.1481 215.282 25.2008 215.319 25.2442 215.365C25.2877 215.411 25.321 215.465 25.342
215.524C27.6722 220.716 29.5078 222.592 30.2062 223.173C31.4918 221.551 37.0668 214.737 42.9817
210.374C43.08 210.301 43.2037 210.27 43.3254 210.287C43.4471 210.304 43.5569 210.368 43.6307
210.464C43.7044 210.561 43.7361 210.682 43.7187 210.801C43.7013 210.92 43.6363 211.028 43.538
211.1C36.9246 215.978 30.7254 223.99 30.6636 224.075C30.6204 224.129 30.5651 224.173 30.502
224.204C30.4388 224.234 30.3693 224.25 30.2989 224.25V224.25Z"
        fill="white" />
    <path
        d="M51.0969 71.9341C50.9739 71.9341 50.856 71.8863 50.7691 71.8012C50.6821 71.7161 50.6333 71.6006
50.6333 71.4802C50.6333 71.3599 50.6821 71.2444 50.7691 71.1593C50.856 71.0742 50.9739 71.0264
51.0969 71.0264C63.0317 70.2396 80.7641 70.3123 90.2576 70.4212C90.3185 70.422 90.3786 70.4345
90.4345 70.458C90.4905 70.4816 90.5411 70.5157 90.5836 70.5584C90.6261 70.6011 90.6595 70.6516
90.6821 70.707C90.7046 70.7623 90.7158 70.8215 90.715 70.8811C90.7074 70.9995 90.6551 71.1109
90.5683 71.1937C90.4815 71.2765 90.3663 71.3247 90.2453 71.329C80.7579 71.214 63.0503 71.1474
51.1586 71.9341H51.0969Z"
        fill="white" />
    <path
        d="M133.875 70.7239L105.765 70.391C105.642 70.391 105.524 70.3432 105.437 70.2581C105.35 70.173
105.301 70.0575 105.301 69.9372C105.301 69.8168 105.35 69.7013 105.437 69.6162C105.524 69.5311
105.642 69.4833 105.765 69.4833L133.875 69.8161C133.997 69.8161 134.115 69.8639 134.202
69.9491C134.289 70.0342 134.338 70.1496 134.338 70.27C134.338 70.3904 134.289 70.5058 134.202
70.5909C134.115 70.6761 133.997 70.7239 133.875 70.7239Z"
        fill="white" />
    <path
        d="M88.7931 78.8634C86.1107 78.8634 81.6236 78.5729 76.6048 78.2582C67.9952 77.6954 57.2779 76.9934
51.9687 77.5744C51.9075 77.5825 51.8453 77.5785 51.7858 77.5628C51.7262 77.5471 51.6704 77.5199
51.6217 77.4828C51.5731 77.4457 51.5324 77.3995 51.5022 77.3468C51.472 77.2941 51.4529 77.2361
51.4459 77.176C51.4389 77.116 51.4442 77.0552 51.4615 76.9972C51.4788 76.9393 51.5078 76.8852
51.5467 76.8384C51.5856 76.7915 51.6336 76.7527 51.6881 76.7242C51.7425 76.6958 51.8022 76.6782
51.8636 76.6726C57.2531 76.0675 68.0199 76.7876 76.6667 77.3504C83.1625 77.7741 88.7684 78.1432
90.5732 77.889C90.6953 77.8722 90.8192 77.9035 90.9178 77.9762C91.0163 78.0488 91.0813 78.1568
91.0985 78.2764C91.1158 78.3959 91.0837 78.5173 91.0096 78.6138C90.9354 78.7102 90.8251 78.7739
90.703 78.7908C90.0686 78.8553 89.4307 78.8795 88.7931 78.8634V78.8634Z"
        fill="white" />
    <path
        d="M102.842 102.193C100.141 102.193 96.0987 102.163 91.2654 102.12C79.1327 102.023 62.5129 101.89
51.091 102.12C50.9681 102.12 50.8501 102.072 50.7632 101.987C50.6763 101.902 50.6274 101.787
50.6274
101.666C50.6274 101.546 50.6763 101.431 50.7632 101.345C50.8501 101.26 50.9681 101.213 51.091
101.213C62.5129 100.958 79.1389 101.091 91.2654 101.213C97.5017 101.261 102.434 101.303 104.832
101.273C104.955 101.273 105.073 101.321 105.16 101.406C105.247 101.491 105.296 101.607 105.296
101.727C105.296 101.847 105.247 101.963 105.16 102.048C105.073 102.133 104.955 102.181 104.832
102.181L102.842 102.193Z"
        fill="white" />
    <path
        d="M63.6125 111.658C63.5569 111.658 58.0499 111.537 51.9187 111.355C51.8578 111.354 51.7978 111.34
51.7422 111.316C51.6865 111.292 51.6363 111.257 51.5944 111.214C51.5525 111.171 51.5198 111.12
51.498 111.064C51.4762 111.008 51.4658 110.949 51.4675 110.889C51.4723 110.769 51.5247 110.656
51.6137 110.574C51.7026 110.491 51.8209 110.446 51.9434 110.448C58.087 110.629 63.5754 110.75
63.631
110.75C63.754 110.75 63.8719 110.798 63.9588 110.883C64.0457 110.968 64.0946 111.084 64.0946
111.204C64.0946 111.324 64.0457 111.44 63.9588 111.525C63.8719 111.61 63.754 111.658 63.631
111.658H63.6125Z"
        fill="white" />
    <path
        d="M86.8892 138.957C74.7132 138.957 61.9192 138.739 54.966 138.013C54.9035 138.009 54.8425 137.993
54.7866 137.965C54.7308 137.938 54.6812 137.899 54.6408 137.853C54.6005 137.806 54.5703 137.751
54.552 137.693C54.5337 137.634 54.5277 137.573 54.5344 137.512C54.5411 137.451 54.5603 137.392
54.5909 137.338C54.6214 137.285 54.6628 137.238 54.7123 137.201C54.7619 137.163 54.8187 137.136
54.8793 137.121C54.9399 137.105 55.003 137.102 55.0649 137.111C70.6278 138.745 115.512 137.795
116.872 137.638C116.932 137.63 116.994 137.635 117.053 137.651C117.111 137.667 117.166 137.694
117.214 137.732C117.262 137.769 117.302 137.815 117.331 137.868C117.36 137.92 117.379 137.978
117.385 138.037C117.399 138.157 117.363 138.277 117.287 138.371C117.21 138.465 117.099 138.526
116.977 138.54C116.223 138.624 102.038 138.957 86.8892 138.957Z"
        fill="white" />
    <path
        d="M100.283 168.338C99.9492 168.338 67.0309 167.545 50.8931 166.716C50.8322 166.713 50.7725 166.698
50.7175 166.673C50.6625 166.647 50.6131 166.611 50.5724 166.567C50.5316 166.522 50.5002 166.47
50.4799 166.414C50.4597 166.358 50.451 166.298 50.4543 166.238C50.4558 166.178 50.4698 166.119
50.4955 166.064C50.5212 166.01 50.558 165.961 50.6038 165.92C50.6495 165.88 50.7031 165.849 50.7614
165.83C50.8197 165.811 50.8813 165.804 50.9426 165.809C67.0618 166.638 99.9739 167.424 100.301
167.43C100.424 167.43 100.542 167.478 100.629 167.563C100.716 167.649 100.765 167.764 100.765
167.884C100.765 168.005 100.716 168.12 100.629 168.205C100.542 168.29 100.424 168.338 100.301
168.338H100.283Z"
        fill="white" />
    <path
        d="M82.5811 177.107H82.5317C82.3895 177.107 68.3162 175.703 55.1884 174.348C55.0703 174.33 54.9637
174.269 54.8908 174.176C54.8179 174.083 54.7843 173.967 54.7971 173.851C54.8098 173.734 54.8679
173.627 54.9593 173.552C55.0506 173.477 55.1681 173.439 55.2873 173.446C68.3965 174.802 82.4823
176.194 82.6244 176.206C82.7474 176.211 82.863 176.265 82.9459 176.354C83.0287 176.443 83.0721
176.56 83.0663 176.681C83.0606 176.801 83.0063 176.914 82.9153 176.995C82.8243 177.077 82.7041
177.119 82.5811 177.113V177.107Z"
        fill="white" />
    <path
        d="M73.8297 197.502C66.6756 197.564 59.5252 197.16 52.426 196.291C52.3655 196.283 52.3073 196.263
52.2547 196.233C52.2021 196.202 52.1561 196.162 52.1194 196.114C52.0452 196.018 52.0132 195.897
52.0304 195.777C52.0476 195.657 52.1127 195.549 52.2112 195.477C52.3097 195.404 52.4337 195.373
52.5558 195.39C67.5687 197.417 87.3963 196.503 101.383 195.39C107.001 195.025 112.638 195.025
118.256 195.39C118.317 195.394 118.377 195.41 118.431 195.437C118.486 195.464 118.534 195.501
118.574 195.546C118.614 195.591 118.644 195.644 118.664 195.701C118.683 195.757 118.69 195.817
118.686 195.877C118.681 195.936 118.665 195.995 118.638 196.048C118.61 196.101 118.572 196.149
118.526 196.188C118.48 196.227 118.426 196.257 118.368 196.276C118.31 196.294 118.249 196.302
118.188 196.297C112.617 195.936 107.028 195.936 101.457 196.297C93.4842 196.933 83.6322 197.502
73.8297 197.502Z"
        fill="white" />
    <path
        d="M90.3938 226.175H90.3011C86.6297 225.467 79.7568 225.4 72.476 225.334C64.336 225.255 55.918
225.176 49.9536 224.256C49.8323 224.237 49.7238 224.171 49.652 224.074C49.5801 223.976 49.5508
223.855 49.5704 223.736C49.5916 223.618 49.659 223.513 49.7583 223.443C49.8576 223.372 49.9809
223.343 50.1019 223.361C55.9983 224.275 64.3793 224.353 72.4883 224.426C79.8124 224.492 86.7039
224.559 90.4803 225.285C90.5963 225.304 90.7008 225.365 90.7726 225.456C90.8445 225.547 90.8783
225.661 90.8673 225.776C90.8563 225.89 90.8013 225.996 90.7134 226.073C90.6255 226.149 90.5112
226.19 90.3938 226.187V226.175Z"
        fill="white" />
    <path
        d="M76.1104 235.428C75.9868 235.428 63.8047 234.678 51.8698 233.861C51.8089 233.857 51.7493 233.841
51.6946 233.815C51.6398 233.788 51.5909 233.752 51.5507 233.707C51.5105 233.662 51.4798 233.609
51.4603 233.553C51.4408 233.496 51.4329 233.436 51.4371 233.376C51.4466 233.257 51.5037 233.145
51.5961 233.066C51.6886 232.987 51.809 232.946 51.9316 232.953C63.8603 233.776 76.0362 234.514
76.1598 234.52C76.2828 234.52 76.4007 234.568 76.4876 234.653C76.5746 234.738 76.6234 234.854
76.6234 234.974C76.6234 235.095 76.5746 235.21 76.4876 235.295C76.4007 235.38 76.2828 235.428
76.1598 235.428H76.1104Z"
        fill="white" />
    <path
        d="M140.235 179.159C140.126 179.161 140.019 179.125 139.936 179.055C139.853 178.986 139.799 178.89
139.783 178.784C139.734 178.451 139.685 178.136 139.629 177.815C136.996 162.777 121.507 134.067
114.968 122.424C109.776 113.165 104.461 102.223 102.718 97.8115C100.975 93.3998 92.1181 74.0403
91.4938 72.6847C87.3964 68.8328 82.5201 65.8642 77.1794 63.9702C77.063 63.93 76.9677 63.8463
76.9143
63.7373C76.861 63.6284 76.8541 63.5032 76.8951 63.3892C76.936 63.2752 77.0216 63.1819 77.1329
63.1297C77.2441 63.0775 77.372 63.0707 77.4884 63.1108C83.0017 65.057 88.0318 68.1238 92.2479
72.1098C92.2837 72.1471 92.313 72.1901 92.3344 72.2368C92.4271 72.4426 101.834 92.9156 103.614
97.4908C105.326 101.872 110.635 112.765 115.809 121.988C122.366 133.674 137.911 162.486 140.568
177.664C140.63 177.991 140.673 178.318 140.723 178.632C140.741 178.753 140.71 178.875 140.637
178.973C140.565 179.072 140.456 179.138 140.334 179.159H140.235Z"
        fill="white" />
    <path
        d="M159.722 182.566C159.611 182.566 159.503 182.527 159.419 182.455C159.334 182.383 159.279 182.284
159.263 182.176C159.248 182.068 159.272 181.958 159.333 181.866C159.393 181.774 159.485 181.707
159.593 181.676L159.97 181.567C164.723 180.188 179.185 176 191.757 175.298C191.88 175.291 192.001
175.331 192.093 175.412C192.185 175.492 192.241 175.604 192.248 175.724C192.256 175.845 192.214
175.963 192.132 176.053C192.05 176.144 191.935 176.198 191.812 176.206C179.346 176.902 164.964
181.047 160.235 182.439L159.858 182.548C159.814 182.56 159.768 182.566 159.722 182.566V182.566Z"
        fill="white" />
    <path
        d="M164.105 208.8C160.347 208.8 157.392 208.322 154.92 207.36C154.859 207.342 154.802 207.312
154.753 207.271C154.704 207.23 154.665 207.18 154.637 207.123C154.609 207.067 154.593 207.005
154.591 206.942C154.589 206.88 154.6 206.817 154.623 206.759C154.647 206.7 154.683 206.647 154.728
206.603C154.774 206.559 154.828 206.525 154.888 206.502C154.948 206.48 155.012 206.469 155.076
206.472C155.14 206.475 155.203 206.491 155.26 206.519C159.735 208.262 166.237 208.334 176.336
206.737C179.606 206.222 182.319 205.769 184.631 205.357C193.809 203.729 195.83 202.936 195.849
202.936C195.96 202.899 196.082 202.904 196.189 202.951C196.297 202.998 196.382 203.083 196.428
203.189C196.473 203.296 196.476 203.415 196.435 203.523C196.394 203.631 196.312 203.72 196.207
203.771C196.127 203.802 194.161 204.588 184.797 206.247C182.48 206.658 179.76 207.112 176.484
207.632C172.395 208.337 168.256 208.727 164.105 208.8V208.8Z"
        fill="white" />
    <path
        d="M219.205 74.6394C219.086 74.6395 218.97 74.5942 218.884 74.513C218.798 74.4317 218.747 74.3209
218.742 74.2037L218.173 60.6357L210.59 57.9608L201.158 68.6845C201.117 68.7298 201.068 68.7668
201.013 68.7935C200.958 68.8201 200.898 68.8359 200.836 68.8398C200.775 68.8437 200.713 68.8358
200.655 68.8164C200.597 68.797 200.543 68.7666 200.497 68.7269C200.45 68.6871 200.412 68.6389
200.385 68.5848C200.358 68.5308 200.342 68.472 200.338 68.4119C200.334 68.3517 200.342 68.2914
200.362 68.2344C200.382 68.1773 200.413 68.1246 200.453 68.0793L210.089 57.1196C210.15 57.0499
210.231 56.9998 210.321 56.9761C210.412 56.9523 210.507 56.9559 210.596 56.9865L218.773
59.8732C218.86 59.9031 218.935 59.9576 218.99 60.0298C219.045 60.102 219.077 60.1886 219.082
60.2786L219.663 74.1492C219.665 74.2088 219.656 74.2683 219.635 74.3243C219.614 74.3803 219.582
74.4317 219.54 74.4756C219.499 74.5194 219.449 74.5548 219.394 74.5798C219.338 74.6048 219.279
74.6189 219.218 74.6213L219.205 74.6394Z"
        fill="white" />
    <path
        d="M192.004 131.471C191.93 131.472 191.856 131.454 191.79 131.421C191.724 131.388 191.667 131.34
191.624 131.28C191.581 131.221 191.553 131.152 191.543 131.08C191.533 131.008 191.54 130.935
191.565
130.866L210.008 81.3327C210.052 81.2227 210.139 81.134 210.249 81.0854C210.359 81.0368 210.484
81.032 210.597 81.0722C210.711 81.1124 210.804 81.1943 210.856 81.3006C210.909 81.4069 210.918
81.5291 210.88 81.6413L192.437 131.175C192.404 131.261 192.345 131.336 192.268 131.389C192.19
131.442 192.098 131.471 192.004 131.471V131.471Z"
        fill="white" />
    <path
        d="M181.83 137.801C181.777 137.81 181.723 137.81 181.67 137.801C181.61 137.781 181.555 137.748
181.509 137.706C181.463 137.664 181.426 137.613 181.4 137.556C181.375 137.5 181.361 137.438 181.361
137.376C181.36 137.315 181.373 137.253 181.398 137.196L203.376 79.3173C203.419 79.2041 203.506
79.1122 203.617 79.0617C203.729 79.0112 203.857 79.0063 203.973 79.048C204.088 79.0897 204.182
79.1747 204.234 79.2842C204.285 79.3937 204.29 79.5188 204.248 79.632L182.269 137.511C182.235
137.597 182.175 137.672 182.096 137.723C182.018 137.775 181.925 137.803 181.83 137.801Z"
        fill="white" />
    <path
        d="M152.763 131.532L153.182 131.259L153.182 131.259L153.182 131.259L153.181 131.257L153.178
131.253L153.166 131.234L153.118 131.161L152.941 130.888L152.326 129.945C151.888 129.273 151.342
128.435 150.838 127.664L153.373 124.623L156.661 123.977C157.756 125.708 157.845 127.637 157.632
129.197C157.52 130.014 157.326 130.716 157.16 131.214C157.078 131.462 157.002 131.658 156.949
131.791C156.922 131.857 156.9 131.907 156.886 131.94C156.878 131.957 156.873 131.969 156.87
131.976L156.866 131.984L156.866 131.985L156.866 131.985L156.865 131.985L156.865 131.985L156.807
132.109L156.821 132.246C157.733 141.637 152.97 146.247 151.541 147.292C151.11 147.607 150.567
148.159 150.013 148.776C149.451 149.402 148.852 150.126 148.304 150.81C147.755 151.495 147.255
152.145 146.893 152.622C146.711 152.861 146.564 153.058 146.462 153.194C146.446 153.216 146.431
153.236 146.418 153.255L136.614 155.296C136.741 154.758 136.849 154.112 136.941 153.426C137.092
152.308 137.209 151.031 137.299 149.83C137.388 148.627 137.449 147.495 137.489 146.663C137.509
146.247 137.523 145.906 137.532 145.669C137.535 145.577 137.538 145.501 137.54 145.442C139.838
142.077 142.539 140.918 145.483 139.654C146.395 139.263 147.33 138.861 148.284 138.381C150.382
137.325 151.623 135.627 152.336 134.214C152.694 133.506 152.922 132.863 153.062 132.396C153.132
132.162 153.179 131.971 153.21 131.837C153.225 131.77 153.237 131.717 153.244 131.679C153.248
131.661 153.25 131.646 153.252 131.635L153.255 131.623L153.255 131.619L153.256 131.617L153.256
131.617C153.256 131.617 153.256 131.617 152.763 131.532ZM152.763 131.532L153.182 131.259L153.289
131.423L153.256 131.617L152.763 131.532Z"
        fill="#279C9C" stroke="white" />
</svg>
     -->
<svg width="297" height="211" viewBox="0 0 297 211" fill="none" xmlns="http://www.w3.org/2000/svg">
    <g filter="url(#filter0_df_0_1)">
        <rect x="4" y="1" width="289" height="202" rx="50" fill="#E4F2F2" />
    </g>
    <path
        d="M82.2554 118.105C83.2303 119.664 82.9921 120.39 81.2335 120.526C78.3262 120.751 75.4072 120.773 72.4939 120.903C71.5279 120.946 70.5642 121.057 69.5215 121.602C70.3844 121.825 71.2426 122.076 72.1115 122.262C72.9538 122.443 73.8381 122.446 74.6431 122.743C75.0786 122.904 75.3869 123.514 75.7526 123.922C75.3244 124.339 74.9318 125.031 74.4599 125.111C73.6955 125.24 72.8727 125.01 72.0855 124.858C69.7129 124.4 67.3455 123.906 64.9761 123.425C64.9194 123.578 64.8627 123.73 64.8059 123.883C66.4294 124.755 68.0717 125.586 69.6623 126.531C70.0394 126.754 70.4896 127.384 70.46 127.783C70.4276 128.22 69.9332 128.827 69.5386 128.957C69.1139 129.096 68.5259 128.874 68.0877 128.627C65.8855 127.388 63.5834 126.302 61.5605 124.747C59.7251 123.337 57.8857 123.451 55.9475 123.543C55.8797 123.705 55.8119 123.867 55.7441 124.028C57.0923 124.881 58.4848 125.657 59.7667 126.625C60.2705 127.005 60.5268 127.813 60.8959 128.427C60.1963 128.588 59.3597 129.111 58.8219 128.845C56.9415 127.915 55.188 126.656 53.3342 125.647C52.7353 125.321 51.9441 125.171 51.2958 125.3C49.1023 125.738 46.9384 126.366 44.7525 126.86C43.8981 127.053 42.6991 127.55 42.5593 126.046C42.5115 125.532 43.6405 124.604 44.3673 124.324C45.8031 123.771 47.3333 123.539 49.309 123.055C47.0284 122.355 45.0737 122.124 43.4451 121.168C40.9417 119.699 38.6617 119.716 36.2734 121.217C35.9788 121.402 35.6086 121.61 35.3062 121.558C34.8025 121.472 34.3254 121.184 33.837 120.981C34.0798 120.407 34.191 119.58 34.5908 119.31C35.6382 118.601 36.8116 118.136 37.8716 117.243C36.0354 116.979 34.1824 116.815 32.3682 116.42C30.8065 116.08 29.2557 115.575 27.7719 114.928C27.3122 114.728 27.0878 113.823 26.7556 113.241C27.3475 113.024 27.972 112.545 28.5257 112.635C31.6827 113.147 34.821 113.808 37.9707 114.381C38.4003 114.46 38.8584 114.335 39.441 113.876C38.8297 113.542 38.2422 113.122 37.6024 112.892C36.1322 112.363 34.596 112.043 33.1692 111.399C32.5152 111.104 31.5503 110.177 31.6048 109.656C31.7569 108.204 32.8751 108.753 33.6606 108.973C37.1006 109.933 40.5185 111 43.9683 111.91C45.6339 112.349 47.3492 112.555 49.0489 112.807C49.6831 112.9 50.3368 112.822 50.9816 112.822C51.0169 112.613 51.0521 112.404 51.0874 112.196C50.3878 111.92 49.7031 111.572 48.9864 111.379C41.9304 109.476 34.869 107.6 27.8099 105.713C27.532 105.639 27.1736 105.622 27.0054 105.416C26.62 104.944 26.3292 104.372 26 103.84C26.501 103.544 27.0373 102.939 27.4968 103.007C29.1338 103.251 30.7439 103.728 32.366 104.107C32.805 104.21 33.2502 104.278 33.8883 104.028C33.2791 103.429 32.6235 102.881 32.069 102.221C30.1311 99.9166 28.1718 97.6288 26.3595 95.1995C25.9945 94.7103 25.9297 93.328 26.2635 92.8819C27.0064 91.8891 27.6498 92.8634 28.1988 93.5245C29.6512 95.2737 31.1011 97.0255 32.7023 98.9171C32.9216 98.9059 32.9905 98.7538 33.0594 98.6017C33.0094 96.5197 32.8485 94.4289 32.9735 92.3606C33.0137 91.6957 33.8079 91.0902 34.2572 90.4576C34.5736 91.169 35.2123 91.9156 35.1562 92.5864C34.6544 98.5911 36.8294 102.975 41.2354 106.009C42.1999 106.674 43.3629 106.962 44.4344 107.423C44.5218 107.206 44.6092 106.989 44.6966 106.771C44.2537 106.461 43.8043 106.163 43.369 105.839C42.2217 104.986 41.0071 104.226 39.9501 103.245C36.206 99.7702 35.4986 96.1618 37.5768 91.2304C37.7703 90.7713 38.6026 90.1832 38.8211 90.3193C39.2634 90.5949 39.7732 91.3437 39.7488 91.8666C39.6763 93.4213 39.35 94.9595 39.1397 96.5071C39.039 97.2489 38.9764 97.9974 38.8965 98.7428C39.0631 98.8623 39.2297 98.9818 39.3963 99.1013C39.8513 98.5769 40.3362 98.0818 40.7562 97.5231C42.8367 94.7557 44.8587 91.9286 47.0089 89.2344C47.3775 88.7725 48.2664 88.8525 48.915 88.6822C48.8018 89.4768 48.9146 90.4719 48.5351 91.0303C47.1367 93.0876 45.5569 94.9827 44.0879 96.9798C43.7186 97.4821 43.5081 98.1368 43.2246 98.7215C43.3413 98.8326 43.4581 98.9436 43.5748 99.0547C43.9836 98.6891 44.4159 98.3528 44.7974 97.9532C47.4966 95.126 50.6593 93.2102 54.069 91.7831C54.8807 91.4434 55.8983 91.0015 56.2064 92.3057C56.3115 92.7505 55.4756 93.7334 54.8915 94.0982C52.7732 95.4212 50.5794 96.5864 48.4141 97.8111C48.482 98.047 48.5499 98.2829 48.6179 98.5188C50.5776 98.2943 52.5373 98.0697 54.61 97.8322C54.427 99.7748 53.847 100.778 52.1819 100.966C50.2969 101.178 48.4418 101.736 46.5736 102.143C46.5924 102.37 46.6113 102.596 46.6301 102.823C48.8377 102.823 51.0453 102.823 53.7351 102.823C54.3781 101.584 55.283 99.8791 56.1547 98.1523C57.4664 95.554 58.7053 92.906 60.0675 90.3432C61.3721 87.8888 63.2573 86.2645 65.7942 85.8008C66.9712 85.5857 67.6174 84.9021 67.723 83.5082C67.7817 82.733 67.99 81.9737 68.1143 81.2037C68.5227 78.6726 69.6547 76.9322 71.9532 76.2733C74.2036 75.6281 76.0028 76.0796 77.6759 78.118C78.6654 79.3237 80.1981 79.9476 81.7336 81.0029C81.0351 81.3137 80.4665 81.6486 79.8623 81.8224C75.1914 83.1666 73.278 85.6587 73.3472 91.0343C73.3851 93.978 72.279 96.3111 71.0536 98.9605C71.1186 99.2843 71.2864 99.3738 71.4543 99.4633C72.8038 98.9616 74.186 98.547 75.4841 97.909C75.9124 97.6985 76.3974 96.9032 76.3863 96.3886C76.3386 94.1892 76.0594 91.997 75.9879 89.7969C75.9646 89.0824 76.3169 88.3519 76.4975 87.6287C77.0319 88.0766 77.9402 88.4387 78.0366 88.9871C78.4702 91.454 78.6958 93.9708 78.9436 96.4763C79.005 97.0969 78.8691 97.7429 79.032 98.4432C80.2926 96.1905 80.9205 93.6941 81.2373 91.0784C81.323 90.3709 81.1888 89.6051 81.3709 88.9435C81.5273 88.3756 81.9912 87.9183 82.3192 87.412C82.7496 87.915 83.5152 88.3926 83.5462 88.9259C83.6313 90.3909 83.4082 91.8793 83.2835 93.6651C82.4405 99.0346 79.8641 102.995 77.0136 106.87C78.2959 106.067 79.4535 105.127 80.2154 103.874C81.584 101.624 82.7151 99.1841 83.9921 96.6918C84.1615 96.1347 84.2843 95.709 84.5154 95.2561C84.7081 94.8388 84.7923 94.4489 84.8766 94.059C85.0836 93.8166 85.2907 93.5742 85.7119 93.3379C86.2855 93.4926 86.645 93.6413 87.0045 93.79C87.0045 93.79 87.0208 93.7465 87.0421 93.9096C87.0121 94.9529 86.9609 95.8333 86.9097 96.7136C86.9097 96.7136 86.9201 96.7469 86.849 96.8329C86.3465 98.155 85.9151 99.3911 85.4837 100.627C86.5269 100.264 87.2865 99.4492 88.171 98.895C88.6966 98.5657 89.4191 98.6463 90.053 98.5425C89.9596 99.2951 90.0638 100.202 89.7274 100.765C89.1982 101.651 88.3724 102.305 87.6007 103.077C87.4352 103.15 87.3745 103.234 87.2358 103.4C85.5693 104.664 84.0141 105.878 82.4589 107.092C83.0896 107.215 83.5767 107.063 84.0168 106.806C86.7608 105.201 89.5027 103.592 92.2258 101.942C93.0167 101.463 93.7795 101.458 94.0602 102.419C94.2058 102.918 93.8408 103.886 93.436 104.263C92.5635 105.074 91.5269 105.663 90.5384 106.304C85.9845 109.259 81.0879 111.211 76.0737 112.861C73.6203 113.668 71.2839 115.288 68.8084 115.577C65.0342 116.018 61.1852 115.623 57.2659 115.492C56.0785 114.948 54.9933 114.495 53.9081 114.041C53.836 114.217 53.7639 114.394 53.6917 114.571C54.6326 115.198 55.5735 115.826 56.6129 116.554C58.917 116.95 61.1169 117.398 63.3296 117.507C67.0095 117.688 70.4474 116.837 73.9322 115.13C78.9994 112.648 84.386 111.017 89.6329 109.011C90.4988 108.68 91.3267 108.153 92.2114 107.983C92.6075 107.907 93.1004 108.489 93.5494 108.772C93.3265 109.23 93.1954 109.831 92.8591 110.112C92.3705 110.519 91.7357 110.7 91.16 110.968C89.3815 111.797 87.6015 112.621 85.822 113.447C87.0239 114.213 88.2103 114.42 89.2806 114.939C89.8095 115.196 90.1243 116.028 90.536 116.6C89.9362 116.886 89.3105 117.467 88.7414 117.402C87.0624 117.21 85.4158 116.668 83.7382 116.436C80.958 116.051 78.3008 116.698 75.7602 118.105C77.9253 118.105 80.0904 118.105 82.2554 118.105ZM54.9402 108.637C54.0651 108.473 53.1899 108.309 52.1466 108.114C53.348 110.157 61.2965 112.6 63.5031 111.306C60.7408 110.441 57.9785 109.576 54.9402 108.637ZM53.5413 120.366C54.2242 120.366 54.907 120.366 55.5899 120.366C55.6054 120.035 55.6209 119.704 55.6363 119.374C51.5874 118.556 47.4577 118.412 43.3649 117.921C46.4953 119.652 49.8355 120.151 53.5413 120.366ZM58.306 99.8466C57.5205 101.054 56.735 102.261 55.7912 103.711C57.8095 103.588 62.3598 97.3456 62.61 94.4132C61.0473 96.3814 59.7561 98.0078 58.306 99.8466ZM67.2948 109.055C66.8027 109.055 66.3105 109.055 65.8184 109.055C68.1764 111.252 72.8224 111.875 74.7764 110.46C72.2492 109.989 69.9168 109.554 67.2948 109.055ZM74.4975 102.247C74.6883 101.823 74.879 101.4 75.1398 100.821C71.5058 102.265 70.366 103.638 70.6301 106.861C72.0591 105.179 73.2076 103.828 74.4975 102.247Z"
        fill="#206C6F" />
    <path
        d="M141.929 110.944C141.929 112.577 141.917 114.015 141.93 115.452C141.948 117.37 141.755 119.189 139.905 119.969C138.083 120.738 136.84 119.657 135.747 117.909C132.99 120.222 129.964 121.02 126.692 119.937C124.305 119.147 122.41 117.468 120.992 115.155C117.837 110.01 118.261 102.573 121.919 98.1017C125.564 93.6462 130.6 93.0457 135.605 96.472C135.711 96.4406 135.87 96.4465 135.914 96.3683C136.844 94.7119 138.078 93.8345 139.82 94.528C141.579 95.2284 141.93 96.8971 141.924 98.7893C141.913 102.775 141.926 106.762 141.929 110.944ZM134.896 110.387C136.157 107.43 135.882 104.854 134.07 102.659C132.562 100.832 130.219 100.209 128.276 101.12C125.973 102.199 124.53 104.68 124.641 107.372C124.759 110.252 126.26 112.571 128.543 113.404C130.838 114.24 132.903 113.32 134.896 110.387Z"
        fill="#1E6B6F" />
    <path
        d="M165.651 119.654C165.129 118.565 164.377 117.554 164.369 116.535C164.286 106.741 164.319 96.9455 164.34 87.1507C164.345 84.7742 165.692 83.116 167.5 83.1444C169.266 83.1722 170.416 84.7227 170.42 87.1444C170.426 91.3888 170.408 95.6333 170.401 99.8777C170.399 100.637 170.401 101.397 170.401 102.663C172.962 99.9696 175.17 97.5643 177.471 95.2808C178.118 94.6386 179.023 94.0136 179.834 93.9711C182.079 93.8534 183.492 96.7411 182.263 98.9974C181.558 100.291 180.454 101.315 179.473 102.393C178.488 103.477 177.433 104.478 176.229 105.697C177.992 107.811 179.705 109.865 181.418 111.919C182.049 112.675 182.702 113.409 183.305 114.192C184.637 115.92 184.604 117.932 183.248 119.388C181.991 120.739 180.508 120.592 179.02 119C176.603 116.416 174.175 113.846 171.553 111.059C170.729 111.338 170.268 112.346 170.38 113.837C170.444 114.68 170.406 115.534 170.39 116.383C170.332 119.632 168.464 120.981 165.651 119.654Z"
        fill="#1E6B6F" />
    <path
        d="M109.04 98.7874C109.041 96.6316 108.986 94.6691 109.06 92.7129C109.111 91.3787 108.75 90.83 107.516 90.9061C105.748 91.0152 103.971 90.9729 102.199 90.9438C100.227 90.9115 98.9188 89.5445 98.8982 87.5657C98.8775 85.5831 100.171 84 102.063 83.9815C108.925 83.9144 115.788 83.8968 122.65 83.9309C124.419 83.9397 125.776 85.5538 125.788 87.3682C125.8 89.2328 124.572 90.7524 122.713 90.8444C120.322 90.9627 117.923 90.8732 115.25 90.8732C115.25 91.7511 115.25 92.4366 115.25 93.1221C115.254 100.765 115.271 108.409 115.256 116.052C115.25 118.684 114.032 120.287 112.142 120.286C110.276 120.285 109.051 118.621 109.047 116.034C109.037 110.351 109.041 104.667 109.04 98.7874Z"
        fill="#1E6A6E" />
    <path
        d="M187.675 85.8494C188.034 85.2838 188.368 84.2815 188.757 84.2536C189.358 84.2103 190.213 84.6428 190.586 85.2004C193.634 89.7646 196.585 94.4143 199.588 99.0189C202.482 103.456 205.403 107.871 208.526 112.621C208.573 111.604 208.631 110.934 208.631 110.263C208.637 102.624 208.633 94.9855 208.632 87.3467C208.632 86.8899 208.475 86.2812 208.672 86.0063C209.147 85.3439 209.789 84.8375 210.364 84.2682C210.827 84.8871 211.636 85.4702 211.689 86.1316C211.858 88.2683 211.751 90.4337 211.746 92.5881C211.728 100.88 211.734 109.172 211.649 117.463C211.641 118.295 211.277 119.473 210.731 119.873C209.689 120.636 208.968 119.562 208.374 118.648C203.16 110.635 197.95 102.617 192.735 94.6044C192.195 93.7747 191.628 92.9678 190.83 91.7921C190.765 92.7303 190.697 93.2614 190.697 93.7926C190.687 101.758 190.712 109.723 190.646 117.688C190.639 118.47 190.257 119.529 189.737 119.93C189.364 120.216 188.469 119.614 187.855 119.15C187.934 118.702 187.994 118.512 187.995 118.322C188.001 107.982 188.007 97.6427 187.991 87.3032C187.99 86.8184 187.785 86.334 187.675 85.8494Z"
        fill="#216C71" />
    <path
        d="M143.996 115.628C144.655 112.476 145.823 111.992 148.381 112.957C150.276 113.672 152.348 113.906 154.356 114.026C154.968 114.063 155.631 113.01 156.271 112.456C155.684 111.833 155.184 110.891 154.495 110.648C152.649 109.998 150.681 109.795 148.835 109.143C145.846 108.087 144.261 105.637 144.096 102.246C143.928 98.8163 145.151 96.4049 147.959 95.1684C151.604 93.5624 155.255 93.8137 158.756 95.7781C160.657 96.8448 161.205 98.448 160.489 100.201C159.782 101.933 158.365 102.284 156.393 101.611C154.724 101.041 152.969 100.664 151.235 100.554C150.614 100.514 149.944 101.507 149.296 102.029C149.861 102.581 150.358 103.431 151.006 103.625C152.655 104.12 154.386 104.247 156.06 104.655C160.193 105.664 162.339 109.364 161.635 114.069C161.276 116.473 160.049 118.188 158.2 119.113C154.242 121.096 150.172 121.158 146.287 118.922C145.309 118.359 144.751 116.844 143.996 115.628Z"
        fill="#1E6B6F" />
    <path
        d="M230.561 108.726C226.467 108.726 222.543 108.726 218.607 108.726C218.886 113.463 222.168 117.069 226.481 117.119C228.653 117.144 230.845 116.396 233.002 115.862C233.953 115.627 234.933 114.909 235.514 116.336C236.112 117.803 235.199 118.518 234.176 118.977C229.13 121.239 224.166 121.781 219.544 117.736C215.751 114.417 214.347 108.119 216.145 102.855C217.966 97.5221 222.217 94.4508 227.202 94.8661C231.822 95.251 236.196 100.477 236.285 105.717C236.317 107.62 235.515 108.622 233.819 108.708C232.791 108.761 231.76 108.723 230.561 108.726ZM229.949 99.6171C225.117 96.5901 219.689 99.3221 218.688 105.36C223.46 105.36 228.218 105.36 233.123 105.36C232.943 102.809 231.663 101.22 229.949 99.6171Z"
        fill="#216C71" />
    <path
        d="M239.64 116.205C240.424 116.132 241.169 115.985 241.799 116.229C244.005 117.082 246.212 117.594 248.524 116.908C249.955 116.484 251.086 115.618 251.242 113.82C251.407 111.921 250.425 110.694 248.958 110.136C247.34 109.519 245.641 109.187 243.992 108.668C240.781 107.657 239.116 105.417 239.041 102.088C238.959 98.468 240.425 96.1322 243.51 95.1865C246.189 94.3656 248.864 94.6391 251.407 95.8237C251.946 96.0746 252.572 97.1502 252.515 97.7689C252.409 98.9206 251.542 99.0833 250.535 98.8744C248.805 98.5157 247.039 98.1286 245.297 98.1795C243.284 98.2384 242.058 99.6026 241.886 101.344C241.701 103.225 242.681 104.726 244.715 105.389C246.357 105.924 248.086 106.133 249.705 106.739C251.931 107.573 253.614 109.176 254.136 111.964C254.779 115.392 253.352 118.472 250.351 119.799C246.964 121.297 243.603 120.781 240.35 119.17C239.235 118.619 238.823 117.627 239.64 116.205Z"
        fill="#256D70" />
    <path
        d="M261.738 107.414C261.74 109.375 261.729 111.14 261.748 112.904C261.777 115.633 262.876 117.057 265.276 117.141C266.51 117.184 267.776 116.902 268.99 116.58C269.987 116.316 270.866 116.447 270.994 117.616C271.065 118.266 270.502 119.43 269.982 119.667C267.531 120.782 264.949 121.025 262.444 119.919C259.832 118.766 258.797 116.323 258.776 113.244C258.748 109.192 258.74 105.14 258.725 101.087C258.722 100.379 258.724 99.6714 258.724 98.8095C257.78 98.7491 256.923 98.9129 256.248 98.586C255.645 98.294 255.243 97.4604 254.753 96.8658C255.26 96.3736 255.706 95.6664 256.292 95.4462C256.952 95.1983 257.738 95.3891 258.663 95.3891C258.663 93.3892 258.676 91.5847 258.658 89.7807C258.645 88.5816 258.969 87.6516 260.149 87.6432C261.31 87.635 261.711 88.5549 261.721 89.7412C261.737 91.4999 261.725 93.2589 261.725 95.3312C263.907 95.3312 266 95.3548 268.092 95.3214C269.174 95.3041 270.161 95.5323 270.153 96.9976C270.145 98.4044 269.225 98.756 268.108 98.7328C266.059 98.6902 264.008 98.7207 261.738 98.7207C261.738 101.655 261.738 104.437 261.738 107.414Z"
        fill="#256E73" />
    <path
        d="M187.636 86.0283C187.785 86.334 187.99 86.8184 187.991 87.3032C188.007 97.6427 188.001 107.982 187.995 118.322C187.994 118.512 187.934 118.702 187.822 119.024C187.68 118.71 187.565 118.265 187.565 117.821C187.568 107.283 187.584 96.745 187.636 86.0283Z"
        fill="#1E6A6E" />
    <path
        d="M87.0082 93.6525C86.645 93.6414 86.2855 93.4927 85.8178 93.2968C86.1436 93.3381 86.5777 93.4265 87.0082 93.6525Z"
        fill="#D3F0F2" />
    <path
        d="M87.6007 103.077C87.865 103.216 88.0578 103.375 88.2507 103.534C87.9924 103.546 87.734 103.558 87.4114 103.46C87.3745 103.234 87.4352 103.15 87.6007 103.077Z"
        fill="#E4F2F2" />
    <path
        d="M71.3673 99.3374C71.2864 99.3738 71.1186 99.2844 71.0158 99.0903C71.1474 99.0609 71.2139 99.1362 71.3673 99.3374Z"
        fill="#E4F2F2" />
    <path
        d="M32.9838 98.6617C32.9905 98.7538 32.9216 98.9059 32.812 98.9598C32.8169 98.815 32.8626 98.7683 32.9838 98.6617Z"
        fill="#E4F2F2" />
    <path
        d="M90.5085 101.533C90.4408 101.868 90.372 102.202 90.3032 102.536C90.1698 102.482 90.0364 102.429 89.903 102.375C90.0298 102.109 90.1565 101.842 90.3943 101.553C90.5054 101.53 90.5075 101.532 90.5085 101.533Z"
        fill="#E4F2F2" />
    <path
        d="M90.7035 107.433C90.5751 107.522 90.4475 107.521 90.3207 107.51C90.3172 107.509 90.3214 107.396 90.322 107.336C90.4495 107.338 90.577 107.339 90.7035 107.433Z"
        fill="#E4F2F2" />
    <path d="M92.3875 106.811C92.4032 106.801 92.3717 106.821 92.3875 106.811Z" fill="#E4F2F2" />
    <path d="M89.3148 102.92C89.3303 102.91 89.2993 102.929 89.3148 102.92Z" fill="#E4F2F2" />
    <defs>
        <filter id="filter0_df_0_1" x="0" y="0" width="297" height="211"
            filterUnits="userSpaceOnUse" color-interpolation-filters="sRGB">
            <feFlood flood-opacity="0" result="BackgroundImageFix" />
            <feColorMatrix in="SourceAlpha" type="matrix"
                values="0 0 0 0 0 0 0 0 0 0 0 0 0 0 0 0 0 0 127 0" result="hardAlpha" />
            <feOffset dy="4" />
            <feGaussianBlur stdDeviation="2" />
            <feComposite in2="hardAlpha" operator="out" />
            <feColorMatrix type="matrix" values="0 0 0 0 0 0 0 0 0 0 0 0 0 0 0 0 0 0 0.25 0" />
            <feBlend mode="normal" in2="BackgroundImageFix" result="effect1_dropShadow_0_1" />
            <feBlend mode="normal" in="SourceGraphic" in2="effect1_dropShadow_0_1" result="shape" />
            <feGaussianBlur stdDeviation="0.5" result="effect2_foregroundBlur_0_1" />
        </filter>
    </defs>
</svg>
