<svg width="250" height="300" viewBox="0 0 250 300" fill="none"
    xmlns="http://www.w3.org/2000/svg">
    <g clip-path="url(#clip0_62_121)">
        <path
            d="M219.181 73.5894C217.856 74.4539 216.365 75.0461 214.799 75.3296C211.869 75.6621 211.659 72.2116
210.757 71.8007C209.854 71.3899 208.482 73.2448 205.627 72.9731C204.094 72.822 202.469 70.278 201.3
67.9638L200.818 68.5138C200.818 68.5138 176.801 131.961 175.274 135.496C179.338 143.979 182.918
152.675 185.997 161.545L219.218 74.3025L219.181 73.5894Z"
            fill="#279C9C" />
        <path
            d="M203.81 148.826C194.181 153.098 188.977 152.524 187.679 151.424C187.437 151.216 187.262 150.944
187.176 150.64C187.089 150.337 187.096 150.016 187.193 149.715C187.291 149.415 187.476 149.149
187.726 148.951C187.976 148.752 188.279 148.629 188.6 148.596C187.537 148.596 185.324 146.221 188.6
144.971C186.882 144.445 186.319 141.097 191.109 141.097C189.039 140.172 188.866 136.825 192.963
136.765C197.228 136.704 199.818 132.837 199.818 132.837L203.81 148.826Z"
            fill="white" />
        <path
            d="M217.957 184.404C212.091 177.582 200.651 176.156 189.316 176.791V176.748C189.428 173.963 188.531
169.703 186.992 164.663C186.313 165.213 185.713 165.678 185.293 165.981C175.595 173.014 149.965
177.335 140.088 177.661C140.521 180.38 146.72 199.88 149.841 203.233C150.249 204.442 160.15 232.165
157.357 237.187C156.078 239.495 137.931 249.707 124.396 262.964C125.533 268.354 130.991 274.783
137.462 275.805C153.976 267.774 174.594 257.036 179.149 249.616C183.704 242.196 184.149 231.815
184.774 205.976L184.718 205.687C194.137 204.019 196.028 203.269 196.028 203.269C196.028 203.269
201.894 231.174 207.104 245.314C207.104 245.314 218.952 243.356 222.722 240.915C224.032 229.379
228.841 197.058 217.957 184.404Z"
            fill="#0F2064" />
        <path
            d="M137.456 276.294H137.369C130.571 275.224 125.088 268.608 123.926 263.097C123.911 263.024 123.914
262.948 123.935 262.876C123.957 262.805 123.996 262.74 124.05 262.686C132.517 254.396 142.789
247.284 149.594 242.576C153.457 239.906 156.504 237.791 156.937 237.017C158.513 234.177 155.762
221.82 149.576 203.958L149.421 203.511C146.127 199.801 140.039 180.404 139.619 177.782C139.608
177.718 139.612 177.653 139.629 177.59C139.646 177.528 139.677 177.47 139.719 177.42C139.761 177.37
139.814 177.33 139.873 177.302C139.933 177.273 139.998 177.258 140.064 177.256C150.361 176.912
175.565 172.513 185.008 165.666C185.41 165.376 186.01 164.911 186.69 164.361C186.748 164.313
186.819
164.28 186.894 164.265C186.969 164.25 187.047 164.253 187.12 164.275C187.194 164.296 187.261
164.335
187.315 164.388C187.369 164.441 187.409 164.507 187.431 164.579C189.001 169.697 189.786 173.642
189.78 176.326C203.649 175.619 213.266 178.241 218.303 184.127C228.538 196.042 225.132 224.557
223.495 238.268C223.377 239.271 223.266 240.177 223.173 240.987C223.166 241.053 223.143 241.116
223.108 241.172C223.073 241.229 223.026 241.277 222.97 241.313C219.162 243.785 207.66 245.7 207.172
245.785C207.064 245.804 206.954 245.784 206.86 245.73C206.765 245.676 206.694 245.59 206.659
245.489C201.881 232.521 196.492 207.723 195.67 203.886C194.644 204.194 191.869 204.919 185.225
206.103C184.607 231.658 184.168 242.359 179.539 249.894C174.836 257.556 153.383 268.626 137.66
276.252C137.596 276.281 137.526 276.295 137.456 276.294ZM124.897 263.146C126.102 268.294 131.318
274.33 137.381 275.369C152.993 267.774 174.18 256.855 178.748 249.423C183.315 241.99 183.692
231.452
184.31 206.055L184.267 205.813C184.255 205.754 184.256 205.694 184.268 205.636C184.28 205.577
184.305 205.521 184.339 205.472C184.373 205.422 184.418 205.38 184.469 205.348C184.52 205.315
184.578 205.292 184.638 205.282C193.816 203.656 195.831 202.865 195.856 202.865C195.918 202.841
195.985 202.832 196.051 202.836C196.117 202.84 196.182 202.858 196.241 202.889C196.3 202.92 196.351
202.963 196.391 203.015C196.431 203.067 196.459 203.127 196.474 203.191C196.529 203.469 202.296
230.757 207.401 244.818C209.415 244.468 218.847 242.733 222.277 240.667C222.364 239.912 222.463
239.072 222.574 238.153C224.193 224.576 227.568 196.314 217.592 184.701C212.648 178.978 203.167
176.464 189.335 177.25C189.272 177.254 189.209 177.246 189.149 177.225C189.089 177.204 189.035
177.172 188.989 177.129C188.943 177.087 188.906 177.037 188.88 176.981C188.855 176.925 188.841
176.864 188.841 176.803C188.939 174.271 188.223 170.488 186.733 165.491C186.263 165.86 185.862
166.174 185.552 166.391C176.121 173.232 151.35 177.661 140.632 178.138C141.541 182.084 147.233
199.819 150.169 202.973C150.213 203.02 150.247 203.076 150.268 203.136L150.447 203.662C154.186
214.454 160.107 233.198 157.746 237.446C157.233 238.365 154.909 240.002 150.126 243.314C143.42
247.96 133.277 254.982 124.903 263.146H124.897Z"
            fill="#0F2064" />
        <path
            d="M214.274 263.085C212.111 263.085 211.295 260.239 209.292 253.272C208.958 252.106 208.588 250.819
208.173 249.405C208.148 249.292 208.168 249.174 208.228 249.075C208.289 248.976 208.386 248.903
208.499 248.871C208.613 248.84 208.735 248.852 208.839 248.905C208.944 248.958 209.024 249.048
209.064 249.157C209.478 250.571 209.849 251.858 210.188 253.024C212.092 259.671 212.883 262.384
214.515 262.155C215.442 262.028 217.284 261.019 219.416 259.858C222.556 258.142 226.462 256.009
230.467 254.885C232.556 254.281 235.108 253.743 237.574 253.206C242.562 252.124 248.767 250.788
249.064 249.368C249.064 249.278 249.002 248.897 248.409 248.257C245.708 245.35 236.462 240.933
218.915 242.818C218.796 242.825 218.679 242.788 218.587 242.712C218.496 242.637 218.438 242.53
218.425 242.414C218.412 242.298 218.446 242.182 218.519 242.089C218.592 241.997 218.698 241.936
218.816 241.918C236.74 240.014 246.283 244.637 249.101 247.67C249.577 248.184 250.115 248.927
249.979 249.574C249.589 251.423 245.109 252.523 237.778 254.112C235.306 254.643 232.784 255.2
230.726 255.774C226.826 256.873 222.97 258.976 219.873 260.668C217.568 261.925 215.751 262.916
214.651 263.085C214.525 263.094 214.399 263.094 214.274 263.085Z"
            fill="#0F2064" />
        <path d="M218.625 60.4528L210.448 57.5704L218.13 48.8389L218.625 60.4528Z" fill="#0F2064" />
        <path
            d="M218.625 60.9058C218.574 60.9146 218.521 60.9146 218.47 60.9058L210.3 57.9995C210.23 57.9741
210.167 57.9328 210.117 57.8785C210.067 57.8246 210.031 57.7593 210.012 57.6887C209.993 57.6182
209.992 57.5441 210.009 57.4732C210.026 57.4021 210.06 57.3361 210.108 57.2805L217.797
48.549C217.857 48.4794 217.938 48.4297 218.028 48.4056C218.118 48.3819 218.213 48.3852 218.302
48.4151C218.39 48.4453 218.467 48.5005 218.522 48.574C218.578 48.6475 218.609 48.7355 218.612
48.8269L219.107 60.4407C219.109 60.5018 219.099 60.5626 219.077 60.6198C219.055 60.6767 219.021
60.729 218.978 60.7729C218.934 60.8171 218.883 60.8519 218.825 60.8759C218.768 60.8997 218.706
60.912 218.643 60.912L218.625 60.9058ZM211.208 57.3712L218.106 59.7881L217.716 50.0051L211.208
57.3712Z"
            fill="#0F2064" />
        <path
            d="M214.471 75.7888C214.375 75.7953 214.278 75.7953 214.181 75.7888C212.945 75.6136 211.919 74.5804
211.035 72.677C210.88 72.3445 210.738 72.2902 210.689 72.272C210.374 72.1573 209.762 72.4472
209.113
72.7495C208.491 73.0671 207.836 73.3203 207.16 73.5045C205.479 73.9095 203.89 72.9003 202.438
70.4834C202.384 70.3807 202.373 70.2617 202.406 70.1509C202.439 70.0401 202.514 69.9455 202.615
69.887C202.717 69.8285 202.838 69.81 202.953 69.8356C203.068 69.861 203.169 69.9286 203.235
70.0241C204.471 72.0546 205.707 72.9305 206.943 72.6344C207.557 72.4648 208.152 72.234 208.717
71.9457C209.582 71.5407 210.33 71.1845 211.016 71.4322C211.217 71.5128 211.398 71.6324 211.549
71.7842C211.7 71.936 211.817 72.1164 211.894 72.3143C212.623 73.9037 213.445 74.7738 214.329
74.9005C215.102 74.8781 215.858 74.6707 216.53 74.2963C216.641 74.245 216.769 74.2391 216.885
74.2801C217 74.3207 217.095 74.4049 217.148 74.5137C217.2 74.623 217.206 74.7478 217.164
74.8609C217.123 74.9743 217.037 75.0669 216.925 75.118C216.164 75.5057 215.328 75.7342 214.471
75.7888Z"
            fill="#0F2064" />
        <path
            d="M117.839 299.776C115.713 299.776 114.582 298.005 112.097 291.08C111.517 289.377 111.15 287.612
111.003 285.823C110.781 283.341 110.76 280.846 110.941 278.361C111.078 275.557 111.467 272.771
112.103 270.034C112.449 269.224 113.908 268.62 118.234 266.831L120.663 265.822C120.776 265.775
120.904 265.774 121.018 265.819C121.133 265.863 121.224 265.95 121.272 266.061C121.32 266.171
121.322 266.296 121.276 266.408C121.23 266.52 121.141 266.609 121.028 266.656L118.599
267.665C115.212 269.067 113.166 269.913 112.969 270.378C112.38 273.024 112.014 275.711 111.875
278.415C111.697 280.854 111.718 283.303 111.936 285.739C112.076 287.456 112.426 289.15 112.981
290.784C115.651 298.223 116.572 298.96 118.055 298.869C119.291 298.785 119.588 297.866 120.144
295.8C120.225 295.497 120.311 295.195 120.41 294.845L120.83 293.37C121.356 291.558 122.153 288.748
123.012 285.86C123.63 283.871 124.489 280.971 125.237 278.814C125.54 277.926 125.805 277.201
126.034
276.651C126.084 276.544 126.173 276.461 126.284 276.417C126.395 276.374 126.518 276.374 126.629
276.418C126.74 276.462 126.829 276.545 126.879 276.652C126.928 276.758 126.933 276.879 126.893
276.989C126.677 277.521 126.411 278.228 126.115 279.098C125.367 281.243 124.495 284.125 123.902
286.107C123.043 288.99 122.252 291.769 121.726 293.606L121.3 295.087C121.207 295.413 121.121
295.727
121.04 296.029C120.496 298.048 120.07 299.655 118.117 299.77L117.839 299.776Z"
            fill="#0F2064" />
        <path
            d="M189.755 150.644C189.632 150.644 189.515 150.597 189.428 150.512C189.341 150.427 189.292 150.311
189.292 150.191C189.292 150.071 189.341 149.956 189.428 149.871C189.515 149.786 189.632 149.738
189.755 149.738C196.232 149.508 203.031 147.623 208.841 135.453C214.051 124.54 209.459 115.646
205.812 113.307C205.762 113.274 205.718 113.232 205.684 113.183C205.65 113.133 205.626 113.078
205.614 113.019C205.602 112.961 205.602 112.901 205.614 112.842C205.625 112.784 205.649 112.728
205.683 112.679C205.716 112.629 205.76 112.586 205.81 112.553C205.861 112.52 205.917 112.497
205.977
112.485C206.037 112.473 206.098 112.473 206.158 112.485C206.218 112.496 206.275 112.519 206.326
112.552C210.188 115.041 215.133 124.426 209.681 135.84C203.662 148.445 196.56 150.409 189.793
150.644H189.755Z"
            fill="#0F2064" />
        <path
            d="M208.921 136.765C208.815 136.764 208.712 136.728 208.63 136.662C208.548 136.596 208.491 136.504
208.47 136.402C207.617 132.335 203.761 129.151 200.559 128.19C200.441 128.156 200.342 128.077
200.283 127.971C200.225 127.865 200.212 127.741 200.247 127.625C200.282 127.51 200.363 127.413
200.471 127.356C200.579 127.298 200.707 127.286 200.825 127.32C204.28 128.341 208.458 131.804
209.379 136.215C209.391 136.273 209.392 136.333 209.381 136.392C209.37 136.451 209.347 136.507
209.313 136.557C209.28 136.607 209.237 136.65 209.187 136.683C209.137 136.717 209.08 136.741 209.02
136.753L208.921 136.765Z"
            fill="#0F2064" />
        <path
            d="M192.005 139.545C191.882 139.545 191.764 139.497 191.677 139.412C191.59 139.327 191.542 139.211
191.542 139.091C191.542 138.971 191.59 138.856 191.677 138.771C191.764 138.686 191.882 138.638
192.005 138.638C196.053 138.541 197.796 137.369 199.421 135.363C199.46 135.317 199.507 135.278
199.56 135.249C199.614 135.221 199.672 135.202 199.733 135.196C199.794 135.19 199.855 135.195
199.913 135.212C199.972 135.228 200.026 135.256 200.074 135.293C200.121 135.331 200.161 135.377
200.19 135.429C200.219 135.481 200.238 135.539 200.244 135.598C200.251 135.657 200.245 135.717
200.228 135.774C200.211 135.831 200.183 135.884 200.145 135.931C198.377 138.088 196.399 139.442
192.011 139.557L192.005 139.545Z"
            fill="#0F2064" />
        <path
            d="M190.114 144.197C189.991 144.197 189.873 144.15 189.786 144.064C189.699 143.98 189.65 143.864
189.65 143.744C189.65 143.624 189.699 143.509 189.786 143.423C189.873 143.339 189.991 143.291
190.114 143.291C195.188 143.17 197.369 141.672 199.434 139.115C199.471 139.068 199.518 139.029
199.571 139C199.625 138.971 199.683 138.953 199.744 138.946C199.804 138.938 199.866 138.943 199.925
138.96C199.983 138.976 200.038 139.003 200.086 139.04C200.134 139.077 200.174 139.122 200.203
139.174C200.233 139.226 200.252 139.284 200.26 139.343C200.267 139.402 200.262 139.462 200.245
139.52C200.229 139.577 200.201 139.63 200.163 139.677C197.988 142.372 195.546 144.07 190.138
144.197H190.114Z"
            fill="#0F2064" />
        <path
            d="M192.024 147.484C190.842 147.472 189.665 147.351 188.507 147.122C188.393 147.092 188.295 147.022
188.233 146.925C188.17 146.828 188.147 146.711 188.169 146.599C188.191 146.486 188.256 146.385
188.351 146.318C188.446 146.25 188.563 146.22 188.68 146.233C193.668 147.17 196.097 146.149 198.692
144.082C198.739 144.043 198.794 144.012 198.853 143.993C198.912 143.974 198.974 143.967 199.036
143.971C199.098 143.976 199.159 143.992 199.214 144.019C199.27 144.047 199.319 144.084 199.36
144.131C199.4 144.176 199.431 144.23 199.451 144.288C199.47 144.345 199.478 144.406 199.473
144.467C199.469 144.528 199.452 144.587 199.424 144.641C199.396 144.695 199.357 144.743 199.31
144.783C197.322 146.558 194.716 147.524 192.024 147.484Z"
            fill="#0F2064" />
        <path
            d="M98.4317 62.6402C98.3632 62.6405 98.2957 62.6262 98.2335 62.5979C98.1717 62.5697 98.1168 62.5284
98.073 62.477C94.7521 58.7486 91.0859 55.3281 87.1212 52.2592C87.0244 52.1847 86.9619 52.0755
86.9476 51.9559C86.933 51.8366 86.9676 51.7164 87.044 51.6218C87.1202 51.5272 87.2315 51.4661
87.3539 51.4518C87.4762 51.4378 87.5992 51.4716 87.696 51.546C91.7123 54.6527 95.426 58.1158 98.79
61.891C98.8466 61.9573 98.8825 62.0382 98.8938 62.1237C98.9047 62.2092 98.8908 62.2963 98.8532
62.3743C98.8153 62.4523 98.7558 62.5183 98.681 62.5645C98.6065 62.6106 98.5198 62.6347 98.4317
62.6343V62.6402Z"
            fill="#0F2064" />
        <path
            d="M88.0672 59.8365C87.9795 59.8355 87.8937 59.8105 87.8199 59.764C84.4858 57.7424 81.0097 55.9534
77.418 54.4102C77.3581 54.3897 77.3033 54.3579 77.2567 54.3159C77.2099 54.274 77.1726 54.2233
77.1467 54.1664C77.1208 54.1099 77.1071 54.0488 77.1065 53.987C77.1058 53.9249 77.1181 53.8635
77.1427 53.8063C77.1673 53.7494 77.2035 53.6977 77.2494 53.6548C77.295 53.6119 77.3492 53.5788
77.4087 53.557C77.4682 53.5355 77.5313 53.5261 77.5945 53.5294C77.658 53.5326 77.7198 53.5485
77.7767 53.5762C81.4053 55.1454 84.9163 56.9626 88.2833 59.0145C88.3671 59.0675 88.4313 59.1452
88.4662 59.2365C88.5011 59.3279 88.5051 59.428 88.4772 59.5216C88.4496 59.6152 88.3917 59.6974
88.3123 59.7562C88.2328 59.8154 88.1361 59.8476 88.0363 59.8486L88.0672 59.8365Z"
            fill="#0F2064" />
        <path
            d="M84.742 62.441C84.6825 62.4397 84.6236 62.4273 84.5688 62.4046C81.5505 61.3508 78.4195 60.6351
75.2363 60.2717C75.114 60.2555 75.0036 60.1927 74.9288 60.0969C74.854 60.0013 74.8211 59.8804
74.8377 59.7611C74.854 59.6415 74.9182 59.5336 75.0162 59.4605C75.114 59.3873 75.2377 59.3552
75.3597 59.3714C81.4478 60.1869 84.7789 61.5104 84.9212 61.5647C85.0192 61.6056 85.1 61.6781
85.1496
61.7704C85.1994 61.8627 85.215 61.969 85.1938 62.0711C85.1728 62.1735 85.1163 62.2654 85.0339
62.3314C84.9517 62.3977 84.8484 62.4341 84.742 62.4348V62.441Z"
            fill="#0F2064" />
        <path
            d="M83.6975 64.1265C83.6151 64.1265 83.5346 64.1051 83.4635 64.0645C83.3927 64.0238 83.3338 63.9653
83.2936 63.8954C83.2534 63.8252 83.2331 63.7459 83.2344 63.6653C83.2358 63.585 83.259 63.5064
83.3019 63.4378C84.538 61.474 88.1291 58.0599 90.3169 57.5704C90.3771 57.5545 90.4396 57.5506
90.5014 57.559C90.5629 57.5672 90.6224 57.5876 90.6756 57.6188C90.7291 57.65 90.7757 57.6916
90.8122
57.7407C90.8491 57.7898 90.8751 57.8457 90.8894 57.9052C90.9033 57.9643 90.9053 58.0258 90.8943
58.0859C90.8837 58.1457 90.8608 58.2029 90.8269 58.2539C90.7933 58.3053 90.7491 58.3492 90.6975
58.3833C90.646 58.4174 90.5882 58.4408 90.527 58.4525C88.7531 58.8513 85.286 61.9635 84.0991
63.8909C84.0596 63.9617 84.0017 64.0206 83.9309 64.0622C83.8604 64.1035 83.78 64.1259 83.6975
64.1265Z"
            fill="#0F2064" />
        <path
            d="M189.286 177.196C189.225 177.193 189.165 177.179 189.11 177.154C189.054 177.129 189.005 177.094
188.963 177.05C188.922 177.006 188.89 176.955 188.869 176.899C188.848 176.843 188.838 176.784
188.841 176.724C188.939 174.144 188.167 170.138 186.535 164.814C186.226 163.799 185.917 162.748
185.534 161.678C182.46 152.831 178.889 144.157 174.836 135.695C173.599 133.145 172.363 130.547
171.022 127.973C170.991 127.919 170.972 127.86 170.965 127.799C170.958 127.738 170.964 127.676
170.983 127.618C171.001 127.559 171.032 127.505 171.072 127.458C171.113 127.411 171.163 127.372
171.219 127.345C171.275 127.317 171.336 127.301 171.399 127.298C171.462 127.294 171.525 127.303
171.583 127.324C171.643 127.345 171.697 127.377 171.743 127.419C171.789 127.461 171.825 127.512
171.85 127.568C173.179 130.148 174.465 132.759 175.682 135.315C179.759 143.813 183.345 152.528
186.424 161.419C186.758 162.434 187.11 163.515 187.431 164.579C189.088 170.017 189.904 174.102
189.774 176.779C189.765 176.897 189.708 177.007 189.617 177.085C189.526 177.163 189.407 177.202
189.286 177.196Z"
            fill="#0F2064" />
        <path
            d="M173.593 132.124C173.485 132.124 173.38 132.087 173.297 132.019C173.213 131.952 173.157 131.858
173.137 131.754C173.117 131.65 173.135 131.542 173.188 131.45C173.241 131.357 173.325 131.286
173.427 131.248C176.084 130.251 176.98 130.003 177.017 129.991C177.131 129.97 177.249 129.992
177.348 130.052C177.447 130.112 177.518 130.206 177.55 130.315C177.58 130.425 177.569 130.541
177.516 130.642C177.463 130.743 177.373 130.821 177.265 130.861C177.265 130.861 176.356 131.115
173.76 132.07C173.708 132.098 173.652 132.116 173.593 132.124Z"
            fill="#0F2064" />
        <path
            d="M148.723 129.919C148.609 129.919 148.499 129.878 148.414 129.803C148.259 129.671 132.82 116.141
126.732 106.654C116.226 90.2669 102.085 70.5683 101.942 70.3687C101.903 70.3141 101.876 70.2517
101.865 70.1857C101.853 70.12 101.856 70.0524 101.874 69.9881C102.258 68.3828 102.356 66.7251
102.165 65.0873C101.948 62.542 102.079 59.9795 102.554 57.4677C102.584 57.3569 102.656 57.261
102.755 57.1996C102.855 57.1385 102.974 57.1164 103.089 57.1378C103.205 57.1593 103.307 57.2226
103.377 57.3153C103.446 57.4082 103.477 57.523 103.463 57.6371C103.002 60.077 102.875 62.5664
103.086 65.0392C103.272 66.704 103.183 68.3873 102.82 70.0242C104.248 72.0182 117.517 90.5691
127.542 106.177C133.043 114.751 146.337 126.722 148.698 128.813L152.777 123.924C152.856 123.835
152.968 123.78 153.088 123.77C153.208 123.76 153.328 123.796 153.421 123.871C153.514 123.946
153.574
124.053 153.588 124.17C153.602 124.287 153.568 124.405 153.494 124.498L149.112 129.755C149.073
129.802 149.024 129.841 148.969 129.869C148.913 129.897 148.853 129.914 148.791 129.919H148.723Z"
            fill="#0F2064" />
        <path
            d="M153.97 115.483C153.847 115.483 153.729 115.435 153.642 115.35C153.556 115.265 153.507 115.15
153.507 115.03C153.507 114.909 153.556 114.794 153.642 114.709C153.729 114.624 153.847 114.576
153.97 114.576C157.295 114.576 157.777 114.468 158.544 114.214L159.162 113.972C167.326 110.723
175.861 108.449 184.582 107.198C184.705 107.182 184.829 107.213 184.927 107.285C185.025 107.358
185.091 107.466 185.108 107.585C185.125 107.705 185.093 107.826 185.019 107.922C184.945 108.018
184.834 108.082 184.712 108.099C176.065 109.337 167.603 111.591 159.508 114.812L158.834
115.072C157.913 115.38 157.289 115.483 153.97 115.483Z"
            fill="#0F2064" />
        <path
            d="M153.105 124.661C152.987 124.666 152.871 124.627 152.782 124.551C152.692 124.475 152.636 124.369
152.624 124.254C152.612 124.139 152.646 124.024 152.718 123.932C152.79 123.84 152.895 123.779
153.012 123.761L157.957 122.788C156.72 121.404 153.439 117.954 151.158 117.138C151.086 117.112
151.021 117.068 150.97 117.011C150.92 116.954 150.884 116.886 150.868 116.812C150.868 116.752
150.515 115.265 150.336 114.002C150.327 113.943 150.331 113.883 150.346 113.825C150.362 113.767
150.388 113.713 150.425 113.665C150.462 113.617 150.508 113.577 150.561 113.547C150.613 113.517
150.671 113.497 150.732 113.489C150.792 113.48 150.854 113.484 150.913 113.498C150.972 113.513
151.028 113.54 151.076 113.576C151.125 113.612 151.166 113.656 151.197 113.708C151.228 113.759
151.248 113.816 151.257 113.875C151.393 114.818 151.622 115.912 151.72 116.383C154.811 117.688
159.02 122.576 159.205 122.794C159.257 122.854 159.292 122.927 159.307 123.005C159.322 123.083
159.315 123.163 159.288 123.237C159.261 123.312 159.215 123.378 159.154 123.43C159.093 123.481
159.019 123.516 158.94 123.531L153.192 124.655L153.105 124.661Z"
            fill="#0F2064" />
        <path
            d="M157.32 132.227C158.253 141.816 153.377 146.578 151.838 147.702C150.299 148.826 146.708 153.702
146.708 153.702L135.898 155.95C136.776 153.75 137.048 145.291 137.048 145.291C140.169 140.638
144.119 139.937 148.062 137.955C152.005 135.973 152.765 131.562 152.765 131.562C152.765 131.562
151.331 129.363 150.219 127.665L153.105 124.208L156.894 123.465C159.62 127.338 157.32 132.227
157.32
132.227Z"
            fill="#279C9C" />
        <path
            d="M153.105 124.661C153.054 124.67 153.002 124.67 152.951 124.661C148.456 123.212 143.883 122.002
139.254 121.036C139.156 121.017 139.067 120.967 139 120.894C138.933 120.821 138.892 120.729 138.884
120.631C138.884 120.577 138.358 115.313 134.699 108.685C134.647 108.58 134.638 108.459 134.675
108.347C134.712 108.236 134.791 108.142 134.896 108.087C135.002 108.032 135.125 108.018 135.24
108.049C135.356 108.081 135.454 108.155 135.515 108.256C137.638 111.968 139.078 116.015 139.767
120.214C144.823 121.235 150.404 122.873 152.66 123.592C152.66 122.341 152.66 119.41 151.912
117.362C151.881 117.252 151.894 117.134 151.948 117.032C152.002 116.931 152.094 116.853 152.204
116.815C152.315 116.776 152.436 116.781 152.543 116.826C152.651 116.871 152.736 116.955 152.784
117.06C153.803 119.882 153.575 124.063 153.569 124.238C153.562 124.354 153.511 124.464 153.424
124.543C153.338 124.623 153.224 124.668 153.105 124.667V124.661Z"
            fill="#0F2064" />
        <path
            d="M200.973 202.345C200.859 202.346 200.748 202.306 200.662 202.233C200.577 202.159 200.521 202.057
200.508 201.947C200.494 201.836 200.522 201.724 200.588 201.633C200.653 201.541 200.751 201.476
200.862 201.451C203.03 200.944 205.167 200.321 207.265 199.584C207.38 199.54 207.507 199.543 207.62
199.592C207.732 199.641 207.82 199.731 207.864 199.843C207.908 199.955 207.905 200.08 207.856
200.19C207.806 200.3 207.713 200.386 207.599 200.429C205.466 201.184 203.291 201.82 201.084
202.333L200.973 202.345Z"
            fill="white" />
        <path
            d="M97.962 86.3152C97.8643 86.3142 97.7692 86.2833 97.6904 86.2264C97.6116 86.1696 97.5534 86.0896
97.5239 85.9986C97.4946 85.9073 97.4953 85.8091 97.5262 85.7184C97.5571 85.6277 97.6166 85.5487
97.6964 85.4932C101.132 83.0831 104.736 80.9106 108.481 78.9913C108.536 78.9579 108.597 78.9354
108.66 78.9263C108.724 78.9169 108.789 78.9208 108.851 78.9374C108.913 78.954 108.972 78.9832
109.022 79.0229C109.071 79.0625 109.113 79.1119 109.142 79.1681C109.171 79.2241 109.188 79.2858
109.192 79.3485C109.196 79.4116 109.186 79.4743 109.163 79.5335C109.141 79.5923 109.106 79.6463
109.061 79.6911C109.016 79.7363 108.961 79.7717 108.902 79.7951C105.195 81.6946 101.628 83.845
98.228 86.2303C98.1505 86.2849 98.0574 86.3145 97.962 86.3152Z"
            fill="#0F2064" />
        <path
            d="M134.155 108.782C133.361 108.784 132.579 108.591 131.881 108.22C131.112 107.819 130.485 107.201
130.081 106.446C129.678 105.692 129.516 104.836 129.619 103.99C129.653 103.287 129.912 102.613
130.361 102.062C131.151 101.138 132.505 100.854 134.279 101.283C134.627 101.36 134.968 101.465
135.299 101.597C135.412 101.644 135.501 101.733 135.547 101.845C135.593 101.957 135.591 102.082
135.543 102.192C135.495 102.303 135.403 102.39 135.289 102.435C135.175 102.479 135.047 102.478
134.934 102.431C134.653 102.32 134.364 102.231 134.069 102.165C133.086 101.935 131.769 101.833
131.071 102.648C130.748 103.058 130.564 103.557 130.546 104.074C130.466 104.743 130.594 105.42
130.912 106.017C131.231 106.614 131.726 107.103 132.332 107.422C133.073 107.789 133.908 107.933
134.733 107.838C135.557 107.742 136.335 107.41 136.968 106.884C137.065 106.82 137.183 106.795
137.299 106.813C137.415 106.831 137.519 106.891 137.592 106.982C137.664 107.072 137.698 107.186
137.688 107.3C137.677 107.414 137.623 107.521 137.536 107.597C136.576 108.35 135.386 108.767
134.155
108.782Z"
            fill="#0F2064" />
        <path
            d="M149.779 82.877C145.243 85.6082 132.771 89.8017 132.771 89.8017C137.406 95.4637 134.161 101.724
134.161 101.724C133.154 101.488 131.578 101.337 130.7 102.358C121.844 94.5029 123.383 90.6237
124.785 88.8228C126.022 87.2639 127.758 85.8016 128.976 82.291C131.318 75.5594 136.059 75.5051
135.954 77.8979C142.715 71.1663 147.184 73.3661 146.331 76.0853C153.173 72.4414 154.718 79.9102
149.779 82.877Z"
            fill="#0F2064" />
        <path
            d="M130.707 102.811C130.592 102.81 130.482 102.767 130.398 102.691C123.741 96.7628 121.745 92.0074
124.427 88.5448C124.693 88.2065 124.977 87.874 125.28 87.5298C126.744 85.9788 127.858 84.1446
128.55
82.1457C130.293 77.1364 133.321 75.7586 134.916 76.0489C135.198 76.0911 135.466 76.1987 135.697
76.3625C135.928 76.5266 136.116 76.7421 136.244 76.9914C140.639 72.8763 144.075 72.4775 145.726
73.4324C146.07 73.6216 146.36 73.8933 146.567 74.2219C146.775 74.5508 146.893 74.9256 146.912
75.3117C149.916 73.9882 151.826 74.8703 152.629 76.224C153.785 78.1697 153.018 81.457 150.027
83.2576C146.022 85.6745 136.109 89.137 133.531 90.0192C137.716 95.7052 134.613 101.857 134.582
101.923C134.536 102.014 134.459 102.087 134.365 102.13C134.27 102.173 134.164 102.183 134.063
102.159C133.08 101.929 131.763 101.833 131.065 102.642C131.025 102.689 130.977 102.728 130.921
102.756C130.866 102.784 130.806 102.801 130.744 102.805L130.707 102.811ZM134.458 76.8887C133.148
76.8887 130.855 78.2967 129.427 82.4116C128.695 84.5178 127.523 86.452 125.985 88.0918C125.694
88.4301 125.416 88.7503 125.163 89.0766C122.851 92.0434 124.712 96.2974 130.725 101.712C131.473
101.107 132.579 100.932 133.927 101.18C134.495 99.8688 136.306 94.7808 132.443 90.0614C132.397
90.0049 132.365 89.9379 132.35 89.8667C132.335 89.7952 132.338 89.7214 132.359 89.6516C132.379
89.5817 132.417 89.5176 132.468 89.4647C132.52 89.412 132.583 89.372 132.653 89.3486C132.777
89.3061
145.132 85.1187 149.57 82.4659C152.042 80.9675 152.771 78.2061 151.857 76.6589C151.01 75.233
149.044
75.1606 146.597 76.4717C146.516 76.5159 146.423 76.5351 146.331 76.527C146.239 76.5192 146.151
76.4841 146.079 76.4269C146.007 76.3697 145.954 76.2926 145.928 76.2058C145.901 76.1191 145.902
76.0264 145.929 75.94C146.054 75.6244 146.06 75.2759 145.947 74.9564C145.834 74.6366 145.609
74.3665
145.311 74.1936C143.76 73.2933 140.367 74.1936 136.356 78.194C136.29 78.2584 136.206 78.3019
136.114
78.3188C136.022 78.3357 135.927 78.3253 135.842 78.2889C135.756 78.2522 135.684 78.1914 135.635
78.1141C135.585 78.0367 135.561 77.9467 135.565 77.8554C135.578 77.7452 135.57 77.633 135.539
77.5261C135.508 77.4188 135.456 77.3191 135.385 77.232C135.314 77.1448 135.226 77.072 135.127
77.0184C135.027 76.9648 134.917 76.931 134.804 76.919C134.691 76.8962 134.574 76.8861 134.458
76.8887Z"
            fill="#0F2064" />
        <path
            d="M137.889 94.8475C137.841 94.8543 137.793 94.8543 137.746 94.8475C137.63 94.8101 137.534 94.7295
137.478 94.6232C137.423 94.5166 137.413 94.3931 137.45 94.2793C137.605 93.6627 137.902 93.0881
138.315 92.5986C138.73 92.1091 139.251 91.7168 139.841 91.4516C140.714 91.084 141.695 91.0495
142.592 91.3547C142.649 91.3794 142.701 91.4155 142.744 91.4603C142.787 91.5052 142.82 91.5579
142.841 91.6157C142.863 91.6736 142.872 91.735 142.868 91.7961C142.864 91.8575 142.848 91.9173
142.82 91.9723C142.792 92.0272 142.753 92.0759 142.705 92.1156C142.657 92.1553 142.601 92.1852
142.541 92.203C142.481 92.2209 142.418 92.2268 142.355 92.2203C142.293 92.2134 142.232 92.1946
142.178 92.1644C141.506 91.9827 140.79 92.0317 140.151 92.3035C139.694 92.5193 139.292 92.8303
138.971 93.2145C138.651 93.5987 138.421 94.0466 138.296 94.527C138.269 94.6144 138.216 94.6918
138.143 94.749C138.07 94.8062 137.981 94.8403 137.889 94.8475Z"
            fill="#0F2064" />
        <path
            d="M151.334 96.8035C151.864 96.5984 152.055 95.8437 151.761 95.1175C151.467 94.3911 150.799 93.9689
150.269 94.174C149.74 94.3791 149.548 95.1338 149.842 95.8599C150.136 96.586 150.804 97.0086
151.334
96.8035Z"
            fill="#0F2064" />
        <path
            d="M144.652 99.2457C145.303 98.9938 145.538 98.0678 145.178 97.1772C144.818 96.2867 143.998 95.7689
143.347 96.0205C142.697 96.2724 142.461 97.1984 142.822 98.0889C143.182 98.9795 144.002 99.4973
144.652 99.2457Z"
            fill="#0F2064" />
        <path
            d="M145.589 90.8893C145.506 90.8893 145.423 90.8675 145.352 90.8259C145.279 90.784 145.221 90.7242
145.181 90.6523C145.141 90.5805 145.122 90.4992 145.125 90.4177C145.128 90.3361 145.154 90.2568
145.2 90.1882C145.443 89.8255 145.767 89.5209 146.146 89.296C146.526 89.0711 146.952 88.9323
147.394
88.8891C147.806 88.8358 148.225 88.8712 148.621 88.9934C149.017 89.1156 149.381 89.3214 149.687
89.596C149.747 89.6308 149.798 89.6779 149.836 89.7341C149.875 89.7907 149.9 89.8547 149.91
89.9217C149.92 89.989 149.914 90.0575 149.893 90.1222C149.873 90.1869 149.837 90.246 149.79
90.2958C149.742 90.3452 149.684 90.3839 149.62 90.4086C149.555 90.4333 149.486 90.4433 149.416
90.4381C149.347 90.4329 149.28 90.4128 149.22 90.379C149.16 90.3452 149.108 90.2987 149.069
90.2428C148.861 90.0614 148.615 89.9269 148.348 89.8489C148.081 89.7705 147.799 89.7501 147.524
89.7894C147.219 89.8177 146.924 89.9119 146.661 90.0657C146.398 90.2191 146.173 90.4284 146.003
90.6777C145.96 90.7456 145.898 90.8012 145.825 90.8382C145.753 90.8753 145.671 90.8928 145.589
90.8893Z"
            fill="#0F2064" />
        <path
            d="M147.827 102.002C147.711 102.001 147.598 101.958 147.513 101.881C147.428 101.804 147.375 101.698
147.366 101.585C147.357 101.472 147.391 101.359 147.463 101.269C147.535 101.18 147.638 101.12
147.753 101.101C150.077 100.739 150.342 100.334 150.348 100.328C150.348 99.8444 149.73 97.9108
146.856 95.4939C146.811 95.4543 146.773 95.4062 146.746 95.3522C146.719 95.2986 146.704 95.2401
146.7 95.1803C146.696 95.1205 146.705 95.0607 146.724 95.0041C146.744 94.9476 146.776 94.8952
146.816 94.8504C146.857 94.8055 146.906 94.7688 146.961 94.7428C147.016 94.7165 147.076 94.7012
147.137 94.6973C147.198 94.6937 147.259 94.7018 147.317 94.7213C147.375 94.7408 147.429 94.7714
147.474 94.8111C150.484 97.3671 151.282 99.5122 151.276 100.376C151.276 101.144 150.268 101.627
147.913 101.996L147.827 102.002Z"
            fill="#0F2064" />
        <path
            d="M148.735 110.781H148.661C146.72 110.479 145.355 109.742 144.613 108.582C144.32 108.089 144.13
107.544 144.053 106.979C143.977 106.414 144.016 105.839 144.168 105.289C144.189 105.219 144.227
105.156 144.279 105.104C144.33 105.052 144.394 105.013 144.464 104.99C144.534 104.967 144.609
104.96
144.682 104.971C144.756 104.982 144.825 105.01 144.885 105.053C145.796 105.665 146.869 106.009
147.974 106.043C149.079 106.077 150.171 105.801 151.121 105.246C151.228 105.191 151.353 105.179
151.469 105.212C151.586 105.246 151.684 105.323 151.743 105.426C151.802 105.53 151.817 105.652
151.785 105.766C151.753 105.88 151.677 105.978 151.572 106.038C150.573 106.608 149.442 106.919
148.286 106.942C147.13 106.965 145.987 106.7 144.965 106.171C144.907 106.849 145.069 107.528
145.429
108.111C146.047 109.035 147.171 109.627 148.834 109.887C148.949 109.906 149.052 109.965 149.124
110.055C149.195 110.145 149.23 110.257 149.221 110.371C149.211 110.484 149.159 110.59 149.073
110.667C148.988 110.744 148.876 110.787 148.76 110.787L148.735 110.781Z"
            fill="#0F2064" />
        <path
            d="M150.348 108.54C150.23 108.54 150.117 108.496 150.031 108.418C149.945 108.339 149.892 108.231
149.884 108.117L149.736 106.159C149.732 106.099 149.739 106.039 149.758 105.983C149.777 105.926
149.808 105.874 149.848 105.828C149.888 105.783 149.936 105.746 149.991 105.72C150.045 105.693
150.105 105.677 150.166 105.672C150.227 105.668 150.288 105.675 150.346 105.694C150.403 105.713
150.457 105.743 150.503 105.782C150.549 105.821 150.587 105.868 150.615 105.921C150.642 105.975
150.659 106.033 150.663 106.092L150.811 108.05C150.82 108.169 150.78 108.287 150.7 108.378C150.62
108.468 150.507 108.524 150.385 108.534L150.348 108.54Z"
            fill="#0F2064" />
        <path
            d="M147.672 114.884C146.27 114.857 144.875 114.691 143.507 114.389C143.447 114.377 143.39 114.354
143.34 114.321C143.29 114.287 143.246 114.244 143.212 114.195C143.179 114.145 143.156 114.089
143.144 114.031C143.133 113.973 143.133 113.913 143.145 113.854C143.157 113.796 143.181 113.74
143.215 113.691C143.249 113.642 143.293 113.6 143.344 113.567C143.395 113.534 143.451 113.511
143.511 113.5C143.571 113.488 143.632 113.489 143.692 113.501C148.018 114.365 152.499 114.709
156.096 108.709C157.116 107.011 155.373 91.7353 146.282 84.8708C146.233 84.8344 146.193 84.7889
146.163 84.7372C146.132 84.6855 146.113 84.6283 146.105 84.5691C146.097 84.51 146.101 84.4499
146.117 84.392C146.134 84.3345 146.161 84.2805 146.198 84.2334C146.236 84.1863 146.282 84.1466
146.335 84.117C146.388 84.0874 146.446 84.0683 146.507 84.0605C146.567 84.053 146.629 84.0572
146.688 84.0728C146.747 84.0884 146.802 84.1154 146.85 84.1518C156.121 91.1613 158.266 106.884
156.9
109.162C154.18 113.7 150.905 114.884 147.672 114.884Z"
            fill="#0F2064" />
        <path
            d="M175.015 272.397C171.251 272.397 166.27 272.282 160.287 272.149C155.343 272.04 149.78 271.913
143.76 271.829C143.699 271.828 143.639 271.816 143.583 271.792C143.528 271.768 143.477 271.734
143.434 271.692C143.392 271.649 143.358 271.599 143.336 271.544C143.313 271.488 143.302 271.429
143.303 271.37C143.308 271.25 143.359 271.138 143.446 271.054C143.534 270.971 143.651 270.924
143.773 270.922C149.792 271.007 155.38 271.134 160.312 271.249C171.233 271.496 179.286 271.678
181.857 271.182C181.536 268.989 180.102 258.529 180.621 251.508C180.632 251.389 180.69 251.279
180.782 251.201C180.874 251.123 180.994 251.084 181.115 251.091C181.237 251.1 181.351 251.156
181.43
251.246C181.51 251.337 181.55 251.455 181.542 251.574C180.924 259.309 182.778 271.333 182.778
271.454C182.795 271.561 182.772 271.671 182.713 271.763C182.653 271.855 182.563 271.924 182.457
271.956C181.4 272.282 178.835 272.397 175.015 272.397Z"
            fill="#0F2064" />
        <path
            d="M174.65 102.002H174.595C174.472 101.988 174.361 101.928 174.284 101.834C174.208 101.74 174.173
101.62 174.187 101.5C175.342 91.9892 177.098 60.6523 177.19 54.8152C177.277 49.5279 178.136 34.6147
178.309 31.6238C172.876 32.0407 164.514 30.9289 154.891 29.6418C143.074 28.0707 129.687 26.2821
117.19 26.6205C108.537 26.8562 97.0597 27.829 85.9596 28.814C75.6564 29.7083 65.922 30.5482 58.6415
30.7899C43.3572 31.2975 29.9454 31.6721 8.34439 31.5513C8.22145 31.5513 8.10353 31.5035 8.0166
31.4185C7.92966 31.3335 7.88086 31.2183 7.88086 31.0981C7.88086 30.9779 7.92966 30.8626 8.0166
30.7776C8.10353 30.6926 8.22145 30.6449 8.34439 30.6449C29.9268 30.7718 43.3263 30.3911 58.6046
29.8895C65.8605 29.6479 75.5823 28.8079 85.8728 27.9136C96.9978 26.9529 108.488 25.9558 117.159
25.7202C129.755 25.3757 143.185 27.1644 155.033 28.7415C164.922 30.0588 173.476 31.2008 178.779
30.6691C178.846 30.6619 178.914 30.6691 178.978 30.6902C179.041 30.7114 179.1 30.7459 179.148
30.7913C179.197 30.8367 179.236 30.8921 179.26 30.9534C179.285 31.0147 179.296 31.0806 179.292
31.1464C179.292 31.3216 178.235 48.978 178.142 54.8213C178.049 60.6643 176.288 92.0616 175.132
101.597C175.12 101.712 175.063 101.818 174.973 101.893C174.884 101.968 174.768 102.007 174.65
102.002Z"
            fill="#0F2064" />
        <path
            d="M75.9347 20.1609C86.72 19.9192 103.358 19.8346 110.181 19.8104C111.023 19.8071 111.834 20.1178
112.45 20.6792C113.065 21.2406 113.439 22.0104 113.494 22.8317C113.809 26.9648 114.359 34.4031
114.588 38.8326C114.611 39.2701 114.543 39.7076 114.389 40.1187C114.234 40.5299 113.995 40.9059
113.687 41.2241C113.379 41.5424 113.008 41.7959 112.597 41.9698C112.185 42.1433 111.742 42.2334
111.294 42.2343C103.741 42.2343 85.4836 42.3855 76.2253 42.9897C75.7695 43.0199 75.3124 42.9572
74.8825 42.8061C74.453 42.6549 74.0597 42.4183 73.7283 42.1111C73.3968 41.804 73.1339 41.4331
72.9563 41.0217C72.7785 40.6102 72.69 40.1672 72.6964 39.7209C72.7456 35.491 72.8074 28.3486
72.6964
23.4964C72.6831 23.069 72.7565 22.6434 72.9124 22.2439C73.0684 21.8445 73.3037 21.4792 73.6049
21.1691C73.9058 20.859 74.2668 20.6102 74.6668 20.4372C75.0667 20.2642 75.4976 20.1703 75.9347
20.1609Z"
            fill="#0F2064" />
        <path
            d="M100.57 28.7352C100.499 28.7345 100.43 28.718 100.366 28.6869C99.26 28.1491 97.1958 24.7532
96.1882 21.188C95.496 18.771 95.0386 15.2723 96.763 12.6317C98.8767 9.3929 99.4332 5.76732 98.1413
3.56782C97.0908 1.80339 94.8534 0.957421 91.6702 1.15079C88.2587 1.32602 86.8867 3.06024 86.3365
4.48024C85.9139 5.71993 85.8421 7.04821 86.1283 8.3246C86.4143 9.60098 87.0479 10.7781 87.9621
11.7314C88.0063 11.7734 88.0416 11.8236 88.0658 11.879C88.0904 11.9344 88.1034 11.994 88.1041
12.0543C88.1051 12.1146 88.0938 12.1745 88.0708 12.2305C88.0482 12.2866 88.0143 12.3377 87.9711
12.3809C87.9282 12.4242 87.877 12.4587 87.8202 12.4826C87.7636 12.5065 87.7028 12.5192 87.641
12.52C87.5791 12.5209 87.518 12.5098 87.4608 12.4875C87.4033 12.4652 87.3511 12.4321 87.3069
12.39C86.2597 11.3152 85.5333 9.98058 85.2061 8.53092C84.8793 7.08124 84.9648 5.57175 85.4528
4.16604C86.3674 1.79734 88.5429 0.413589 91.6333 0.250439C96.1204 0.0208203 98.0918 1.69462 98.9508
3.14484C100.434 5.63438 99.8903 9.54998 97.5542 13.1212C96.009 15.4838 96.4478 18.6803 97.0904
20.9765C98.135 24.6746 100.181 27.6234 100.799 27.9074C100.892 27.9533 100.967 28.0287 101.011
28.1213C101.055 28.2139 101.066 28.3184 101.042 28.4178C101.017 28.5171 100.959 28.6055 100.877
28.6686C100.795 28.7317 100.693 28.7658 100.589 28.7654L100.57 28.7352Z"
            fill="#0F2064" />
        <path
            d="M86.6332 28.7352C86.5537 28.7349 86.4753 28.7144 86.4061 28.6759C86.3366 28.6374 86.2788 28.582
86.2379 28.5152C86.1967 28.4484 86.1741 28.3723 86.1721 28.2945C86.1697 28.2165 86.188 28.1394
86.2253 28.0705C88.1412 24.4812 89.3589 15.8645 88.2588 13.665C88.2319 13.6114 88.2163 13.5532
88.2123 13.4937C88.2086 13.4342 88.217 13.3745 88.2366 13.3181C88.2565 13.2618 88.2874 13.2097
88.328 13.1651C88.3682 13.1204 88.4171 13.0839 88.4719 13.0577C88.5268 13.0315 88.5863 13.0161
88.6471 13.0124C88.708 13.0087 88.7692 13.0168 88.8267 13.0362C88.8845 13.0555 88.9377 13.0858
88.9833 13.1252C89.0291 13.1647 89.0664 13.2126 89.0933 13.2662C90.3293 15.6832 89.093 24.6504
87.0474 28.4875C87.0085 28.5621 86.9493 28.6248 86.8762 28.6686C86.8031 28.7123 86.719 28.7354
86.6332 28.7352Z"
            fill="#0F2064" />
        <path
            d="M100.57 28.7351C100.5 28.7344 100.43 28.7179 100.367 28.6868C99.3283 28.1792 97.3197 24.9403
96.2874 21.5263C96.2718 21.4679 96.2685 21.4072 96.2771 21.3476C96.2854 21.2879 96.3061 21.2305
96.3373 21.1786C96.3686 21.1267 96.4101 21.0813 96.4593 21.0451C96.5085 21.0088 96.5647 20.9824
96.6242 20.9673C96.684 20.9522 96.7459 20.9488 96.807 20.9572C96.8679 20.9656 96.9267 20.9857
96.9799 21.0162C97.0328 21.0468 97.0793 21.0873 97.1166 21.1354C97.1535 21.1835 97.1804 21.2383
97.196 21.2966C98.2406 24.7651 100.15 27.587 100.799 27.9072C100.892 27.9532 100.967 28.0285
101.011
28.1212C101.055 28.2138 101.066 28.3183 101.042 28.4176C101.017 28.517 100.959 28.6054 100.877
28.6685C100.795 28.7316 100.693 28.7657 100.589 28.7653L100.57 28.7351Z"
            fill="white" />
        <path
            d="M86.6332 28.7352C86.5537 28.7348 86.4753 28.7144 86.4061 28.6758C86.3366 28.6373 86.2788 28.5819
86.2379 28.5151C86.1967 28.4483 86.1741 28.3723 86.1721 28.2944C86.1697 28.2165 86.188 28.1394
86.2253 28.0705C87.1857 26.0106 87.8413 23.8274 88.1721 21.5868C88.1927 21.4682 88.2605 21.3624
88.3609 21.2927C88.461 21.223 88.5856 21.1951 88.707 21.2151C88.828 21.2352 88.9364 21.3015 89.0075
21.3995C89.079 21.4976 89.1076 21.6192 89.087 21.7378C88.7392 24.0711 88.0524 26.3439 87.0474
28.4874C87.0085 28.5621 86.9493 28.6248 86.8762 28.6685C86.8031 28.7122 86.719 28.7353 86.6332
28.7352Z"
            fill="white" />
        <path
            d="M182.178 108.407C182.055 108.407 181.938 108.359 181.85 108.274C181.764 108.189 181.715 108.074
181.715 107.954C181.77 89.6386 182.246 71.9155 182.475 68.7553C182.562 67.577 182.636 65.0148
182.722 61.7639C182.908 55.238 183.155 46.3011 183.748 39.2129C183.759 39.0933 183.818 38.9825
183.911 38.9044C184.005 38.8268 184.126 38.7878 184.249 38.7962C184.31 38.8008 184.369 38.817
184.424 38.844C184.478 38.8713 184.526 38.9087 184.566 38.9542C184.606 38.9997 184.636 39.0523
184.655 39.1092C184.673 39.1661 184.68 39.2259 184.675 39.2854C184.057 46.3492 183.835 55.2741
183.655 61.788C183.563 65.0512 183.488 67.6251 183.402 68.8216C183.173 71.9698 182.698 89.6626
182.642 107.96C182.64 108.079 182.591 108.192 182.504 108.276C182.417 108.36 182.3 108.407 182.178
108.407Z"
            fill="#0F2064" />
        <path
            d="M109.18 271.962C91.0154 271.81 72.9309 270.898 56.9791 270.088C40.4153 269.249 26.1135 268.529
16.8736 268.94C16.8126 268.945 16.7513 268.938 16.6933 268.919C16.6354 268.899 16.5822 268.869
16.537 268.829C16.4917 268.788 16.4554 268.739 16.4304 268.685C16.4054 268.63 16.3921 268.571
16.3915 268.511C16.3865 268.392 16.4297 268.276 16.5119 268.187C16.594 268.099 16.7085 268.046
16.8303 268.04C26.1011 267.629 40.4399 268.348 57.0037 269.188C72.9496 269.992 90.9968 270.91
109.167 271.061C109.29 271.061 109.408 271.109 109.495 271.194C109.582 271.279 109.631 271.394
109.631 271.514C109.631 271.635 109.582 271.75 109.495 271.835C109.408 271.92 109.29 271.968
109.167
271.968L109.18 271.962Z"
            fill="#0F2064" />
        <path
            d="M172.74 267.073C172.66 267.079 172.579 267.067 172.503 267.039C172.427 267.01 172.359 266.967
172.302 266.91C171.066 266.813 168.223 266.65 161.795 266.354C161.673 266.348 161.558 266.295
161.476 266.207C161.394 266.119 161.351 266.002 161.356 265.883C161.365 265.765 161.42 265.655
161.51 265.575C161.6 265.495 161.717 265.452 161.838 265.454C167.889 265.732 170.886 265.871
172.376
266.016C172.549 264.807 172.666 260.704 172.456 253.804C172.455 253.744 172.465 253.685 172.487
253.629C172.508 253.574 172.541 253.523 172.583 253.48C172.625 253.436 172.675 253.402 172.731
253.377C172.786 253.353 172.847 253.34 172.907 253.338C172.969 253.334 173.03 253.343 173.089
253.363C173.147 253.383 173.2 253.415 173.244 253.457C173.289 253.498 173.325 253.548 173.349
253.604C173.372 253.659 173.384 253.719 173.383 253.78C173.5 257.689 173.618 263.901 173.266
266.137C173.841 266.251 173.834 266.384 173.834 266.602C173.834 267.055 173.42 267.073 172.74
267.073Z"
            fill="#0F2064" />
        <path
            d="M67.3685 264.922C47.3745 264.922 31.5957 264.124 9.80316 261.248C9.74272 261.24 9.68441 261.221
9.63165 261.191C9.57889 261.161 9.53271 261.121 9.49568 261.073C9.42091 260.978 9.38813 260.857
9.40452 260.737C9.42091 260.618 9.48514 260.51 9.58308 260.437C9.68102 260.364 9.80466 260.332
9.9268 260.348C40.9839 264.445 59.8223 264.318 96.1451 263.671C100.354 263.599 102.981 263.502
105.082 263.423C109.056 263.278 111.263 263.2 118.889 263.46C118.95 263.462 119.01 263.476 119.066
263.501C119.121 263.526 119.171 263.561 119.212 263.605C119.253 263.649 119.285 263.7 119.306
263.756C119.328 263.812 119.337 263.872 119.335 263.931C119.327 264.05 119.272 264.162 119.182
264.243C119.093 264.324 118.975 264.368 118.853 264.366C111.238 264.112 109.063 264.191 105.113
264.33C102.999 264.408 100.373 264.499 96.1574 264.578C85.2552 264.777 75.9224 264.922 67.3685
264.922Z"
            fill="#0F2064" />
        <path
            d="M8.96281 257.532C8.85274 257.532 8.74632 257.494 8.66251 257.424C8.57873 257.354 8.52305 257.257
8.50543 257.151C0.829214 212.285 0.334776 198.623 0.0195677 174.368C-0.202931 157.291 2.3249 128.94
4.56225 103.929C5.56969 92.6717 6.5153 82.0368 7.03445 74.2118C7.90593 61.069 7.03445 54.4888
6.22481 48.6878C5.55114 43.7509 4.98871 39.4911 5.73655 32.4272C5.7405 32.3661 5.75706 32.3065
5.78525 32.2518C5.81341 32.1972 5.8526 32.1487 5.90044 32.1093C5.94828 32.0699 6.00384 32.0403
6.06368 32.0224C6.12352 32.0045 6.18645 31.9987 6.24865 32.0052C6.31088 32.0117 6.37109 32.0305
6.42571 32.0604C6.4803 32.0903 6.52814 32.1307 6.56633 32.1792C6.60453 32.2277 6.63229 32.2832
6.64795 32.3424C6.66361 32.4017 6.66683 32.4634 6.65746 32.5238C5.90962 39.4788 6.48439 43.6905
7.14572 48.573C7.943 54.4222 8.84536 61.045 7.96155 74.2781C7.44237 82.1337 6.49057 92.7504 5.48934
104.014C3.25816 129.006 0.730324 157.334 0.952824 174.362C1.26803 198.598 1.76248 212.231 9.42634
257.036C9.44596 257.155 9.4166 257.276 9.34476 257.374C9.27288 257.471 9.16441 257.537 9.04313
257.556L8.96281 257.532Z"
            fill="#0F2064" />
        <path
            d="M24.0186 72.5018C24.0186 76.0609 26.9667 77.7348 30.607 77.7348C34.2472 77.7348 37.1954 76.0609
37.1954 72.5018C37.1954 68.9428 34.2472 66.6647 30.607 66.6647C26.9667 66.6647 24.0186 68.9428
24.0186 72.5018Z"
            fill="#279C9C" />
        <path
            d="M30.6068 73.4018C30.5339 73.4022 30.4619 73.3856 30.3967 73.3537C30.2978 73.3053 27.9616 72.0786
24.8033 65.0512C24.7648 64.9433 24.7693 64.8253 24.8159 64.7207C24.8626 64.6157 24.9479 64.5322
25.0549 64.4863C25.1619 64.4405 25.2827 64.436 25.393 64.4733C25.5034 64.511 25.5952 64.5877
25.6501
64.6885C27.9801 69.873 29.8158 71.7461 30.5142 72.3263C31.7997 70.707 37.3747 63.9029 43.2892
59.5462C43.3876 59.4741 43.5113 59.4432 43.633 59.4601C43.7546 59.4773 43.8644 59.5407 43.9382
59.6369C44.012 59.7331 44.0435 59.8541 44.0263 59.973C44.009 60.092 43.9438 60.1992 43.8454
60.2714C37.2324 65.1416 31.0333 73.1421 30.9715 73.2266C30.9283 73.2812 30.873 73.3251 30.8099
73.3554C30.7467 73.3859 30.6773 73.4018 30.6068 73.4018Z"
            fill="#0F2064" />
        <path
            d="M23.4004 104.823C23.4004 108.383 26.9665 111.265 30.6069 111.265C34.2471 111.265 36.5772 108.383
36.5772 104.823C36.5772 101.264 34.2471 98.3821 30.6069 98.3821C26.9665 98.3821 23.4004 101.264
23.4004 104.823Z"
            fill="#279C9C" />
        <path
            d="M30.6068 105.718C30.5339 105.718 30.4619 105.701 30.3967 105.67C30.2978 105.621 27.9616 104.394
24.8033 97.3671C24.7648 97.2591 24.7693 97.1412 24.8159 97.0362C24.8626 96.9315 24.9479 96.848
25.0549 96.8022C25.1619 96.7563 25.2827 96.7518 25.393 96.7892C25.5034 96.8269 25.5952 96.9036
25.6501 97.0043C27.9801 102.189 29.8158 104.062 30.5142 104.642C31.7997 103.023 37.3747 96.2187
43.2892 91.8621C43.3381 91.8263 43.3933 91.8003 43.4525 91.7857C43.5113 91.7707 43.5728 91.7675
43.633 91.7759C43.6931 91.7844 43.7513 91.8042 43.8035 91.8348C43.856 91.865 43.9016 91.905 43.9382
91.9527C43.9747 92.0002 44.0013 92.0545 44.0166 92.112C44.0316 92.1699 44.0349 92.2297 44.0263
92.2888C44.0176 92.3477 43.9973 92.4042 43.9664 92.4556C43.9352 92.5066 43.8943 92.5514 43.8454
92.5872C37.2447 97.4334 31.0642 105.458 30.9777 105.537C30.9345 105.593 30.8785 105.638 30.8142
105.67C30.7498 105.701 30.6788 105.718 30.6068 105.718Z"
            fill="#0F2064" />
        <path
            d="M24.0186 136.535C24.0186 138.243 24.7127 139.882 25.9482 141.09C27.1838 142.298 28.8596 142.976
30.607 142.976C34.2472 142.976 37.1954 140.698 37.1954 137.139C37.1994 136.291 37.0322 135.45
36.7027 134.665C36.3736 133.88 35.8889 133.167 35.2768 132.565C34.6645 131.964 33.9367 131.486
33.1354 131.161C32.3341 130.835 31.4748 130.668 30.607 130.668C26.9667 130.668 24.0186 132.976
24.0186 136.535Z"
            fill="#279C9C" />
        <path
            d="M30.6068 138.04C30.5339 138.04 30.4619 138.023 30.3967 137.991C30.2978 137.943 27.9616 136.716
24.8033 129.689C24.7648 129.581 24.7693 129.463 24.8159 129.358C24.8626 129.254 24.9479 129.17
25.0549 129.124C25.1619 129.078 25.2827 129.074 25.393 129.111C25.5034 129.149 25.5952 129.226
25.6501 129.326C27.9801 134.511 29.8158 136.384 30.5142 136.964C31.7997 135.345 37.3747 128.541
43.2892 124.184C43.3381 124.148 43.3933 124.122 43.4525 124.108C43.5113 124.093 43.5728 124.09
43.633 124.098C43.6931 124.106 43.7513 124.126 43.8035 124.157C43.856 124.187 43.9016 124.227
43.9382 124.275C43.9747 124.322 44.0013 124.377 44.0166 124.434C44.0316 124.492 44.0349 124.552
44.0263 124.611C44.0176 124.67 43.9973 124.726 43.9664 124.778C43.9352 124.829 43.8943 124.873
43.8454 124.909C37.2447 129.767 31.0642 137.774 30.9777 137.858C30.9345 137.915 30.8785 137.96
30.8142 137.992C30.7498 138.023 30.6788 138.04 30.6068 138.04Z"
            fill="#0F2064" />
        <path
            d="M24.6301 164.633C23.1283 167.872 25.1617 171.945 28.4744 173.413C30.0669 174.118 31.8806 174.176
33.5168 173.574C35.1528 172.971 36.4769 171.758 37.1984 170.201C37.9194 168.645 37.9786 166.871
37.3626 165.272C36.7466 163.672 35.5059 162.377 33.9134 161.672C30.6005 160.204 26.1196 161.394
24.6301 164.633Z"
            fill="#279C9C" />
        <path
            d="M30.6068 168.313C30.5339 168.314 30.4618 168.297 30.3967 168.265C30.2978 168.216 27.9616 166.99
24.8033 159.962C24.7648 159.854 24.7693 159.736 24.8159 159.632C24.8626 159.527 24.9479 159.443
25.0549 159.397C25.1619 159.352 25.2827 159.347 25.393 159.384C25.5034 159.422 25.5952 159.499
25.6501 159.6C27.9801 164.784 29.8158 166.657 30.5142 167.237C31.7997 165.618 37.3747 158.814
43.2892 154.457C43.3876 154.385 43.5113 154.354 43.633 154.371C43.7546 154.388 43.8644 154.452
43.9382 154.548C44.012 154.644 44.0435 154.765 44.0263 154.884C44.009 155.003 43.9438 155.11
43.8454
155.183C37.2447 160.047 31.0642 168.053 30.9777 168.132C30.9345 168.188 30.8785 168.234 30.8142
168.265C30.7498 168.297 30.6788 168.313 30.6068 168.313Z"
            fill="#0F2064" />
        <path
            d="M23.1717 197.535C24.5438 200.828 27.8195 202.641 31.2064 201.3C34.5932 199.958 35.6255 196.423
34.2535 193.13C32.8813 189.837 29.6056 188.024 26.2187 189.366C22.8318 190.707 21.7934 194.242
23.1717 197.535Z"
            fill="#279C9C" />
        <path
            d="M28.7031 196.23C28.6301 196.23 28.5581 196.214 28.493 196.181C28.3941 196.133 26.0578 194.906
22.8996 187.879C22.8696 187.824 22.8515 187.763 22.8466 187.701C22.8417 187.639 22.85 187.576
22.8709 187.517C22.8918 187.458 22.9251 187.404 22.9684 187.358C23.0118 187.312 23.0643 187.276
23.1228 187.251C23.1813 187.226 23.2444 187.213 23.3083 187.213C23.3722 187.213 23.4353 187.226
23.4939 187.25C23.5524 187.275 23.605 187.312 23.6485 187.358C23.6919 187.403 23.7253 187.457
23.7463 187.516C26.0764 192.701 27.912 194.574 28.6104 195.154C29.8959 193.535 35.4706 186.731
41.3855 182.374C41.4344 182.339 41.4896 182.313 41.5488 182.298C41.6076 182.283 41.6691 182.28
41.7293 182.288C41.7894 182.296 41.8476 182.316 41.8998 182.347C41.9523 182.377 41.9979 182.417
42.0345 182.465C42.071 182.512 42.0976 182.566 42.1126 182.624C42.1279 182.682 42.1312 182.742
42.1226 182.801C42.1139 182.86 42.0936 182.916 42.0624 182.967C42.0315 183.019 41.9906 183.063
41.9417 183.099C35.3347 187.963 29.1296 195.97 29.0677 196.055C29.0246 196.109 28.9693 196.153
28.9061 196.183C28.8429 196.214 28.7735 196.23 28.7031 196.23Z"
            fill="#0F2064" />
        <path
            d="M23.7095 223.246C23.7095 226.806 26.6576 229.083 30.2979 229.083C33.9382 229.083 36.8864 226.806
36.8864 223.246C36.8864 219.687 34.5562 216.805 30.916 216.805C27.2756 216.805 23.7095 219.687
23.7095 223.246Z"
            fill="#279C9C" />
        <path
            d="M30.3042 224.141C30.2312 224.141 30.1591 224.124 30.094 224.092C29.9951 224.044 27.6589 222.817
24.5006 215.79C24.4707 215.734 24.4526 215.674 24.4477 215.612C24.4427 215.549 24.451 215.487
24.472
215.428C24.4929 215.369 24.5261 215.315 24.5695 215.269C24.6128 215.223 24.6654 215.186 24.7239
215.161C24.7824 215.136 24.8455 215.123 24.9094 215.123C24.9732 215.123 25.0364 215.136 25.0949
215.161C25.1535 215.186 25.2061 215.223 25.2495 215.268C25.293 215.314 25.3263 215.368 25.3474
215.427C27.6774 220.611 29.513 222.485 30.2114 223.065C31.497 221.446 37.0717 214.641 42.9866
210.285C43.085 210.213 43.2087 210.182 43.3304 210.199C43.452 210.216 43.5617 210.279 43.6356
210.375C43.7094 210.472 43.7409 210.593 43.7236 210.711C43.7064 210.83 43.6412 210.938 43.5428
211.01C36.9298 215.88 30.7306 223.881 30.6688 223.965C30.6256 224.02 30.5704 224.064 30.5072
224.094C30.444 224.124 30.3746 224.14 30.3042 224.141Z"
            fill="#0F2064" />
        <path
            d="M51.1015 72.0546C50.9785 72.0546 50.8604 72.0068 50.7737 71.9217C50.6866 71.8368 50.6377 71.7215
50.6377 71.6015C50.6377 71.4813 50.6866 71.3659 50.7737 71.281C50.8604 71.1959 50.9785 71.1481
51.1015 71.1481C63.036 70.3625 80.768 70.435 90.261 70.5439C90.3222 70.5448 90.382 70.5572 90.4382
70.5806C90.4941 70.6043 90.5446 70.6381 90.5872 70.681C90.6297 70.7236 90.663 70.774 90.6856
70.8292C90.7082 70.8845 90.7195 70.9437 90.7185 71.0031C90.7108 71.1214 90.6586 71.2326 90.5719
71.3152C90.4851 71.398 90.3701 71.4461 90.2487 71.4504C80.7617 71.3356 63.0546 71.269 51.1633
72.0546H51.1015Z"
            fill="#0F2064" />
        <path
            d="M133.877 70.8462L105.768 70.5137C105.645 70.5137 105.527 70.4662 105.44 70.381C105.354 70.2962
105.305 70.1808 105.305 70.0606C105.305 69.9403 105.354 69.8253 105.44 69.7401C105.527 69.6553
105.645 69.6075 105.768 69.6075L133.877 69.9397C134 69.9397 134.118 69.9874 134.205 70.0726C134.292
70.1574 134.341 70.2728 134.341 70.3931C134.341 70.513 134.292 70.6284 134.205 70.7136C134.118
70.7984 134 70.8462 133.877 70.8462Z"
            fill="#0F2064" />
        <path
            d="M88.7967 78.9735C86.1141 78.9735 81.6271 78.6832 76.6085 78.3692C67.9991 77.8073 57.282 77.1062
51.9729 77.6864C51.912 77.6945 51.8498 77.6906 51.79 77.6747C51.7305 77.6591 51.6746 77.6318
51.6261
77.5947C51.5776 77.558 51.5367 77.5115 51.5064 77.4592C51.4765 77.4065 51.4572 77.3483 51.4502
77.2885C51.4433 77.2287 51.4486 77.1679 51.4659 77.1101C51.4832 77.0522 51.5121 76.9983 51.551
76.9515C51.5899 76.9047 51.6381 76.866 51.6923 76.8374C51.7468 76.8091 51.8066 76.7916 51.8678
76.786C57.2574 76.1818 68.0237 76.9008 76.6703 77.4627C83.166 77.8856 88.7721 78.2542 90.5766
78.0003C90.6986 77.9838 90.8226 78.015 90.9213 78.0874C91.0197 78.1599 91.0849 78.2678 91.1018
78.3871C91.1191 78.5067 91.0872 78.6276 91.0131 78.7242C90.9389 78.8204 90.8286 78.8841 90.7066
78.901C90.0719 78.9653 89.4343 78.9894 88.7967 78.9735Z"
            fill="#0F2064" />
        <path
            d="M102.845 102.267C100.144 102.267 96.1019 102.237 91.2688 102.195C79.1365 102.098 62.5168 101.966
51.0953 102.195C50.9723 102.195 50.8546 102.147 50.7675 102.062C50.6807 101.977 50.6318 101.862
50.6318 101.742C50.6318 101.622 50.6807 101.506 50.7675 101.421C50.8546 101.336 50.9723 101.289
51.0953 101.289C62.5168 101.035 79.1425 101.168 91.2688 101.289C97.5048 101.337 102.437 101.379
104.835 101.349C104.958 101.349 105.076 101.397 105.163 101.482C105.25 101.567 105.298 101.682
105.298 101.802C105.298 101.922 105.25 102.038 105.163 102.123C105.076 102.208 104.958 102.255
104.835 102.255L102.845 102.267Z"
            fill="#0F2064" />
        <path
            d="M63.6165 111.718C63.5609 111.718 58.054 111.597 51.923 111.416C51.8621 111.415 51.802 111.401
51.7465 111.377C51.6909 111.353 51.6407 111.318 51.5988 111.275C51.557 111.232 51.524 111.181
51.5021 111.125C51.4805 111.07 51.4702 111.01 51.4719 110.951C51.4765 110.831 51.529 110.718
51.6178
110.636C51.7069 110.553 51.8252 110.508 51.9476 110.51C58.0912 110.691 63.5796 110.812 63.6351
110.812C63.7581 110.812 63.8758 110.86 63.9629 110.945C64.0496 111.03 64.0985 111.145 64.0985
111.265C64.0985 111.385 64.0496 111.501 63.9629 111.586C63.8758 111.671 63.7581 111.718 63.6351
111.718H63.6165Z"
            fill="#0F2064" />
        <path
            d="M86.8928 138.976C74.717 138.976 61.9234 138.759 54.9703 138.033C54.9078 138.03 54.8469 138.014
54.7911 137.986C54.7352 137.958 54.6854 137.92 54.6451 137.873C54.6049 137.826 54.5747 137.772
54.5564 137.714C54.5381 137.655 54.5321 137.594 54.5388 137.533C54.5454 137.472 54.5647 137.413
54.5953 137.36C54.6259 137.306 54.6671 137.26 54.7166 137.222C54.7662 137.185 54.823 137.158
54.8835
137.143C54.9443 137.127 55.0072 137.124 55.0694 137.133C70.6319 138.765 115.515 137.816 116.875
137.659C116.935 137.651 116.997 137.656 117.055 137.672C117.114 137.688 117.169 137.715 117.217
137.753C117.265 137.79 117.305 137.836 117.334 137.888C117.363 137.941 117.382 137.998 117.387
138.058C117.401 138.177 117.366 138.297 117.29 138.391C117.213 138.485 117.102 138.546 116.98
138.559C116.226 138.644 102.041 138.976 86.8928 138.976Z"
            fill="#0F2064" />
        <path
            d="M100.286 168.313C99.9524 168.313 67.0351 167.522 50.8975 166.694C50.8367 166.69 50.7772 166.676
50.722 166.65C50.6671 166.624 50.6176 166.588 50.577 166.544C50.5361 166.5 50.5046 166.448 50.4846
166.392C50.4643 166.335 50.4554 166.276 50.4587 166.216C50.4603 166.156 50.4743 166.097 50.4999
166.042C50.5258 165.988 50.5624 165.939 50.6083 165.899C50.6542 165.859 50.7077 165.828 50.7659
165.809C50.824 165.789 50.8859 165.782 50.947 165.787C67.0661 166.615 99.9773 167.401 100.305
167.407C100.428 167.407 100.546 167.454 100.633 167.539C100.72 167.624 100.768 167.74 100.768
167.86C100.768 167.98 100.72 168.095 100.633 168.18C100.546 168.265 100.428 168.313 100.305
168.313H100.286Z"
            fill="#0F2064" />
        <path
            d="M82.585 177.069H82.5355C82.3935 177.069 68.3204 175.667 55.1927 174.313C55.0747 174.296 54.9683
174.234 54.8952 174.142C54.8224 174.049 54.7888 173.933 54.8014 173.817C54.8144 173.701 54.8726
173.594 54.9637 173.519C55.0551 173.444 55.1724 173.405 55.2918 173.413C68.4008 174.767 82.4859
176.156 82.6282 176.169C82.7512 176.174 82.8669 176.227 82.9497 176.316C83.0325 176.405 83.076
176.523 83.0701 176.643C83.0644 176.763 83.0102 176.876 82.9191 176.957C82.828 177.038 82.708
177.081 82.585 177.075V177.069Z"
            fill="#0F2064" />
        <path
            d="M73.8334 197.433C66.6795 197.495 59.5292 197.091 52.4302 196.224C52.3696 196.216 52.3115 196.196
52.2589 196.165C52.2064 196.135 52.1605 196.095 52.1236 196.047C52.0495 195.951 52.0176 195.83
52.0349 195.71C52.0518 195.591 52.117 195.483 52.2154 195.411C52.3141 195.338 52.4378 195.307
52.5601 195.323C67.5724 197.348 87.3996 196.435 101.386 195.323C107.004 194.96 112.641 194.96
118.259 195.323C118.32 195.328 118.379 195.344 118.434 195.371C118.488 195.398 118.537 195.435
118.577 195.48C118.617 195.525 118.647 195.577 118.667 195.634C118.685 195.691 118.693 195.75
118.689 195.81C118.684 195.869 118.668 195.928 118.64 195.981C118.613 196.034 118.575 196.082
118.529 196.121C118.483 196.16 118.429 196.189 118.371 196.208C118.313 196.227 118.252 196.234
118.191 196.23C112.62 195.869 107.031 195.869 101.46 196.23C93.4877 196.864 83.6359 197.433 73.8334
197.433Z"
            fill="#0F2064" />
        <path
            d="M90.3973 226.062H90.3045C86.6333 225.355 79.7606 225.289 72.4797 225.222C64.3401 225.144 55.9222
225.065 49.9581 224.146C49.8368 224.127 49.7281 224.062 49.6563 223.964C49.5844 223.867 49.5552
223.745 49.5748 223.627C49.5961 223.509 49.6636 223.404 49.7626 223.334C49.862 223.264 49.9854
223.235 50.1064 223.252C56.0027 224.165 64.3833 224.243 72.492 224.316C79.8162 224.382 86.7074
224.449 90.4837 225.174C90.5997 225.192 90.7041 225.253 90.7759 225.344C90.8477 225.435 90.8816
225.549 90.8707 225.663C90.8597 225.778 90.8049 225.884 90.7168 225.96C90.629 226.037 90.5146
226.077 90.3973 226.074V226.062Z"
            fill="#0F2064" />
        <path
            d="M76.1141 235.301C75.9904 235.301 63.8086 234.552 51.8741 233.736C51.8133 233.732 51.7537 233.717
51.6989 233.691C51.644 233.664 51.5952 233.627 51.5549 233.582C51.515 233.537 51.4841 233.485
51.4645 233.429C51.4452 233.372 51.4373 233.312 51.4416 233.253C51.4509 233.133 51.5081 233.022
51.6005 232.943C51.6929 232.864 51.8133 232.823 51.9359 232.83C63.8645 233.652 76.04 234.389
76.1637
234.395C76.2867 234.395 76.4043 234.443 76.4914 234.528C76.5782 234.613 76.6271 234.728 76.6271
234.848C76.6271 234.968 76.5782 235.084 76.4914 235.168C76.4043 235.254 76.2867 235.301 76.1637
235.301H76.1141Z"
            fill="#0F2064" />
        <path
            d="M140.237 179.117C140.128 179.12 140.022 179.083 139.939 179.014C139.855 178.945 139.801 178.848
139.786 178.743C139.736 178.41 139.687 178.096 139.631 177.776C136.998 162.76 121.51 134.094
114.971
122.468C109.779 113.223 104.464 102.298 102.721 97.8926C100.978 93.4879 92.1217 74.1575 91.4974
72.8038C87.4 68.9578 82.524 65.9938 77.1832 64.1025C77.0669 64.0625 76.9715 63.979 76.9183
63.8701C76.8647 63.7612 76.8581 63.6364 76.899 63.5227C76.9399 63.4086 77.0253 63.3156 77.1367
63.2633C77.2481 63.2113 77.3757 63.2044 77.4924 63.2444C83.0054 65.1878 88.0353 68.2498 92.2514
72.2298C92.2873 72.2672 92.3166 72.3101 92.3378 72.3569C92.4306 72.5623 101.837 93.0042 103.617
97.5725C105.33 101.947 110.638 112.824 115.812 122.033C122.369 133.701 137.913 162.47 140.571
177.625C140.633 177.951 140.676 178.277 140.725 178.592C140.743 178.712 140.712 178.833 140.64
178.932C140.567 179.03 140.458 179.096 140.336 179.117H140.237Z"
            fill="#0F2064" />
        <path
            d="M159.724 182.519C159.613 182.519 159.505 182.48 159.42 182.408C159.336 182.337 159.281 182.238
159.265 182.13C159.25 182.022 159.274 181.912 159.335 181.82C159.395 181.729 159.487 181.662
159.595
181.631L159.972 181.522C164.724 180.144 179.187 175.963 191.758 175.262C191.881 175.255 192.002
175.296 192.094 175.376C192.186 175.455 192.242 175.568 192.249 175.688C192.257 175.808 192.215
175.926 192.133 176.016C192.051 176.107 191.936 176.161 191.814 176.168C179.348 176.863 164.965
181.002 160.237 182.392L159.86 182.501C159.816 182.513 159.77 182.52 159.724 182.519Z"
            fill="white" />
        <path
            d="M164.106 208.714C160.348 208.714 157.394 208.237 154.922 207.276C154.86 207.258 154.804 207.227
154.755 207.187C154.706 207.146 154.667 207.096 154.639 207.039C154.611 206.983 154.595 206.921
154.593 206.859C154.591 206.796 154.602 206.733 154.625 206.675C154.649 206.617 154.685 206.564
154.73 206.52C154.776 206.476 154.83 206.442 154.89 206.419C154.949 206.396 155.014 206.386 155.077
206.389C155.142 206.392 155.204 206.408 155.262 206.436C159.736 208.176 166.238 208.249 176.337
206.654C179.607 206.14 182.32 205.687 184.632 205.276C193.81 203.65 195.831 202.859 195.849
202.859C195.961 202.821 196.082 202.826 196.19 202.873C196.298 202.92 196.383 203.005 196.429
203.111C196.474 203.217 196.477 203.337 196.436 203.445C196.395 203.552 196.313 203.641 196.208
203.693C196.127 203.723 194.162 204.508 184.799 206.164C182.481 206.575 179.761 207.028 176.486
207.548C172.397 208.251 168.257 208.641 164.106 208.714Z"
            fill="white" />
        <path
            d="M219.206 74.7556C219.086 74.7559 218.971 74.7104 218.884 74.6295C218.798 74.5482 218.747 74.4377
218.742 74.3207L218.174 60.7732L210.59 58.1022L201.159 68.8098C201.118 68.855 201.069 68.8921
201.014 68.9187C200.959 68.9451 200.898 68.961 200.837 68.9649C200.776 68.9688 200.714 68.961
200.656 68.9415C200.598 68.922 200.544 68.8918 200.497 68.8521C200.451 68.8124 200.413 68.7643
200.386 68.7104C200.359 68.6564 200.343 68.5976 200.339 68.5375C200.335 68.4777 200.343 68.4172
200.363 68.3603C200.382 68.3035 200.414 68.2508 200.454 68.2056L210.09 57.2623C210.15 57.1927
210.232 57.1427 210.322 57.1189C210.412 57.0952 210.508 57.0988 210.596 57.1293L218.773
60.0117C218.86 60.0416 218.936 60.0962 218.991 60.1683C219.046 60.2402 219.078 60.3266 219.082
60.4167L219.663 74.2664C219.666 74.3259 219.656 74.385 219.635 74.4413C219.614 74.4972 219.582
74.5482 219.541 74.5921C219.499 74.636 219.45 74.6714 219.394 74.6961C219.339 74.7211 219.279
74.7351 219.218 74.7377L219.206 74.7556Z"
            fill="#0F2064" />
        <path
            d="M192.005 131.502C191.931 131.502 191.858 131.485 191.791 131.452C191.725 131.419 191.668 131.37
191.625 131.311C191.582 131.252 191.554 131.183 191.544 131.111C191.534 131.039 191.541 130.966
191.566 130.897L210.009 81.4388C210.053 81.3292 210.139 81.2405 210.249 81.1921C210.359 81.1433
210.484 81.1388 210.598 81.1787C210.711 81.219 210.804 81.3006 210.857 81.4069C210.91 81.5129
210.918 81.6351 210.88 81.7469L192.438 131.206C192.405 131.292 192.346 131.367 192.269
131.42C192.191 131.473 192.099 131.501 192.005 131.502Z"
            fill="white" />
        <path
            d="M181.832 137.822C181.779 137.831 181.724 137.831 181.671 137.822C181.612 137.801 181.557 137.769
181.511 137.727C181.464 137.685 181.427 137.634 181.402 137.577C181.376 137.521 181.363 137.46
181.362 137.398C181.362 137.336 181.375 137.275 181.399 137.218L203.377 79.4266C203.42 79.3134
203.507 79.2218 203.618 79.1714C203.73 79.121 203.858 79.1158 203.974 79.1578C204.089 79.1994
204.183 79.2842 204.235 79.3934C204.286 79.5029 204.291 79.6277 204.249 79.7409L182.271
137.532C182.237 137.618 182.176 137.693 182.098 137.745C182.019 137.796 181.926 137.824 181.832
137.822Z"
            fill="white" />
    </g>
    <defs>
        <clipPath id="clip0_62_121">
            <rect width="250" height="300" fill="white" />
        </clipPath>
    </defs>
</svg>